<svg width="197" height="202" viewBox="0 0 197 202" fill="none" xmlns="http://www.w3.org/2000/svg">
<path d="M72.5 151.786C80.1 152.168 85 152.359 89.9 152.455C94.8 152.455 99.8 152.646 107.7 152.359C115.3 152.168 123.3 151.691 130.7 151.023C134.2 150.45 140.4 150.068 144.5 149.304H146.1C147.5 148.923 149.2 148.636 150.6 148.445C152.7 148.063 155.1 147.586 156.1 147.3L158.6 146.822L158.2 147.013C161.8 146.059 165.5 145.009 168.8 144.054H168.5C171.9 143.004 174.5 142.145 176.6 140.235C177.6 139.281 178.5 137.944 178.6 136.321C178.6 134.699 178.1 133.362 177.9 131.93C176.7 128.398 176.4 125.343 176.2 122.193C176 119.138 176 115.988 175.6 111.978C175.7 113.028 175.6 111.501 175.7 111.596C175.5 107.873 175.2 103.864 174.7 103.864C174.4 101.096 174.6 101.668 174.7 101.286C174.7 101.286 174.5 100.714 174.3 99.8545C174.1 98.9953 173.9 97.8498 173.7 96.7997C173.8 97.086 173.9 97.4679 174 97.7543C173.8 96.7042 173.5 95.7496 173.3 94.6995C173 93.6494 172.7 92.6947 172.4 91.7401V92.9811C172 91.3583 172 91.1673 172 90.9764C172 90.7855 172 90.5946 171.4 89.1626H171.2C170.3 87.1579 169.5 85.535 168.7 83.9121C167.9 82.2893 167 80.7618 165.7 78.948C162.8 75.225 159.6 71.8838 156.1 68.638C152.6 65.3923 148.7 62.4329 144.5 60.0464C140.2 57.6598 135.7 56.0369 131.2 54.7004C126.7 53.3639 122.3 52.3138 118 51.2637L117.3 50.8819C117 50.5 112.5 50.3091 111.8 50.0227L109.8 49.8318C109.2 49.6409 108 49.4499 109.1 49.5454C107.2 49.259 107.2 49.259 105.8 49.1636L103.8 48.7817C96.3 47.8271 89.8 48.1135 82 49.259C77.3 49.8318 70.5 51.4547 64.2 54.2231C57.8 56.9915 51.9 60.8101 48 63.9603C42.5 68.4471 37 73.793 32.6 80.1891C28.2 86.4896 25.3 93.8403 24.1 100.809C24 101.286 23.8 102.432 23.9 102.432C23.1 106.632 22.5 110.928 22.1 115.224C22.1 115.224 21.5 120.379 21.1 126.68C20.9 129.83 20.7 133.171 20.6 136.321C20.6 137.849 20.6 139.376 20.6 140.713C20.6 142.336 20.6 143.863 20.6 145.199C22.1 145.199 23.5 145.39 23.9 145.295C24.5 145.295 24.9 145.295 25 145.199C25 145.199 24.9 145.009 24.3 144.913C23.8 144.722 22.8 144.531 21.6 144.34C21.6 143.672 21.8 142.908 21.9 142.049C21.9 141.095 22.1 140.14 22.2 138.899C22.5 136.512 22.8 133.648 23.2 130.212V130.498C23.9 123.529 24.3 119.234 24.5 114.365C25 113.601 25.2 108.637 25.6 107.11V107.301C25.9 103.1 27.4 98.8044 28.3 94.8904C28.3 95.0813 28.3 95.1768 28.1 96.036C28.8 93.1721 30.4 89.449 30.7 89.3535C31 88.4944 31.4 87.7307 31.9 86.8715C32.3 86.0123 32.8 85.1532 33.2 84.294C33.7 83.4348 34.3 82.5756 34.8 81.7165C35.3 80.8573 35.8 79.9981 36.5 79.2344C37.7 77.707 38.8 76.0842 39.9 74.8431C41 73.5067 41.9 72.3611 42.7 71.5019L42.5 71.7883C44.2 69.7836 44.9 69.3063 47.1 67.397C47.2 67.397 47.4 67.2061 47.4 67.2061C49.4 65.1059 54.1 62.1465 56.1 60.9055H56.3C56.7 60.7146 57.1 60.4282 57.5 60.2373L58.8 59.569L61.4 58.2326L59.5 59.1872C59.7 58.8053 60.7 58.328 62.1 57.7552C63.6 57.1825 65.4 56.5142 67.3 55.5596C68.2 55.2732 69.2 54.8913 70.1 54.414C70.6 54.2231 71 54.0322 71.5 53.7458C72 53.5549 72.4 53.3639 72.9 53.173C73.9 52.7912 74.8 52.4093 75.8 52.1229C76.8 51.7411 77.8 51.6456 78.8 51.4547C80.7 50.8819 77.2 52.1229 80 51.4547C80.1 51.6456 78.7 51.8365 79.5 51.8365C80.2 51.6456 80.8 51.5501 81.5 51.4547C82.1 51.4547 82.7 51.3592 83.4 51.2637C84 51.2637 84.7 51.1683 85.4 51.0728C86.1 51.0728 86.9 50.8819 87.8 50.7864L88 50.9774C92.6 50.3091 96.8 50.9774 99.9 50.9774C102.3 51.0728 103.1 51.3592 103.9 51.5501C104.7 51.7411 105.5 51.932 108.1 52.1229L110 52.6002C112.1 52.9821 111.6 52.6002 113.9 53.0775C113.7 53.173 116.8 53.7458 115.4 53.6503C118 54.3186 120.7 54.7959 123.6 55.3687C126.5 56.0369 129.5 56.7051 132.8 57.9462C134.4 58.1371 137.6 59.4736 138.7 59.76C138.7 59.76 140.4 60.5237 141.5 61.0964C142.6 61.6692 143.2 62.0511 141.5 61.2874C141.2 61.1919 140.7 60.9055 140.7 60.9055H140.2C143.6 62.8148 146.5 64.0558 149.6 66.4424C148.7 65.6787 147.5 64.8195 148.4 65.2968C149.4 66.0605 150.3 66.7288 151.2 67.4925L150.5 67.1106C151.9 68.2562 153.2 69.4972 154.5 70.7382L154.1 70.07C156 71.9792 156.4 72.743 158.6 74.7477C159.6 75.6068 157.1 72.743 159 74.7477C161.4 77.4206 164.7 81.4301 166.9 85.2486C166.9 84.7713 167.5 85.8214 168.1 86.8715V87.0624C169.2 89.0671 169.2 89.449 169.3 89.9263C169.3 90.3082 169.4 90.7855 170.3 92.7902C170.3 92.6947 170.1 92.5993 170.1 92.4084C170.4 92.6947 170.6 93.0766 170.8 93.4585C171.6 95.3677 171.6 95.9405 171.6 96.6087C171.6 96.8951 171.6 97.277 171.8 97.7543C171.8 98.2316 172.1 98.9953 172.4 100.141C172 98.3271 172.7 99.1862 172.9 101.477L172.7 100.905C172.9 102.146 173 102.527 173.1 103.387C172.9 102.623 172.8 103.005 173.1 104.819L172.8 103.578C173 104.723 173.2 105.869 173.4 107.014C173.4 109.687 173.8 113.983 173.6 115.129C173.6 115.129 173.6 116.561 173.7 118.279C173.7 119.902 174 121.716 174.1 122.384C173.8 121.238 174.1 124.484 173.8 123.529C174.1 125.057 174.9 129.544 175.2 131.357V130.975C175.2 131.835 175.5 132.598 175.7 133.362C175.9 134.126 176.1 134.794 176.2 135.367C176.2 135.94 176.2 136.417 176.2 136.799C176.1 137.181 175.8 137.562 175.5 137.944C174.8 138.708 173.7 139.376 172.5 139.854C171.3 140.331 169.9 140.808 168.4 141.19C168.7 141.285 165.6 142.145 166.4 142.145C160.4 144.149 155 144.436 152.9 145.581C150 146.154 149.5 145.963 148 146.154L148.7 145.963C143.3 146.822 141.7 147.013 137.7 147.491C135.7 147.777 135.4 148.159 131.8 148.35C133 148.063 131.5 148.35 130.1 148.35C131 148.35 131.2 148.159 129.4 148.254C129.2 148.254 128.8 148.35 128.4 148.445C126.1 148.636 126.5 148.636 127.6 148.636C127.6 148.636 127.6 148.636 128 148.636C125.6 148.636 121.4 149.018 121.1 148.827C114.3 149.209 109.4 149.686 103.7 149.877C103.1 149.782 104.4 149.591 106 149.495C104.7 149.495 103.3 149.591 102 149.591C102 149.4 104.3 149.495 105.6 149.4C100.8 149.209 95.7 149.877 90.1 149.495H88.9C88.9 149.591 88.6 149.591 88.6 149.591C88.6 149.591 87.4 149.782 86.5 149.782C85.7 149.591 86.5 149.4 83.8 149.4C81.6 149.209 77.5 149.4 74.6 149.304C76.2 149.304 75.6 149.495 75 149.495C73.6 149.495 72.8 149.304 71.7 149.304V149.113C72.1 149.304 67.9 149.113 67.4 149.113C66.6 148.923 69.6 149.113 69.9 149.018C64.3 148.732 67.1 148.923 61.5 148.541C58.5 148.541 62 148.732 60.6 148.827C58 148.636 55.4 148.636 52.4 148.254L53.3 148.541C48.3 148.254 45.4 147.968 42.1 147.395C32.9 146.822 27.8 146.345 25.3 146.345C22.8 146.345 23 146.536 24.3 146.822C25.6 147.204 28.1 147.586 30.2 147.968C32.3 148.254 34.1 148.541 34.1 148.541C41.3 149.591 46.8 150.164 52.7 150.545C58.6 150.927 64.8 151.214 73.5 151.5L72.5 151.786Z" fill="#FF2626"/>
<path d="M89.3 44.7722C89.5 44.1994 89.8 43.913 90 43.6266C90.3 43.3402 90.5 43.0538 90.8 42.4811C91.2 42.0037 91.6 41.5264 92.1 41.0491C92.1 40.6673 92.8 40.5718 92.9 40.0945H93.1C93.1 40.0945 93.3 39.9036 93.4 39.9036C93.4 39.7126 93.7 39.7126 93.8 39.6172H94C94.2 39.4262 94.6 39.2353 94.9 39.1399V38.9489C95.5 38.9489 95.6 38.3762 96.2 38.3762C96.8 37.7079 97.5 38.3762 98.1 37.7079C98.1 37.7079 98.1 37.7079 98.1 37.8034C98.4 37.7079 98.8 37.6124 98.7 37.2306C99 37.2306 98.9 37.2306 99 37.4215C99 37.2306 99.2 37.1351 99.4 37.1351C99.6 37.1351 99.8 37.1351 100 37.1351V36.8487C100.2 36.8487 100 37.2306 100.3 37.1351V36.8487C100.7 36.8487 101 37.2306 101.4 37.517C102.2 37.517 103.1 37.517 103.9 37.8034C104.7 37.9943 105.5 38.3761 106 38.9489V39.1399C105.8 39.4262 106.5 39.1399 106.4 39.3308H106.6V39.5217C106.7 39.6172 106.8 39.5217 106.9 39.6172V39.9036C107.2 40.4763 107.9 40.6673 108.2 41.24C108.4 42.0992 109.3 43.2448 109.7 44.1994C110.1 44.7722 110 45.5359 109.9 46.2041C109.8 46.8724 109.6 47.6361 109.9 48.3043V48.4952C109.9 48.8771 109.8 49.3544 109.7 49.7363C109.7 49.7363 109.6 50.4045 109.5 51.1682L111.4 50.4045C110 49.7363 108.2 49.2589 110.2 52.3138L111.2 53.2684L111.9 51.6455C112.2 50.9773 112.3 50.5 112 50.0227C112.4 50.0227 112.1 49.4499 112.3 49.2589C112 48.7816 112.6 48.3043 112.3 47.9225C112.3 47.9225 112.4 47.9225 112.4 48.0179C112.4 47.7315 112.3 47.2542 112.5 47.2542C112.5 46.4905 112.5 45.345 112 44.8676C111.7 44.6767 111.9 44.4858 111.7 44.1994C111.4 43.913 111.4 43.3402 111.3 43.1493H111.4C111.4 42.8629 111.2 42.672 111.2 42.4811V42.672C110.8 42.672 111.2 42.0992 110.8 41.8128C110.7 41.431 109.6 41.431 109.6 40.9537C109.3 40.9537 110 40.9537 109.6 40.7627C109.8 40.6673 109.8 40.7627 109.9 40.6673C109.6 40.4763 109.9 40.0945 109.5 39.9036H109.6C109 39.5217 109.2 38.8535 108.7 38.8535C108.2 38.5671 108.8 38.2807 108.2 38.0898V37.8034C108 37.6124 107.9 37.8034 107.7 37.6124C107.8 37.517 107.5 37.3261 107.7 37.3261C107.3 36.7533 106.5 36.8487 105.9 36.1805C105.6 36.3714 105.3 35.9896 105.1 36.1805C105.1 36.085 104.3 35.8941 104.9 35.7986H105C104.6 35.2259 104.1 35.5123 103.7 35.4168C103.8 35.4168 104 35.5123 103.9 35.6077C103.8 35.6077 103.6 35.6077 103.5 35.5123H103.6C103.4 35.3213 103.2 35.2259 103 35.2259V35.4168C102.8 35.3213 102.7 34.9395 102.3 35.1304C102.1 35.2259 102.6 35.4168 102.3 35.4168C101.9 35.2259 101.3 35.0349 100.7 35.0349C100.7 35.2259 100.7 35.2259 100.5 35.2259V35.0349C99.9 35.3213 100.2 34.6531 99.7 34.9395C99.7 34.844 99.6 35.2259 99.6 35.2259C99.1 35.6077 99.3 34.9395 98.8 35.4168C99 35.4168 99 35.7986 98.7 35.7032V35.5123C98.6 35.5123 98.6 35.6077 98.5 35.6077C98.5 35.5123 98.5 35.4168 98.3 35.4168V35.2259C98.4 35.2259 98.1 35.6077 98.1 35.6077C97.7 35.5123 97.3 35.7986 97.1 35.6077C97.1 35.6077 96.4 35.6077 96.3 35.9896C96.3 35.7986 96 35.8941 96 35.6077C95.9 35.7986 95.4 36.085 95.2 35.9896C94.4 35.9896 94.1 36.6578 93.4 36.7533C93.5 36.9442 93.1 36.9442 93.4 37.1351C92.9 37.6124 92 37.3261 92.2 38.0898C92 38.2807 91.8 38.0898 91.6 38.0898C91.1 38.3762 91 38.4716 90.6 38.758C90.5 38.9489 90.6 39.2353 90.3 39.4262C90.3 39.2353 90.2 39.4262 90.1 39.4262C90.1 39.4262 90.1 39.3308 89.9 39.4262V39.5217C89.7 39.7126 89.9 39.7126 89.9 39.7126C89.6 39.7126 89.4 40.1899 89.2 40.0945C88.7 40.6673 88.6 41.24 88.3 41.8128C88.2 41.8128 88.1 41.6219 88.3 41.431L88.1 41.8128C87.9 41.7174 88.1 41.5264 88.2 41.431C87.6 41.7174 87.8 42.4811 87.3 42.9584V43.1493C87.3 43.1493 87.4 43.3402 87.3 43.4357C87.1 43.4357 87 43.2448 86.8 43.6266C86.6 43.8176 86.6 44.2949 86.7 44.6767C86.7 44.4858 86.8 44.6767 86.9 44.6767C86.9 44.8676 86.7 44.8676 86.7 44.9631H86.5C86.7 44.9631 86.6 45.345 86.7 45.4404C86.5 45.4404 86.6 45.154 86.5 45.154C86.5 45.8223 86.5 45.4404 86.5 46.1087C86.6 46.4905 86.7 46.1087 86.9 46.2041C86.9 46.4905 87.1 46.7769 86.9 47.0633H87.1C87.3 47.4451 87.3 47.7315 87.2 48.1134C87.9 48.9726 88.4 49.1635 88.8 49.1635C89.2 49.1635 89.3 49.1635 89.4 48.8771C89.4 48.6862 89.4 48.4952 89.5 48.3043C89.5 48.1134 89.5 48.0179 89.5 48.0179C89.5 47.5406 89.5 47.1588 89.3 46.7769C89.2 46.3951 89 45.9177 89.1 45.2495L89.3 44.7722Z" fill="#FF2626"/>
<path d="M95.4 45.6314C95.6 44.9631 96 44.8676 96 44.1994C96.1 43.913 96.2 43.5312 96.3 43.2448C96.1 42.9584 96.5 42.8629 96.4 42.5765H96.6V42.3856C96.6 42.2901 96.6 42.1947 96.6 42.1947C96.6 42.0038 96.7 41.9083 96.9 41.8128H96.7C97.1 41.6219 96.9 41.2401 97.3 41.2401C97.3 40.9537 97.5 40.9537 97.7 40.9537C97.9 40.9537 98.1 40.9537 98.1 40.6673C98.1 40.6673 98.1 40.6673 98.1 40.7627C98.2 40.6673 98.4 40.4763 98.2 40.19C98.3 40.19 98.4 40.19 98.4 40.3809C98.4 40.19 98.4 40.0945 98.5 40.0945C98.5 40.0945 98.7 40.0945 98.8 40.0945L98.6 39.8081C98.8 39.8081 98.8 40.19 98.9 40.0945V39.8081C99.1 39.8081 99.3 40.19 99.5 40.3809C99.9 40.3809 100.3 40.2854 100.6 40.3809C100.9 40.3809 101.2 40.5718 101.2 40.9537H101C100.7 41.2401 101.5 40.9537 101.2 41.1446H101.4C101.4 41.1446 101.4 41.2401 101.2 41.2401C101.2 41.2401 101.2 41.2401 101.4 41.2401H101.3C101.3 41.7174 101.7 41.9083 101.7 42.3856C101.5 42.9584 102 43.8176 102.3 44.2949C102.9 44.9631 101.9 46.1087 102.5 46.7769V47.5406C102.5 47.5406 102.6 48.3998 102.9 48.9726C103.2 49.4499 103.8 49.7363 105 48.2089C105.1 47.827 105.1 47.5406 104.8 47.2542C105.2 47.2542 104.8 46.8724 104.9 46.7769C104.6 46.586 105.1 46.2041 104.8 46.0132C104.8 46.0132 104.9 46.0132 105 46.0132C105 45.8223 104.8 45.6314 105 45.5359C104.9 45.154 104.9 44.4858 104.5 44.2949C104.2 44.1994 104.5 44.1039 104.3 43.913C104 43.8176 104.2 43.4357 104 43.3402H104.2L104.1 42.9584C103.7 43.1493 104.3 42.7675 104 42.5765C104 42.2901 103 42.2901 103.2 42.0038C103 42.0038 103.5 42.0038 103.3 41.9083C103.5 41.9083 103.5 41.9083 103.6 41.9083C103.5 41.8128 103.8 41.6219 103.6 41.431H103.8C103.4 41.2401 103.8 40.8582 103.5 40.6673C103.3 40.3809 103.9 40.2854 103.5 40.0945L103.7 39.9036C103.7 39.7126 103.4 39.9036 103.4 39.7126C103.5 39.7126 103.4 39.4263 103.6 39.5217C103.6 39.2353 103.4 39.1399 103.2 38.9489C103 38.758 102.8 38.5671 102.6 38.2807C102.3 38.3762 102.1 38.0898 101.9 38.2807C101.9 38.1852 101.3 37.9943 101.8 37.8988H101.9C101.7 37.3261 101.2 37.7079 100.9 37.517C100.9 37.517 101.1 37.6125 101 37.7079C100.9 37.7079 100.8 37.7079 100.7 37.7079C100.5 37.517 100.4 37.517 100.2 37.4215V37.6125C100 37.517 100 37.2306 99.7 37.4215C99.6 37.517 99.9 37.6125 99.7 37.7079C99.4 37.6125 99 37.4215 98.6 37.4215C98.6 37.6125 98.6 37.6125 98.5 37.7079V37.517C98.1 37.8034 98.2 37.2306 97.9 37.517C97.9 37.4215 97.9 37.8034 97.9 37.8034C97.7 38.1852 97.6 37.517 97.4 38.0898C97.5 38.0898 97.6 38.3762 97.4 38.3762V38.1852C97.4 38.1852 97.4 38.2807 97.2 38.2807C97.2 38.1852 97.2 38.0898 97 38.0898V37.8988C97 37.9943 97 38.1852 96.9 38.2807C96.6 38.2807 96.5 38.5671 96.3 38.3762C96.3 38.3762 96.2 38.3762 96.1 38.3762C96 38.3762 95.9 38.5671 95.9 38.6625C95.9 38.4716 95.7 38.5671 95.6 38.3762C95.6 38.5671 95.4 38.8535 95.2 38.758C94.7 38.8535 94.7 39.4263 94.2 39.5217C94.4 39.6172 94.2 39.7126 94.3 39.9036C94.2 40.3809 93.4 40.19 93.9 40.7627C93.9 40.9537 93.6 40.7627 93.5 40.8582C93.3 41.1446 93.3 41.2401 93.1 41.431C93.1 41.6219 93.4 41.8128 93.2 41.9083C93.2 41.8128 93.1 41.9083 93 41.9083C93 41.9083 93 41.8128 92.8 41.9083C92.8 41.9083 92.8 41.9083 92.8 42.0038C92.8 42.1947 92.8 42.1947 92.8 42.0992C92.6 42.0992 92.6 42.4811 92.4 42.3856C92.3 42.7675 92.4 43.1493 92.4 43.5312C92.3 43.5312 92.2 43.4357 92.2 43.3402V43.6266C92 43.6266 92.2 43.4357 92.1 43.3402C91.7 43.5312 92.1 44.0085 91.9 44.2949H92C92 44.3903 92 44.3903 92 44.3903C92 44.3903 92.2 44.4858 92.2 44.5813C92 44.5813 91.8 44.5813 91.8 44.6767C91.6 44.7722 91.8 45.0586 91.9 45.2495C91.9 45.154 92 45.2495 92.1 45.2495C92.1 45.2495 91.9 45.345 92 45.4404H91.8C92 45.4404 92 45.7268 92.1 45.7268C91.9 45.7268 92 45.6314 91.8 45.5359C91.8 45.9177 91.8 45.7268 91.8 46.1087C92 46.2996 92 46.1087 92.2 46.1087C92.2 46.2996 92.4 46.3951 92.3 46.586H92.5C92.7 46.7769 92.7 46.9678 92.5 47.1588C93 47.6361 93.5 47.7315 93.7 47.7315C94 47.7315 94.2 47.7315 94.3 47.5406C94.6 47.2542 94.6 46.9678 94.6 46.9678C94.9 46.2996 94.3 46.1087 94.1 45.345L95.4 45.6314Z" fill="#FF2626"/>
<path d="M47 79.5208L46.7 79.9026C46.7 79.9026 46.8 79.9026 47 79.5208Z" fill="#FF2626"/>
<path d="M48.8 73.4111C46.5 75.8931 45.1 77.516 43.8 79.3298C42.5 81.1436 41.3 82.9574 39.8 86.1077C38.3 89.1625 37.2 92.5037 36.4 95.5585C36.3 97.0859 35.3 99.6635 35.2 101.382L34.9 102.05C34.9 102.623 34.8 103.387 34.6 103.959C34.6 104.818 34.3 105.869 34.3 106.25L34.1 107.301V107.11C33.9 108.732 33.7 110.355 33.4 111.787H33.6C32.9 114.747 33.2 115.892 32.6 118.661C32.7 122.193 31.6 124.102 31.8 127.825C31.8 127.348 31.7 128.016 31.6 128.016C31.6 129.734 31.4 131.453 31.8 131.548C31.8 132.789 31.6 132.503 31.4 132.694C31.6 132.694 31.6 133.744 31.6 134.698V134.221C31.6 135.176 31.6 136.13 31.8 137.18C31.8 136.99 31.9 136.703 32 136.512C32 137.276 32 137.467 32 137.562C32 137.658 31.9 137.753 32.3 138.517H32.5C33 139.472 33.8 140.14 34.6 140.713C35 140.999 35.6 141.19 36.2 141.285C36.8 141.285 37.6 141.285 38.2 140.999C38.9 140.617 39.5 140.044 39.8 139.472C40.2 138.899 40.3 138.231 40.5 137.658C40.6 137.085 40.7 136.512 40.7 135.939V134.412C40.9 132.407 41 130.403 41.3 128.398C41.4 127.443 41.5 126.393 41.7 125.438C41.9 124.484 42.1 123.529 42.3 122.479C42.7 120.57 43.2 118.756 43.8 116.942L44.1 116.656C44.3 116.656 44.3 116.083 44.3 115.606C44.3 115.033 44.4 114.556 44.6 114.46V113.601C44.9 113.41 45.1 112.933 45 113.315C45.3 112.551 45.2 112.551 45.3 111.978L45.7 111.214C46.9 108.351 47.5 105.678 48.9 102.718C49.4 101.859 49.9 100.714 50.5 99.568C51.1 98.4224 51.7 97.086 52.4 95.7495C53.1 94.5084 53.8 93.172 54.4 91.9309C55.1 90.6899 55.7 89.6398 56.3 88.6852C56.7 88.017 57 87.3487 57.5 86.6805C57.9 86.0122 58.4 85.344 58.9 84.6757C59.4 84.0075 59.9 83.3393 60.4 82.671C60.9 82.0028 61.5 81.43 62 80.7618C63.1 79.5207 64.2 78.2797 65.3 77.0387C66.4 75.7977 67.4 74.5567 68.4 73.4111C68.6 73.3156 68.9 72.8383 68.8 72.8383L70.8 70.7381C71.5 70.0699 72.2 69.4016 72.9 68.7334C72.9 68.7334 73.2 68.447 73.7 67.9697C74.2 67.4924 74.9 66.7287 75.8 66.0604C76.5 65.4876 77.2 64.8194 77.9 64.2466L78.5 63.7693L79 63.292L79.9 62.3374L80.3 61.8601C80.5 61.7646 80.3 61.7646 80.1 61.7646H79.7C79.2 61.5737 78.8 61.4782 78.3 61.3827C77.4 61.1918 76.5 61.0009 75.7 61.0009C75.3 61.0009 74.9 61.0009 74.5 61.0009C74.3 61.0009 74.1 61.0009 73.9 61.0009C73.7 61.0009 73.6 61.0009 73.5 61.0009C73 61.0009 72.6 61.0963 72.3 61.1918C71.7 61.3827 71.4 61.5737 71.6 61.6691C71.8 61.8601 72.5 61.8601 73.8 62.1464C74.4 62.2419 75 62.4328 75.5 62.6238C75.7 62.7192 76 62.8147 76.1 63.0056C76.3 63.0056 75.9 63.1965 75.8 63.292C75.6 63.3875 75.4 63.4829 75.2 63.5784C74.9 63.7693 74.7 63.9602 74.4 64.0557L74.3 64.2466C74.2 64.3421 74 64.4376 73.9 64.533C73.7 64.7239 73.4 64.9149 73.2 65.1058C72.3 65.965 71.6 66.7287 70.9 67.5878C70.4 67.5878 68.9 69.4016 68.3 69.879C67.2 71.4064 65.2 72.5519 64.2 74.1748C64.2 74.1748 64.2 73.9839 64.4 73.6975C63.5 74.7476 62.4 76.275 62.1 76.1795C60 78.757 57.1 82.2892 56.3 84.2939V84.103C55.9 85.2485 55.4 85.344 54.8 86.585L54.7 86.6805C54.2 87.9215 52.7 89.9262 52.2 90.8808H52L50.8 93.172L51.3 92.3128C51.5 92.7901 50.1 93.8402 49.4 95.654C48.6 97.1814 48.6 99.1861 47.6 100.714C47.4 101.573 47.6 99.8544 47.2 101.095C47 101.095 47.3 100.523 47 100.714C46.6 101.955 46 102.527 45.5 104.055H45.3C44.8 106.059 43.7 107.587 43.5 108.923C42.9 110.928 42.5 110.069 42.2 112.265L41.7 113.028C41.4 113.887 41.7 113.792 41.3 114.747C41.2 114.651 40.8 115.988 40.9 115.319C40.1 117.515 39.9 119.997 39 122.956C39.2 123.625 38.6 125.152 38.8 125.725C38.7 125.725 38.3 128.78 38.3 127.061C38.3 126.87 38.3 126.68 38.3 126.68V126.489C37.6 128.207 37.8 129.734 37.6 131.453C37.7 130.975 37.8 130.212 37.8 130.689L37.6 132.312V131.93C37.5 131.93 37.2 134.317 37.2 134.317L37.4 134.03C37.2 135.176 36.9 135.653 37 136.799C37 137.371 37.4 135.844 37.3 136.99C37.1 137.658 36.8 138.421 36.4 138.708C36 138.994 35.6 138.994 35 138.708C35 138.899 34.7 138.803 34.4 138.708V138.517C33.9 138.135 33.9 137.944 34 137.849C34 137.658 34 137.562 33.8 136.894H33.9C33.8 136.894 33.6 136.799 33.5 136.703C33.2 135.939 33.3 135.653 33.5 135.462C33.5 135.176 33.6 134.985 33.5 133.839C33.5 134.698 33.1 134.221 33.2 133.171L33.4 133.457C33.4 132.885 33.4 132.694 33.4 132.312C33.4 132.694 33.6 132.503 33.7 131.644L33.9 132.216L33.7 130.594C34 129.352 33.9 127.443 34.2 126.966C34.2 126.966 34.6 124.388 34.4 123.816C34.5 124.388 34.7 122.956 34.9 123.338C34.8 122.67 34.9 120.665 35.1 119.902V120.093C35.7 117.229 35.5 115.033 36.1 112.456C35.9 112.456 36.2 111.214 35.9 111.501C36.1 108.732 37.3 106.632 36.7 105.582C36.9 104.341 37.2 104.15 37.3 103.577V103.864C37.7 101.573 37.8 100.904 38.3 99.2816C38.4 98.4224 38.1 98.2315 38.6 96.7041C38.6 97.1814 38.8 96.6086 38.9 96.0359C38.9 96.4177 38.9 96.5132 39.1 95.8449C39.1 95.7495 39.1 95.5585 39.1 95.3676C39.3 94.413 39.2 94.6039 39.1 94.9858C39.1 94.9858 39.1 94.9858 39 95.0812C39.5 94.1266 39.9 92.4083 40.1 92.4083C41 89.6398 41.6 87.7306 42.7 85.5349C42.9 85.344 42.7 85.9168 42.5 86.585L43.2 85.0576C43.4 85.1531 42.8 86.0122 42.6 86.4895C43.8 84.7712 44.4 82.671 46 80.8572L46.2 80.3799H46.3C46.3 80.2844 46.5 79.7117 46.6 79.4253C46.9 79.2343 46.9 79.6162 47.6 78.6616C48.3 77.9933 49.2 76.5614 50 75.6067C49.5 76.0841 49.6 75.8931 49.8 75.6067C50.2 75.1294 50.6 75.034 50.8 74.6521H51C50.7 74.7476 51.9 73.5066 52 73.3156C52.4 73.2202 51.4 74.0793 51.4 74.2703C53.1 72.5519 52.2 73.4111 54 71.7882C54.9 70.8336 53.7 71.7882 54 71.2154C54.8 70.4517 55.6 69.5926 56.7 68.9243H56.2C57.8 67.5878 58.9 66.8241 60.2 66.2514C63.4 63.7693 65.3 62.5283 66.1 61.7646C67 61.0009 66.8 60.9054 66.1 61.0009C65.5 61.0963 64.4 61.4782 63.5 61.9555C62.6 62.3374 61.9 62.7192 61.9 62.7192C58.9 64.2466 56.9 65.6786 54.8 67.3969C52.8 69.1152 50.8 71.12 48.2 73.9839L48.8 73.4111Z" fill="#FF2626"/>
<path d="M65.7 63.1966C66 63.1966 66.1 63.6739 66.3 63.483C66.4 63.483 66.6 63.483 66.7 63.3875C66.7 63.1011 66.9 63.3875 66.9 63.1011V63.292C66.9 63.292 66.9 63.1966 67 63.292C67 63.292 67.1 63.292 67.2 63.292V63.1011C67.3 63.292 67.3 62.9102 67.5 63.1011C67.6 62.6238 67.7 63.483 67.9 63.0056C67.9 63.0056 67.9 63.1011 67.9 63.1966C67.9 63.1966 68 63.1966 68 62.7192C68 62.7192 68 62.8147 68 63.0056C68 62.8147 68 62.8147 68 62.7192H68.1V62.4329C68.1 62.4329 68.1 62.8147 68.1 62.7192V62.4329C68.1 62.4329 68.2 62.9102 68.3 63.1011C68.6 63.1011 68.9 62.5283 69.3 62.9102V63.1011C69.3 63.3875 69.3 62.7193 69.4 62.9102C69.4 62.9102 69.4 62.9102 69.4 62.8147V63.0056C69.6 63.1011 69.7 62.8147 69.8 62.8147C70 63.1966 70.3 62.8147 70.4 62.6238C70.6 62.1465 71 63.292 71.2 62.8147H71.4C71.4 62.8147 72.5 62.8147 71.5 60.5236C71.4 60.3327 71.3 60.3327 71.2 60.5236C71.2 60.1417 71.1 60.5236 71.1 60.3327C71.1 60.6191 70.9 60.0463 70.9 60.3327C70.9 60.3327 70.9 60.2372 70.9 60.1417C70.9 60.1417 70.8 60.2372 70.8 60.1417C70.7 60.1417 70.5 60.1417 70.4 60.5236C70.4 60.7145 70.4 60.5236 70.3 60.6191C70.3 60.9054 70.2 60.6191 70.1 60.81V60.6191H70C70 61.0964 70 60.4281 69.9 60.6191C69.9 60.6191 69.9 61.4782 69.7 61.2873C69.7 61.4782 69.7 61.0009 69.7 61.0964C69.7 60.9054 69.7 61.0009 69.7 60.81C69.7 60.9055 69.7 60.6191 69.6 60.81V60.6191C69.6 60.9054 69.4 60.4281 69.4 60.6191C69.4 60.7145 69.4 60.1417 69.2 60.4281V60.2372C69.2 60.2372 69.2 60.5236 69.1 60.4281C69.1 60.3327 69.1 60.3327 69.1 60.1417C69 59.9508 68.9 60.4281 68.8 60.1417C68.8 60.4281 68.8 60.2372 68.8 60.4281C68.8 60.3327 68.7 60.4281 68.8 60.1417V59.9508C68.8 59.6644 68.7 60.1417 68.6 60.0463C68.6 60.0463 68.6 60.0463 68.6 60.2372V60.0463H68.5C68.5 60.0463 68.5 59.6644 68.4 59.9508C68.4 60.0463 68.4 60.1417 68.4 60.2372C68.4 60.1417 68.2 59.9508 68.1 59.9508C68.1 60.1417 68.1 60.1417 68.1 60.1417V59.9508C68.1 60.1417 68.1 59.569 68 59.7599C68 59.6644 68 59.9508 68 59.9508C68 60.2372 68 59.569 67.9 60.0463C67.9 60.0463 67.9 60.4281 67.9 60.3327V60.1417V59.9508V59.7599V60.0463C67.9 59.8554 67.8 60.0463 67.7 59.8554C67.7 59.8554 67.6 59.7599 67.6 60.0463C67.6 59.8554 67.6 59.8554 67.6 59.6644C67.6 59.8554 67.6 59.9508 67.5 59.7599C67.4 59.569 67.3 60.0463 67.2 59.7599C67.2 59.9508 67.2 59.7599 67.2 60.1417C67.2 60.4281 67 59.6644 67 60.4281V60.2372C67 60.2372 66.9 60.2372 66.8 60.2372C66.8 60.2372 66.8 60.7145 66.8 60.6191C66.8 60.5236 66.8 60.5236 66.8 60.5236C66.8 60.5236 66.8 60.5236 66.8 60.3327C66.8 60.3327 66.8 60.3327 66.8 60.4281C66.8 60.2372 66.7 60.4281 66.7 60.2372C66.6 60.2372 66.5 60.5236 66.4 60.6191C66.4 60.5236 66.4 60.4281 66.4 60.3327C66.3 60.0463 66.2 60.6191 66.1 60.3327C66.1 60.4281 66.1 60.4281 66.1 60.4281V60.6191C66.1 60.4281 66.1 60.2372 66.1 60.2372C66.1 60.0463 66 60.2372 66 60.4281C66 60.4281 66 60.5236 66 60.6191V60.4281C66 60.6191 66 60.6191 66 60.7145C66 60.5236 66 60.6191 66 60.4281C66 60.4281 66 60.4281 65.9 60.4281C65.9 60.6191 65.9 60.6191 65.9 60.81C65.9 60.81 65.9 61.0009 65.8 60.81V61.0009C65.8 61.1918 65.8 61.0964 65.6 61.0009C65.1 62.5283 65.6 63.1011 65.6 63.1011C65.9 63.483 66 62.9102 66.3 62.8147L65.7 63.1966Z" fill="#FF2626"/>
<path d="M18.7 155.605L19.2 155.891C19.2 155.891 19.1 155.796 18.7 155.605Z" fill="#FF2626"/>
<path d="M11 155.032C14.7 156.75 17.1 157.705 19.6 158.66C22.1 159.519 24.6 160.378 28.8 161.142C32.8 162.001 37.1 162.478 41 162.765C42.9 162.669 46.2 163.147 48.4 162.956L49.2 163.147C50 163.147 50.9 163.147 51.6 163.147C52.7 163.147 54 163.147 54.6 163.147H56H55.8C57.8 163.147 59.8 163.147 61.6 163.242V163.051C65.3 163.337 66.7 163.051 70.1 163.337C74.5 162.956 77 163.91 81.5 163.433C80.9 163.433 81.7 163.528 81.7 163.624C83.8 163.624 86 163.624 86 163.242C87.5 163.242 87.2 163.337 87.4 163.528C87.4 163.337 88.7 163.337 89.9 163.337H89.4H92.8L92.1 163.051C93.9 163.147 92.6 163.433 94.3 163.337V163.051C96.8 163.051 98.2 163.528 100.6 163.719C110.6 163.719 121.3 162.86 130.6 162.765L131 162.956C131.2 163.242 133.5 162.383 133.9 162.574L135 162.383C135.3 162.383 135.9 162.383 135.4 162.574C136.4 162.574 136.4 162.478 137.1 162.287H138.2C140.2 162.287 142 162.096 143.8 161.906C145.6 161.715 147.5 161.428 149.6 161.237C154.6 161.046 163.9 159.614 169.2 158.469C172.9 157.705 177 157.228 181.1 155.891C183.1 155.223 185.2 154.364 187 153.218C188.8 151.977 190.3 150.354 191.3 148.541C191.5 148.35 191.7 147.682 191.7 147.682C192.8 145.486 193.4 142.813 192.7 140.235C192.7 140.235 192.7 140.044 192.6 139.854C192.6 139.567 192.4 139.185 192.2 138.803C191.8 137.944 191 136.703 189.8 135.749C187.4 133.648 183.9 132.598 181.3 131.93C178.7 131.262 176.9 130.975 177.2 131.357C177.4 131.548 178.1 132.026 179.5 132.694C180.2 132.98 181.1 133.457 182.2 133.935C183.3 134.412 184.5 134.985 185.8 135.844H185.6C187.2 136.703 188.2 137.562 189 138.517C189.8 139.472 190.3 140.331 190.7 141.476C190.7 141.572 190.7 141.763 190.7 142.049C190.7 142.336 190.7 142.622 190.7 143.004C190.7 143.768 190.7 144.531 190.4 144.913C190.4 145.868 189.8 146.822 189.2 147.682C188.6 148.541 187.8 149.304 187.2 150.164C187.2 150.164 187.2 149.973 187.5 149.686C186.6 150.832 184.8 151.977 184.6 151.882C183.1 152.837 181 153.696 179 154.364C177 155.032 175.1 155.509 173.9 155.891H174.1C172.7 156.273 172.3 156.178 170.7 156.56H170.5C169 157.037 166 157.323 164.7 157.61H164.6C164.6 157.514 161.5 157.896 161.5 157.896H162.7C162.4 158.182 160.3 157.896 158.1 158.373C156 158.564 153.9 159.71 151.7 159.805C150.7 160.092 152.6 159.423 151 159.805C151 159.614 151.7 159.614 151.3 159.423C149.8 159.71 148.7 159.423 146.9 159.805V159.614C144.4 160.187 142.1 159.805 140.5 160.187C137.9 160.474 138.7 159.805 136.1 160.378L135 160.187C133.9 160.187 134.2 160.474 132.9 160.474C132.9 160.283 131.3 160.474 132 160.283C129.1 160.283 126.2 160.855 122.4 160.664C121.6 160.951 119.7 160.855 119.1 161.046C119 160.951 115.3 161.142 117.4 160.855C117.6 160.855 117.9 160.855 117.9 160.855L118.1 160.664C115.9 160.474 114.2 160.951 112 160.951C112.6 160.951 113.5 160.951 112.9 161.046H110.9L111.3 160.951H108.3L108.7 161.046C107.3 161.046 106.7 160.664 105.1 160.951C104.4 161.046 106.5 161.142 104.9 161.237C103 161.237 100.1 160.951 97.6 160.951C97.8 161.142 97.2 161.142 96.5 161.142V160.951C93.8 161.142 95.5 160.569 92.9 160.76H93.1C93.1 160.664 92.4 160.951 92.4 160.951C90 161.237 91.1 160.569 88.5 160.951C89.5 160.951 89 161.333 87.7 161.237L88 161.046C87.3 161.046 87.1 161.142 86.6 161.046C87 161.046 86.8 160.855 85.8 160.855L86.5 160.664L84.5 160.951C83 160.76 80.6 160.951 80 160.664C80 160.664 76.8 160.474 76 160.664C76.7 160.569 74.9 160.474 75.4 160.283C74.6 160.474 72.1 160.569 71.1 160.283H71.3C67.6 159.996 65 160.378 61.7 160.092C61.8 160.283 60.1 160.092 60.5 160.378C57.1 160.569 54.3 159.71 53 160.378C51.4 160.378 51.2 160.187 50.4 160.092H50.8C47.9 160.092 47.1 159.996 44.9 159.805C43.8 159.805 43.6 160.187 41.7 159.901C42.3 159.901 41.5 159.805 40.8 159.71C41.3 159.71 41.4 159.71 40.5 159.519C40.4 159.519 40.2 159.519 40 159.519C38.8 159.519 39 159.519 39.6 159.519C39.6 159.519 39.6 159.519 39.8 159.614C38.6 159.328 36.4 159.233 36.2 158.946C32.6 158.564 30.1 158.278 27.1 157.705C26.8 157.514 27.5 157.61 28.4 157.705C27.7 157.61 27 157.419 26.3 157.228C26.3 157.037 27.5 157.419 28.2 157.514C25.8 156.655 23.1 156.56 20.4 155.414H19.8L19.6 155.319C19.6 155.319 18.9 155.319 18.5 155.128C18.2 154.841 18.7 154.841 17.3 154.268C16.3 153.696 14.2 153.123 12.8 152.646C13.5 153.027 13.3 152.932 12.9 152.837C12.2 152.55 11.9 152.264 11.4 152.073V151.882C11.6 152.168 9.6 151.214 9.4 151.214C9.1 150.927 10.4 151.595 10.7 151.595C9.4 151.023 9.1 150.832 8.8 150.641C8.7 150.641 8.5 150.45 8.3 150.259C8.1 150.068 7.7 149.877 7.4 149.4C6.7 148.541 7.4 149.686 6.9 149.4C6.6 148.923 6.5 148.445 6.6 147.872C6.7 147.3 7.2 146.822 7.8 146.345C7.6 146.345 7.5 146.44 7.3 146.536C8.1 145.677 9 145.009 9.8 144.531C10.6 144.054 11.3 143.672 12.1 143.386C14.1 142.145 15.9 141.285 17.2 140.713C18.5 140.14 19.5 139.758 20.1 139.472C21.3 138.994 21.2 138.803 20.5 138.708C19.7 138.708 18.4 138.899 17.2 139.185C16 139.472 15.1 139.758 15.1 139.758C13.2 140.331 11.5 141.095 10 141.954C9.3 142.336 8.6 142.813 7.9 143.29C7.3 143.768 6.6 144.245 5.9 144.913C5.2 145.581 4.5 146.536 4.3 147.872C4.3 148.541 4.3 149.209 4.5 149.877C4.7 150.545 5.1 151.023 5.5 151.405C6.3 152.264 7.3 152.837 8.2 153.314C9.2 153.791 10.1 154.173 11.2 154.65L11 155.032Z" fill="#FF2626"/>
<path d="M41.2 166.106C46.6 166.679 48 167.061 53.6 167.156C56.3 167.251 59.1 167.156 61.7 167.156C62.9 166.87 65.1 167.156 66.6 166.965L67.2 167.156C67.7 167.156 68.3 167.061 68.8 167.156C69.5 167.156 70.4 167.156 70.8 167.156H71.7H71.5C72.8 167.156 74.1 167.156 75.3 167.156V166.965C77.7 167.251 78.7 166.774 80.9 167.061C83.8 166.583 85.5 167.442 88.4 167.061C88 167.061 88.6 167.156 88.5 167.251C89.9 167.251 91.3 167.251 91.4 166.774C92.4 166.774 92.2 166.87 92.3 167.061C92.3 166.87 93.2 166.87 93.9 166.774H93.5H95.7L95.3 166.488C96.5 166.488 95.6 166.87 96.7 166.774V166.488C98.3 166.488 99.3 166.87 100.9 167.061C107.5 167.061 114.6 166.297 120.7 166.679L121 166.87C121.1 167.156 122.7 166.392 122.9 166.679L123.6 166.488C123.8 166.488 124.2 166.488 123.9 166.679C124.6 166.679 124.6 166.679 125 166.488L125.7 166.679C128.3 166.679 130.5 166.297 133.2 166.297C136.5 166.583 142.7 166.01 146.2 165.629C151.2 164.96 157.1 165.819 162.2 165.056C162.4 165.056 162.8 165.056 162.8 164.96C164.4 164.96 166 164.674 167.6 164.388C167.6 164.388 168 164.388 168.6 164.197C169.2 164.006 170.1 163.815 171 163.433C172.9 162.669 175 161.142 176 159.328C176.5 158.469 176.7 157.61 176.7 157.037C176.7 156.464 176.5 156.273 176.4 156.369C176.2 156.464 176 157.037 175.4 157.801C174.8 158.564 173.7 159.614 171.9 160.378C169.9 161.333 168.4 161.619 166.8 162.287C166.5 162.001 164.8 162.574 164.2 162.478C162.7 162.86 161 162.478 159.5 162.765C159.5 162.765 159.5 162.669 159.9 162.574C158.8 162.669 157.3 162.86 157.2 162.574C154.6 162.765 150.9 162.86 149.2 163.242H149.3C148.4 163.433 148.1 163.242 147 163.433H146.9C145.9 163.719 143.9 163.624 143 163.719V163.528L140.9 163.624H141.7C141.4 164.006 140.1 163.433 138.6 163.719C137.2 163.719 135.8 164.674 134.3 164.483C133.6 164.674 134.9 164.197 133.9 164.292C133.9 164.101 134.4 164.101 134.1 164.006C133.1 164.101 132.4 163.815 131.1 164.006V163.815C129.4 164.197 127.9 163.719 126.8 164.006C125.1 164.197 125.6 163.528 123.9 164.006L123.2 163.815C122.4 163.815 122.7 164.101 121.8 164.006C121.8 163.91 120.7 164.006 121.2 163.815C119.3 163.624 117.3 164.197 114.8 163.815C114.3 164.101 113 163.91 112.6 164.197C112.6 164.101 110.1 164.197 111.5 163.91C111.6 163.91 111.8 163.91 111.8 163.91L112 163.719C110.6 163.433 109.4 163.91 108 163.91C108.4 163.91 109 163.91 108.6 164.101H107.3L107.6 163.91H105.6L105.9 164.006C104.9 164.006 104.6 163.624 103.5 163.91C103 164.006 104.4 164.101 103.4 164.197C102.1 164.101 100.2 163.91 98.6 163.91C98.8 164.101 98.3 164.101 97.9 164.101V163.91C96.1 164.197 97.2 163.528 95.5 163.719H95.7C95.7 163.624 95.2 163.91 95.2 163.91C93.6 164.197 94.4 163.528 92.6 164.006C93.3 164.006 92.9 164.388 92.1 164.292L92.3 164.101C91.8 164.101 91.7 164.197 91.4 164.101C91.7 164.101 91.5 163.91 90.9 163.91L91.4 163.719L90.1 164.006C89.1 163.815 87.5 164.006 87.1 163.815C87.1 163.815 85 163.719 84.5 163.91C84.9 163.719 83.7 163.719 84.1 163.528C83.5 163.719 81.9 163.815 81.2 163.624H81.3C78.9 163.433 77.1 163.815 75 163.624C75 163.815 73.9 163.624 74.2 163.91C71.9 164.101 70.1 163.337 69.3 164.101C68.3 164.101 68.1 163.91 67.6 163.815H67.8C65.9 163.815 65.3 163.815 63.9 163.815C63.2 163.815 63.1 164.197 61.8 164.101C62.2 164.006 61.7 164.006 61.2 164.006C61.5 164.006 61.6 164.006 61 163.815C61 163.815 60.8 163.815 60.6 163.815C59.8 163.815 59.9 163.815 60.3 163.91C60.3 163.91 60.3 163.91 60.4 163.91C59.6 163.719 58.1 163.91 58 163.624C55.6 163.624 53.9 163.815 51.9 163.815C51.7 163.719 52.2 163.624 52.7 163.528H51.3C51.3 163.337 52.1 163.528 52.6 163.433C50.9 163.051 49.1 163.624 47.2 163.242H46.8C46.8 163.337 46.7 163.242 46.7 163.242C46.7 163.242 46.3 163.433 46 163.433C45.7 163.242 46 163.051 45.1 163.051C44.3 162.86 42.9 162.956 41.9 162.956C42.4 162.956 42.3 163.147 42 163.147C41.5 163.147 41.3 162.956 40.9 162.956V162.765C41 162.956 39.6 162.765 39.4 162.86C39.1 162.669 40.2 162.86 40.3 162.669C38.4 162.478 39.3 162.574 37.4 162.287C36.3 162.287 37.6 162.478 37 162.574C36.1 162.478 35.2 162.478 34.2 162.096L34.5 162.383C32.8 162.192 31.8 161.906 30.8 161.333C29.3 160.951 28.1 160.474 27.3 159.901C26.5 159.328 26 158.755 25.7 158.373C25.4 157.896 25.3 157.801 25.2 157.801C25.1 157.801 25 157.896 25 158.182C25 158.851 25.4 159.996 26 160.76C26.6 161.524 27.3 162.001 27.3 162.001C28.5 162.956 29.7 163.433 30.8 163.815C31.9 164.197 33 164.388 34 164.483C36.1 164.769 38.3 164.96 41.4 165.247L41.2 166.106Z" fill="#FF2626"/>
</svg>
