<svg width="243" height="311" viewBox="0 0 243 311" fill="none" xmlns="http://www.w3.org/2000/svg">
<path d="M180.618 46.7273L180.149 47.318C180.149 47.318 180.306 47.1999 180.618 46.7273Z" fill="#FF2626"/>
<path d="M160.762 66.9896C160.762 66.9896 160.919 66.9896 160.919 66.9305H160.684L160.762 66.9896Z" fill="#FF2626"/>
<path d="M183.198 38.6933C182.104 40.7608 181.087 42.4149 180.149 43.8327C179.211 45.3095 178.351 46.5501 177.491 47.8497C175.772 50.3899 174.052 52.9891 171.003 56.947C170.221 57.8922 169.44 58.8374 168.658 59.7235C167.876 60.6096 166.938 61.6139 166.156 62.5591C165.375 63.5042 164.515 64.3903 163.655 65.2174C162.795 65.9853 161.857 66.6942 160.762 66.9896C159.746 67.4031 158.026 67.6394 156.15 67.6394C154.274 67.6394 152.163 67.6394 150.522 67.8757C150.053 67.8757 149.584 67.8757 149.115 67.9938C147.942 68.2301 146.535 68.7618 145.519 69.2344C144.034 70.0023 142.705 71.0657 142.157 71.5383C141.688 71.8927 141.219 72.2471 140.828 72.6607L140.985 72.4244C140.047 73.3105 139.187 74.2556 138.405 75.1418C137.623 76.0279 136.763 76.914 135.982 77.741H136.216C134.575 79.4541 133.715 80.7538 132.855 81.9943C131.995 83.2349 131.213 84.4754 130.041 86.1295C128.79 88.3152 127.617 89.9693 126.366 91.6233C125.741 92.4504 125.038 93.2774 124.412 94.1635C123.709 95.1087 123.005 96.172 122.771 97.5898C122.849 96.8809 122.614 97.8851 122.614 97.8261C122.536 98.535 122.614 99.1257 122.614 99.7164C122.692 100.307 122.927 100.898 123.161 101.37C123.63 102.316 124.256 102.847 124.412 102.788C125.038 103.556 125.428 103.793 125.507 103.97C125.663 104.088 125.507 104.147 125.663 104.265C125.663 104.265 126.054 104.501 126.679 104.856C127.226 105.21 128.008 105.624 128.79 105.978C128.555 105.86 128.321 105.801 128.086 105.683C129.572 106.392 131.057 106.923 132.542 107.514L131.839 106.982C134.106 107.928 132.308 107.396 134.575 108.282V108.105C137.858 109.405 139.578 110.35 142.626 111.708C144.268 112.358 145.831 113.008 147.551 113.599C149.271 114.189 151.147 114.78 153.18 114.957C155.212 115.135 157.401 114.78 159.199 114.071C160.997 113.362 162.482 112.299 163.733 111.236C164.984 110.113 166.078 108.932 167.094 107.75C168.032 106.569 168.971 105.388 169.909 104.147C171.707 101.725 173.27 99.3029 174.677 96.999L175.068 96.6446C175.381 96.5265 176.162 93.8681 176.475 93.5728C176.631 93.1592 176.788 92.8048 176.944 92.3913C177.101 92.0959 177.491 91.4461 177.257 91.9778C177.726 90.9144 177.726 90.9144 177.96 90.0874L178.586 88.965C179.446 86.8384 180.071 84.8889 180.54 82.8213C180.775 81.758 180.931 80.6947 180.853 79.5132C180.775 78.3908 180.306 77.0912 179.446 76.0279C178.508 74.7282 176.944 73.4286 175.85 71.9518C175.303 71.2429 174.833 70.4749 174.755 69.6479C174.755 68.8209 174.912 67.9348 175.381 67.0487C175.772 66.1625 176.319 65.2174 176.866 64.3313C177.335 63.3861 177.882 62.5 178.351 61.6139C179.289 59.9007 180.227 58.2467 181.009 56.888C185.23 49.1493 191.797 40.7018 196.722 33.0222C196.956 32.7859 197.269 32.1361 197.269 32.1361C198.911 29.8322 200.552 27.5283 202.272 25.2835C202.272 25.2835 203.836 23.216 205.79 20.4986C206.259 19.8488 206.806 19.0808 207.353 18.3719C207.9 17.663 208.526 16.8951 208.917 15.9499C209.151 15.4773 209.308 15.0047 209.229 14.473V14.0595C209.229 13.9414 209.229 13.8232 209.151 13.646C209.151 13.4097 208.995 13.1734 208.839 12.9371C208.291 11.9919 207.353 11.3421 206.415 10.9286C205.477 10.5151 204.461 10.3379 203.523 10.2788C202.585 10.2788 201.803 10.397 201.256 10.6333C200.709 10.8695 200.396 11.1058 200.161 11.224C200.005 11.3421 200.005 11.4012 200.161 11.4012C200.24 11.4012 200.396 11.3421 200.552 11.2831C200.709 11.224 200.943 11.1649 201.256 11.0468C201.881 10.9286 202.741 10.8105 203.836 11.0468C204.383 11.1649 204.93 11.3421 205.477 11.6375C206.024 11.9329 206.572 12.2873 207.041 12.819C207.431 13.2916 207.744 13.9414 207.588 14.5912C207.51 15.241 207.041 15.9499 206.415 16.6588V16.4815C203.601 20.1441 201.725 22.5071 200.083 25.1654C199.536 25.4608 197.816 28.2372 197.113 29.1233V29.0052C195.706 31.4272 193.595 33.7311 192.266 36.035C192.266 35.9168 192.266 35.8577 192.579 35.3261C191.484 36.9801 189.999 39.2249 189.764 39.284C187.185 43.2419 183.511 48.7358 182.26 51.3941V51.2169C181.556 52.7528 181.165 53.1073 180.306 54.7613C180.306 54.8204 180.149 54.9385 180.149 54.9385C179.368 56.5926 177.413 59.6054 176.71 60.905H176.553L174.755 64.154L175.459 62.9726C175.459 63.2089 175.068 63.7996 174.521 64.6266C173.974 65.4537 173.192 66.517 172.957 67.8757C172.801 68.4664 172.723 69.1753 172.879 69.8251C173.036 70.4749 173.348 71.1247 173.739 71.6564C174.599 72.7788 175.772 73.6649 176.631 74.6692C177.726 75.5553 175.615 73.9603 177.101 75.319C177.022 75.4371 176.397 74.7282 176.631 75.1418C177.335 75.7916 177.804 76.3823 178.195 77.0321C178.586 77.6819 178.898 78.3908 179.055 79.336H178.898C179.133 80.6947 178.82 81.9943 178.429 83.1167C178.039 84.2391 177.648 85.3024 177.491 86.1885C177.101 87.5472 176.788 88.0198 176.553 88.4333C176.319 88.9059 176.084 89.3785 175.537 90.7963C175.303 91.1507 175.068 91.5052 174.912 91.8596C174.364 93.0411 174.755 92.7457 173.974 94.0453C173.974 93.9272 173.036 95.6403 173.348 94.8724C171.628 97.767 170.221 100.839 167.251 104.324C166.86 105.21 165.296 106.923 164.984 107.573C164.906 107.573 164.124 108.459 163.577 109.05C162.951 109.641 162.639 109.936 163.42 108.991C163.577 108.814 163.811 108.577 163.889 108.577V108.282C163.029 109.168 162.17 109.995 161.231 110.704C160.293 111.472 159.355 112.122 158.026 112.595C158.808 112.358 159.746 111.827 159.121 112.24C158.339 112.594 157.557 112.89 156.776 113.067C156.932 113.008 157.088 112.949 157.245 112.831C156.072 113.185 154.821 113.244 153.571 113.126C153.727 113.126 153.883 113.244 154.118 113.244C153.18 113.185 152.554 113.008 151.929 112.831C151.225 112.654 150.6 112.476 149.506 112.181C148.489 111.945 151.225 112.89 149.193 112.299C147.942 111.827 146.379 111.177 144.737 110.468C143.095 109.759 141.376 109.05 139.812 108.4C140.047 108.637 139.187 108.282 138.249 107.928V107.81C134.731 106.628 137.076 107.101 133.637 105.919H133.949L132.933 105.801C131.37 105.269 130.901 105.092 130.588 104.856C130.197 104.62 129.728 104.442 128.243 103.733C128.79 104.029 128.868 104.147 128.634 104.088C128.399 104.029 127.852 103.793 127.305 103.32L127.695 103.497C126.992 103.025 126.757 102.847 126.366 102.493C126.601 102.67 126.679 102.67 126.601 102.493C126.601 102.375 126.288 102.138 125.976 101.666C126.132 101.843 126.366 102.02 126.601 102.198C126.054 101.725 125.585 101.193 125.272 100.603C125.194 100.248 125.038 99.8346 125.038 99.362C125.038 98.9485 125.038 98.4168 125.038 98.0624C125.116 97.2353 125.507 96.5264 125.819 96.2902C125.819 96.2902 126.288 95.5222 126.914 94.6952C127.539 93.8681 128.321 92.8048 128.477 92.4504C128.164 93.1592 129.415 91.387 129.181 91.9187C129.65 91.0326 131.213 88.5515 131.995 87.6063V87.7835C134.418 84.18 135.747 81.4626 138.483 78.568C138.249 78.6271 139.734 77.0912 139.187 77.3866C140.516 75.7916 141.923 74.4329 143.174 73.4286C144.346 72.3653 145.362 71.6564 145.831 71.0657C146.613 70.534 147.239 70.2977 147.629 70.1205C148.098 69.9433 148.411 69.8842 148.88 69.766C148.724 69.766 148.568 69.8842 148.489 69.9433C149.349 69.6479 150.131 69.4707 150.835 69.4116C151.538 69.3525 152.163 69.2935 152.789 69.2935C153.961 69.2935 155.056 69.2935 156.697 69.2935C157.479 69.2935 157.948 69.1753 158.652 69.0572C159.277 68.939 160.059 68.8799 161.544 68.4664C161.075 68.6436 161.153 68.6436 161.544 68.5846C161.701 68.5846 161.935 68.4664 162.17 68.4074C162.404 68.3483 162.717 68.2301 162.951 68.112C162.639 68.2892 162.404 68.3483 162.482 68.3483C162.482 68.3483 162.873 68.2892 163.498 67.9348C163.655 67.8166 163.889 67.6394 164.124 67.4622C165.453 66.4579 165.14 66.5761 164.593 67.0487C164.593 67.0487 164.593 67.0487 164.358 67.1668C165.922 66.2807 167.72 64.095 167.954 64.0359C168.658 63.2089 169.361 62.3818 169.987 61.6729C170.612 60.905 171.238 60.1961 171.785 59.4872C172.879 58.0694 173.895 56.7108 174.912 55.1748C175.224 54.8795 174.833 55.5884 174.208 56.4745C174.755 55.7656 175.224 55.0567 175.693 54.3478C175.85 54.4069 174.912 55.5884 174.443 56.2382C176.553 53.8752 177.96 50.9806 180.071 48.086L180.384 47.4362L180.54 47.259C180.54 47.259 180.853 46.5501 181.087 46.0775C181.478 45.723 181.322 46.1956 182.26 44.7188C183.12 43.5964 184.214 41.2925 184.996 39.6975C184.527 40.5246 184.605 40.2292 184.761 39.8747C185.152 39.1068 185.543 38.6933 185.778 38.1025H186.012C185.699 38.3388 186.872 36.035 186.95 35.7396C187.263 35.3261 186.481 36.9801 186.403 37.1574C187.966 34.0855 187.185 35.6214 188.748 32.5496C189.452 30.8955 188.436 32.7859 188.748 31.9589C189.452 30.482 190.077 29.0643 191.015 27.4693L190.624 27.9419C191.953 25.2245 192.891 23.6295 194.142 21.8573C196.878 16.836 198.911 14.2367 199.771 12.9371C200.63 11.6375 200.474 11.6375 199.771 12.2282C199.067 12.819 197.894 14.0595 196.956 15.1229C196.487 15.6545 196.096 16.1862 195.784 16.5406C195.471 16.8951 195.315 17.1314 195.315 17.1314C193.908 19.0217 192.735 20.7349 191.797 22.3889C190.781 24.043 189.999 25.5789 189.217 27.233C187.576 30.482 186.09 33.9083 183.589 38.6342L183.198 38.6933Z" fill="#FF2626"/>
<path d="M199.927 15.241C199.458 15.5955 199.145 15.5955 198.911 16.0681C198.754 16.3043 198.676 16.5406 198.598 16.7769C198.754 16.9542 198.442 17.0723 198.598 17.2495C198.598 17.2495 198.52 17.2495 198.442 17.2495C198.442 17.3086 198.442 17.4267 198.442 17.4858C198.52 17.604 198.442 17.7221 198.442 17.7812C198.442 17.7812 198.442 17.8403 198.442 17.8993C198.52 18.0766 198.52 18.1947 198.52 18.3719H198.676C198.598 18.6673 198.911 18.6673 198.833 19.0217C199.067 19.0808 199.067 19.258 199.145 19.3762C199.145 19.5534 199.223 19.6715 199.536 19.6715V19.7306C199.692 19.7897 199.927 19.9078 200.005 19.7306C200.083 19.7306 200.005 19.8488 200.005 19.9078C200.005 19.7897 200.161 19.8488 200.318 19.8488C200.396 19.8488 200.552 19.9078 200.63 19.9078V19.7306C200.787 19.7897 200.63 19.9669 200.787 19.9669V19.7897C201.021 19.7897 201.1 20.0851 201.334 20.2032C201.803 20.2032 202.272 19.9078 202.585 19.6125C202.897 19.3171 203.132 18.9627 203.523 18.7264H203.679C203.914 18.8445 203.445 18.4901 203.679 18.5491V18.431C203.679 18.431 203.679 18.431 203.757 18.431C203.757 18.431 203.757 18.3719 203.757 18.3129H203.914C204.148 18.1356 203.992 17.8993 204.148 17.7221C204.539 17.5449 204.539 16.9542 204.461 16.5997C204.383 16.3634 204.539 16.1271 204.695 15.8908C204.852 15.6545 204.93 15.3592 204.695 15.0638C204.695 15.0638 204.695 15.0638 204.617 15.0638C204.617 14.8866 204.539 14.7094 204.461 14.5912C204.461 14.5912 204.07 13.9414 203.523 13.8823C203.288 13.8823 203.054 13.8823 202.897 14.0595C202.741 14.2368 202.819 14.5912 202.585 14.9457C202.585 15.1229 202.585 15.1229 202.819 15.1819C202.507 15.3001 202.819 15.3001 202.819 15.3592C203.054 15.3592 202.663 15.5364 202.819 15.5955C202.819 15.5955 202.741 15.5955 202.663 15.5955C202.663 15.5955 202.819 15.7136 202.663 15.7136C202.663 15.8318 202.663 16.0681 202.897 16.1862C203.054 16.2453 202.897 16.2453 202.976 16.3634C203.132 16.4816 202.976 16.5406 202.976 16.6588H202.819V16.7769C203.132 16.7769 202.585 16.7769 202.819 16.9542C202.741 17.0132 203.367 17.3086 203.21 17.3677C203.367 17.4858 202.976 17.2495 203.054 17.3677C202.897 17.3677 202.976 17.3086 202.819 17.3086C202.819 17.4267 202.585 17.3086 202.663 17.4858H202.507C202.663 17.604 202.194 17.604 202.428 17.7221C202.428 17.8403 202.038 17.663 202.194 17.8403H202.038C202.038 17.8403 202.194 17.9584 202.038 17.9584C201.959 17.9584 201.881 17.9584 201.803 17.9584C201.647 17.9584 201.725 18.0175 201.803 18.0766C201.803 18.0766 201.803 18.1356 201.725 18.0766C201.881 18.1947 201.725 18.1356 201.881 18.3129C201.881 18.2538 201.881 18.3129 201.725 18.1947V18.0766C201.49 17.8993 201.725 18.1947 201.725 18.1947C201.725 18.1947 201.725 18.1947 201.725 18.3129C201.725 18.3129 201.725 18.0175 201.725 18.2538C201.725 18.3719 201.725 18.431 201.725 18.4901C201.725 18.431 201.647 18.2538 201.647 18.1947C201.647 18.3719 201.647 18.3719 201.647 18.3719V18.1947C201.647 18.3719 201.725 17.8403 201.647 18.0175V17.8993V18.1947C201.49 18.4901 201.803 17.8993 201.569 18.2538C201.569 18.2538 201.412 18.5491 201.412 18.4901V18.3719C201.412 18.3129 201.569 18.1947 201.49 18.1947V18.0175C201.49 18.0766 201.49 18.1356 201.49 18.2538C201.569 18.1356 201.412 18.2538 201.49 18.0766C201.49 18.0766 201.49 17.9584 201.334 18.0766C201.412 18.0175 201.49 17.9584 201.647 17.8403C201.49 17.9584 201.412 17.9584 201.569 17.8403C201.725 17.7221 201.334 17.8403 201.569 17.7812C201.412 17.7812 201.569 17.7812 201.256 17.7812C201.178 17.7812 201.256 17.7221 201.256 17.7221C201.256 17.7221 201.256 17.7221 201.021 17.663H201.178C201.178 17.663 201.178 17.5449 201.178 17.4267C201.178 17.4267 200.865 17.3086 200.943 17.2495C201.021 17.2495 201.021 17.2495 201.021 17.2495C201.021 17.2495 201.021 17.2495 201.178 17.2495C201.178 17.1905 201.178 17.1905 201.178 17.2495C201.334 17.2495 201.178 17.0723 201.412 17.1314C201.412 16.9542 201.412 16.7769 201.412 16.6588C201.49 16.6588 201.569 16.7179 201.569 16.7769V16.6588C201.725 16.6588 201.569 16.7179 201.569 16.7769C201.881 16.7769 201.569 16.4816 201.803 16.4816C201.803 16.4225 201.803 16.4225 201.803 16.4225C201.803 16.4225 201.725 16.3634 201.725 16.3043C201.881 16.3043 201.959 16.4225 202.038 16.3634C202.194 16.3634 202.038 16.2453 202.038 16.1271H201.959H202.116H202.272C202.116 16.1271 202.272 16.0681 202.194 16.009C202.272 16.009 202.194 16.1271 202.272 16.1271C202.35 16.009 202.272 16.1271 202.428 15.9499C202.428 15.8318 202.272 15.8908 202.194 15.7727C202.194 15.7136 202.194 15.5955 202.35 15.5955H202.194C202.194 15.3592 202.35 15.3592 202.507 15.3592C202.507 14.7094 202.507 14.414 202.194 14.2958C201.959 14.1777 201.647 14.2958 201.647 14.2958C200.943 14.414 201.021 14.8275 200.63 15.3001L199.927 15.241Z" fill="#FF2626"/>
<path d="M153.336 107.81C154.04 107.514 154.352 107.573 154.978 107.16C155.29 106.983 155.603 106.746 155.916 106.569C155.916 106.333 156.307 106.333 156.385 106.097H156.541C156.541 106.097 156.541 105.978 156.697 105.978C156.697 105.919 156.854 105.86 156.854 105.801H156.932C157.01 105.683 157.166 105.565 157.323 105.565H157.245C157.636 105.388 157.557 105.151 157.948 105.092C157.948 104.679 158.652 104.974 158.73 104.502C158.73 104.502 158.73 104.502 158.808 104.561C158.964 104.442 159.121 104.324 158.886 104.147C159.043 104.088 159.043 104.147 159.121 104.147C159.043 104.088 159.121 103.97 159.121 103.911L159.355 103.793L159.121 103.674C159.277 103.674 159.355 103.852 159.433 103.674L159.277 103.556C159.512 103.438 159.824 103.556 160.059 103.556C160.841 103.143 161.31 102.257 162.248 102.02H162.404C162.56 102.198 162.404 101.784 162.56 101.843V101.725H162.717C162.717 101.725 162.717 101.666 162.717 101.607H162.873C163.264 101.489 163.264 101.193 163.655 100.957C164.202 100.839 164.671 100.189 164.984 99.8347C165.296 99.244 166.547 99.244 166.782 98.5941V98.5351L167.251 98.1806C167.251 98.1806 167.876 97.708 168.032 97.2945C168.189 96.881 168.032 96.5266 166.391 96.7629C166.078 96.881 165.844 96.9992 165.844 97.2945C165.609 97.1764 165.609 97.4717 165.453 97.4717C165.453 97.708 164.984 97.5899 164.984 97.8262C164.984 97.8262 164.984 97.7671 164.984 97.708C164.906 97.8262 164.827 98.0034 164.671 97.8853C164.437 98.1216 164.046 98.3578 164.046 98.6532C164.046 98.7714 163.967 98.7123 163.889 98.8895C163.889 99.0667 163.577 99.1258 163.577 99.244H163.498C163.498 99.1849 163.342 99.3621 163.342 99.3621H163.42C163.655 99.5393 163.108 99.3621 163.108 99.5393C162.951 99.5984 163.264 100.13 163.029 100.189C163.029 100.307 162.951 100.012 162.873 100.189C162.717 100.071 162.873 100.071 162.717 100.012C162.717 100.13 162.404 100.012 162.326 100.189H162.248C162.248 100.366 161.779 100.248 161.857 100.485C161.779 100.662 161.466 100.366 161.466 100.603H161.231C161.153 100.603 161.31 100.721 161.231 100.721C161.231 100.662 161.075 100.721 160.997 100.662C160.684 100.662 160.762 101.075 160.293 101.134C160.372 101.312 160.137 101.312 160.293 101.43C160.293 101.43 159.981 101.607 159.981 101.43C159.668 101.312 159.824 101.607 159.59 101.666L159.355 101.784H159.512C159.355 101.902 159.199 101.784 159.199 101.961C159.199 102.079 159.433 101.961 159.355 102.079C159.121 102.079 158.808 102.198 158.652 102.257C158.808 102.316 158.652 102.375 158.652 102.434H158.574C158.574 102.611 158.339 102.257 158.183 102.434C158.183 102.375 158.339 102.552 158.339 102.552C158.339 102.847 158.026 102.434 158.105 102.788C158.105 102.729 158.339 102.966 158.183 102.966V102.847C158.105 102.847 158.183 102.966 158.026 102.966C158.026 102.907 157.948 102.847 157.87 102.907V102.788V103.025C157.636 103.025 157.636 103.202 157.401 103.143C157.401 103.143 157.088 103.261 157.166 103.379C157.166 103.261 157.01 103.379 156.932 103.202C156.932 103.32 156.854 103.497 156.697 103.438C156.307 103.438 156.385 103.852 155.994 103.852C156.072 103.911 155.994 103.97 156.072 104.088C155.916 104.383 155.369 104.088 155.603 104.561C155.525 104.679 155.369 104.561 155.29 104.561C155.134 104.679 155.056 104.738 154.899 104.797C154.899 104.856 154.978 105.092 154.899 105.092C154.899 104.974 154.899 105.092 154.743 105.092C154.743 105.092 154.743 105.033 154.665 105.033C154.665 105.033 154.665 105.033 154.665 105.092C154.665 105.151 154.665 105.21 154.665 105.151C154.509 105.151 154.43 105.329 154.274 105.151C154.04 105.329 153.961 105.565 153.727 105.742C153.649 105.742 153.649 105.624 153.727 105.565L153.571 105.683C153.492 105.565 153.571 105.565 153.649 105.506C153.336 105.506 153.336 105.86 153.023 105.86V105.978C153.023 105.978 153.023 106.097 153.023 106.156C152.945 106.097 152.867 105.978 152.711 106.037C152.554 106.037 152.476 106.215 152.398 106.333C152.476 106.333 152.476 106.333 152.476 106.392H152.32V106.274C152.32 106.333 152.163 106.451 152.163 106.51C152.085 106.451 152.163 106.392 152.163 106.333C151.929 106.451 152.085 106.392 151.851 106.51C151.851 106.628 151.929 106.628 152.007 106.746C151.929 106.805 151.851 106.983 151.694 106.983H151.851C151.694 107.219 151.538 107.278 151.304 107.278C150.834 108.046 150.991 108.4 151.304 108.519C151.538 108.637 151.929 108.519 151.929 108.519C152.789 108.4 152.867 107.987 153.492 107.514L153.336 107.81Z" fill="#FF2626"/>
<path d="M161.075 98.7713C161.544 98.535 161.857 98.6531 162.17 98.2987C162.404 98.1805 162.56 98.0033 162.717 97.8261C162.717 97.6489 162.951 97.6489 162.951 97.4716H163.108C163.108 97.4716 163.108 97.4126 163.186 97.4126C163.186 97.3535 163.264 97.3535 163.264 97.2944C163.264 97.1763 163.342 97.1172 163.498 97.0581H163.342C163.655 96.94 163.498 96.7037 163.811 96.7037C163.733 96.3492 164.358 96.6446 164.28 96.2311C164.28 96.2311 164.28 96.2311 164.358 96.2311C164.358 96.1129 164.515 96.0539 164.28 95.8766C164.28 95.8766 164.437 95.8766 164.515 95.8766C164.437 95.8176 164.437 95.6994 164.515 95.6994L164.593 95.5813L164.358 95.4631C164.515 95.4631 164.593 95.5813 164.671 95.4631L164.515 95.345C164.671 95.2859 164.984 95.345 165.218 95.345C165.766 94.9905 165.765 94.3407 166.469 94.1044H166.625C166.782 94.2817 166.469 93.8681 166.625 93.9863V93.8681C166.625 93.8681 166.625 93.8681 166.704 93.8681C166.704 93.8681 166.704 93.8681 166.704 93.75H166.86C167.094 93.6909 167.016 93.3955 167.251 93.2774C167.72 93.2183 167.876 92.6867 167.876 92.3913C167.876 91.9187 168.971 91.9187 168.892 91.4461C168.892 91.4461 168.892 91.4461 168.892 91.387L169.205 91.0917C169.205 91.0917 169.518 90.7372 169.518 90.3828C169.518 90.0874 169.127 89.7921 167.876 89.9693C167.642 90.0874 167.563 90.1465 167.642 90.3828C167.329 90.2646 167.485 90.5009 167.407 90.5009C167.563 90.6782 167.094 90.6191 167.173 90.7963C167.173 90.7963 167.094 90.7963 167.173 90.7372C167.173 90.7963 167.173 90.9145 166.938 90.8554C166.86 91.0326 166.547 91.2098 166.704 91.4461C166.782 91.5643 166.704 91.5052 166.704 91.6233C166.782 91.7415 166.547 91.8006 166.547 91.9187H166.469L166.391 92.0369C166.625 92.155 166.156 92.0369 166.235 92.2141C166.156 92.2732 166.625 92.6867 166.391 92.6867C166.469 92.8048 166.235 92.5094 166.235 92.6867C166.078 92.6276 166.235 92.6276 166.078 92.5685C166.078 92.6867 165.844 92.5685 165.844 92.7457H165.765C165.844 92.923 165.453 92.7457 165.531 92.982C165.531 93.1593 165.14 92.8639 165.218 93.1002H165.062C165.062 93.1002 165.218 93.2183 165.062 93.2183C164.984 93.2183 164.906 93.2183 164.906 93.1593C164.671 93.1593 164.906 93.5137 164.515 93.5137C164.671 93.6318 164.515 93.6318 164.515 93.75C164.437 93.75 164.358 93.8681 164.28 93.75H164.202C163.889 93.6318 164.202 93.8681 164.046 93.9272C164.046 93.9272 164.124 93.9272 164.202 93.9272H164.124H163.968C163.968 93.9863 164.124 94.0454 164.124 94.0454C164.046 94.0454 163.811 93.9863 163.889 94.1044C163.889 94.1635 164.124 94.1044 164.046 94.2226C163.889 94.2226 163.655 94.2817 163.498 94.3407C163.655 94.3998 163.577 94.4589 163.577 94.4589H163.498C163.498 94.577 163.264 94.2817 163.264 94.4589L163.42 94.577C163.498 94.8133 163.186 94.4589 163.342 94.7542C163.342 94.7542 163.577 94.8724 163.498 94.9315H163.42C163.42 94.9315 163.264 94.8133 163.264 94.9315V94.8133C163.186 94.8133 163.264 94.9905 163.264 94.9905C163.108 94.9905 163.108 95.1678 162.951 95.0496C162.951 95.0496 162.717 95.1087 162.873 95.2268C162.873 95.1678 162.717 95.2268 162.639 95.1087C162.639 95.2268 162.639 95.345 162.56 95.345C162.248 95.345 162.404 95.6403 162.17 95.6994C162.326 95.7585 162.17 95.8176 162.326 95.8766C162.326 96.1129 161.779 95.8766 162.17 96.2311C162.17 96.2902 162.013 96.2311 161.935 96.2311C161.857 96.3492 161.779 96.3492 161.701 96.4083C161.701 96.4674 161.857 96.6446 161.701 96.6446C161.701 96.5855 161.701 96.6446 161.622 96.6446C161.622 96.6446 161.622 96.6446 161.544 96.5855C161.544 96.5855 161.544 96.5855 161.544 96.6446C161.544 96.7037 161.544 96.7037 161.544 96.7037C161.388 96.7037 161.388 96.8218 161.231 96.7037C161.075 96.8218 161.075 97.0581 160.997 97.1763C160.919 97.1763 160.919 97.0581 160.919 96.999V97.1172C160.762 97.0581 160.919 97.0581 160.919 96.999C160.606 96.999 160.841 97.2944 160.528 97.2944C160.528 97.3535 160.528 97.3535 160.528 97.3535V97.4716C160.45 97.4126 160.372 97.2944 160.293 97.3535C160.137 97.3535 160.137 97.4716 160.137 97.5898C160.137 97.5898 160.215 97.5898 160.215 97.6489H160.059V97.5307C160.059 97.5898 159.981 97.7079 160.059 97.767C159.981 97.7079 160.059 97.6489 160.059 97.5898C159.903 97.7079 160.059 97.5898 159.824 97.767C159.824 97.8852 159.981 97.8261 159.981 97.9442C159.981 98.0033 159.981 98.1214 159.824 98.1214H159.981C159.981 98.3577 159.824 98.3577 159.668 98.3577C159.59 99.0076 159.746 99.3029 159.981 99.4211C160.215 99.5392 160.528 99.4801 160.528 99.4801C161.153 99.4801 161.075 99.0666 161.466 98.6531L161.075 98.7713Z" fill="#FF2626"/>
<path d="M68.0924 216.75H67.3705C67.3705 217.003 67.6112 216.876 68.0924 216.75Z" fill="#FF2626"/>
<path d="M75.07 210.923C72.7842 211.557 70.9797 212.19 69.4157 212.696C67.7314 213.203 66.4081 213.71 64.9644 214.09C62.0771 215.103 59.1898 216.116 54.8589 218.143C50.5279 219.916 46.1969 222.322 42.1066 224.475C40.4223 225.868 36.8132 227.262 34.768 228.908L33.8056 229.161C33.0837 229.668 32.2416 230.301 31.3995 230.681C30.3167 231.441 28.9934 232.075 28.5122 232.581C28.0309 232.834 27.67 233.088 27.1888 233.341L27.4294 233.088C26.467 233.848 25.5045 234.481 24.6624 235.114C24.1812 235.368 23.7 235.748 23.2188 236.001C22.7375 236.381 22.2563 236.634 21.7751 237.014H22.0157C20.0908 238.407 18.8878 239.674 17.9254 241.067C17.4441 241.827 17.0832 242.587 16.7223 243.473C16.3614 244.36 16.1208 245.5 16.1208 246.893C16.3614 248.54 17.2035 249.933 18.0457 250.946C19.0081 251.959 19.9705 252.719 21.0533 253.226C23.2188 254.239 25.3842 254.746 28.1512 254.366C27.4294 254.366 28.3919 254.492 28.3919 254.619C30.7979 254.619 33.3243 254.366 33.3243 253.859C35.0086 253.859 34.768 253.859 35.0086 254.112C35.0086 253.859 36.4523 253.732 37.8959 253.732H37.2944L41.1441 253.606L40.4223 253.226C42.4675 253.226 41.0238 253.732 42.9487 253.479V253.099C45.7157 253.099 47.4 253.352 50.167 253.352C55.9416 252.972 61.8365 251.959 67.4908 250.819C73.2655 249.679 78.7995 248.286 84.0929 247.02H84.5741C84.935 247.4 87.2208 245.753 87.702 245.88L88.7847 245.373C89.1457 245.373 89.8675 245.12 89.266 245.373C90.3487 244.993 90.3487 244.993 91.0705 244.613L92.2736 244.36C96.6045 242.967 100.093 240.94 104.424 238.914C107.071 237.774 110.8 235.748 114.41 233.341C118.019 230.935 121.387 228.148 123.673 225.995C124.515 225.235 125.357 224.475 126.199 223.715C127.042 222.955 127.884 222.196 128.846 221.309C129.688 220.549 130.651 219.662 131.493 218.776L132.816 217.509C133.297 217.003 133.658 216.496 134.14 215.989C134.982 214.976 135.704 213.836 136.185 212.443C136.666 211.177 137.027 209.53 136.666 207.757C136.305 205.984 134.982 204.464 133.658 203.831C132.335 203.071 131.132 202.944 129.929 202.691C129.688 202.691 128.846 202.564 128.846 202.564C126.079 201.931 123.432 201.551 120.665 201.298C120.665 201.298 120.064 201.298 118.981 201.298C117.898 201.298 116.455 201.298 114.891 201.298C111.643 201.298 107.552 201.804 104.545 202.691C101.537 203.451 99.4918 204.337 100.093 204.591C100.454 204.717 101.296 204.591 103.101 204.591C104.906 204.591 107.552 204.337 111.282 204.464H111.041C115.372 204.464 118.139 204.591 121.147 204.464C121.628 204.971 124.636 204.844 125.718 205.224C127.042 205.224 128.365 205.604 129.688 205.984C131.012 206.364 132.094 206.744 132.816 207.25C132.816 207.25 132.696 207.25 132.335 207.124C132.937 207.377 133.418 208.01 133.538 208.517C133.658 209.024 133.538 209.53 133.538 209.657C133.538 211.303 132.215 213.71 130.651 215.483C129.809 216.369 128.966 217.256 128.245 218.143C127.523 218.903 126.921 219.662 126.44 220.296V220.042C125.598 221.436 124.996 221.562 123.673 222.955H123.432C122.831 223.715 121.868 224.475 120.786 225.362C119.823 226.122 118.741 226.882 118.259 227.388H118.019L115.131 229.415L116.214 228.655C116.214 229.415 113.808 229.921 111.763 231.695C109.718 232.961 108.033 235.241 105.627 236.254C104.665 237.014 106.349 235.368 104.906 236.381C104.785 236.127 105.627 235.874 105.026 235.874C103.462 236.887 102.259 237.014 100.454 238.027H100.334C99.1309 238.661 97.8076 239.167 96.7248 239.547C95.5218 239.927 94.5594 240.307 93.7172 240.814C91.0705 241.954 91.6721 240.814 88.905 242.334H87.702C86.499 242.84 86.9802 243.093 85.5365 243.347C85.5365 243.093 83.7319 243.727 84.4538 243.347C81.2056 243.98 78.1979 245.627 73.867 246.006C73.0248 246.513 70.8594 246.766 70.2578 247.273C70.1375 247.146 65.9269 248.033 68.333 247.273C68.5736 247.273 68.9345 247.146 68.9345 247.273L69.1751 247.02C66.6487 247.02 64.8441 248.033 62.438 248.286C63.1599 248.286 64.1223 248.033 63.5208 248.286L61.235 248.54L61.7162 248.286C60.6335 248.413 59.4304 248.54 58.3477 248.666H58.8289C57.1446 248.92 56.5431 248.666 54.7386 249.173C53.8964 249.426 56.3025 249.299 54.6182 249.553C52.4528 249.553 49.0842 249.679 46.3172 249.933C46.5578 250.186 45.836 250.186 45.1142 250.313V250.059C42.1066 250.566 43.9111 249.679 40.9035 250.059H41.1441C41.1441 249.933 40.4223 250.439 40.4223 250.439C37.7756 251.073 38.9787 250.059 35.971 250.819C37.1741 250.819 36.5726 251.326 35.1289 251.199L35.4898 250.946C34.6477 250.946 34.4071 251.073 33.9259 251.073C34.4071 250.946 34.1665 250.693 32.9634 250.819L33.6853 250.566L31.5198 251.073C30.6776 251.073 29.4746 251.073 28.6325 251.073C27.67 251.073 26.9482 251.073 26.5873 250.819C26.5873 250.819 25.7452 250.819 24.7827 250.566C23.8203 250.439 22.9781 250.186 22.4969 250.186C22.8578 250.186 22.4969 250.059 22.3766 249.806C22.136 249.553 21.8954 249.426 22.136 249.426C21.7751 249.426 21.0533 249.046 20.5721 248.666C20.0908 248.16 19.8502 247.526 19.8502 247.146C19.7299 246.513 19.8502 245.88 19.8502 245.247C19.9705 244.613 20.3314 243.98 20.6924 243.347C21.4142 242.08 22.6172 240.94 24.0609 239.927C23.8203 239.927 25.3842 238.787 24.903 238.787C26.467 237.521 28.0309 236.761 29.3543 236.001C30.6776 235.241 31.6401 234.734 32.001 233.848C33.4446 232.834 33.9259 232.961 34.768 232.454L34.4071 232.708C37.2944 230.935 38.1365 230.428 40.302 229.288C41.3847 228.655 41.2644 228.148 43.3096 227.135C42.7081 227.642 43.5502 227.135 44.2721 226.755C43.7908 227.008 43.6705 227.135 44.7533 226.755C44.7533 226.755 45.1142 226.502 45.2345 226.375C46.4375 225.742 46.1969 225.742 45.5954 225.995C45.5954 225.995 45.5954 225.995 45.3548 225.995C46.6781 225.615 48.9639 224.095 49.2045 224.349C52.934 222.449 55.4604 220.929 58.7086 219.409C59.0695 219.409 58.468 219.789 57.5056 220.296C58.2274 219.916 58.9492 219.662 59.7913 219.282C59.7913 219.536 58.5883 219.916 57.8665 220.296C60.6335 219.536 63.2802 217.636 66.6487 216.749L67.2502 216.369H67.4908C67.4908 216.243 68.0924 215.863 68.5736 215.61C69.0548 215.61 68.5736 216.116 70.2578 215.61C71.5812 215.356 73.867 214.216 75.4309 213.583C74.4685 213.836 74.8294 213.583 75.1903 213.456C76.0325 213.203 76.5137 213.203 77.1152 212.95V213.203C76.8746 213.076 79.2807 212.19 79.5213 212.063C80.0025 212.063 78.3182 212.57 78.1979 212.823C81.4462 211.81 79.7619 212.317 83.0101 211.303C84.6944 210.543 82.6492 211.177 83.371 210.67C84.935 210.163 86.3787 209.657 88.1832 209.277H87.5817C90.469 208.264 92.2736 207.884 94.1985 207.63C99.6122 205.984 102.62 205.097 104.063 204.464C105.507 203.831 105.387 203.577 104.545 203.577C103.703 203.577 102.139 203.577 100.815 203.704C99.4919 203.704 98.4091 203.957 98.4091 203.957C93.9578 204.591 90.7096 205.351 87.2208 206.364C83.7319 207.377 80.1228 208.644 75.07 210.29V210.923Z" fill="#FF2626"/>
<path d="M27.7904 261.965C30.4371 262.598 32.1213 262.978 33.8056 263.231C35.4899 263.485 37.1741 263.738 39.9411 263.865C42.5878 263.991 45.3548 264.118 47.8812 263.991C49.0843 263.611 51.2498 263.991 52.6934 263.611L53.2949 263.865C53.7762 263.865 54.3777 263.611 54.8589 263.738C55.5807 263.611 56.4229 263.738 56.7838 263.611H57.6259H57.5056C58.829 263.485 60.1523 263.358 61.2351 263.358V263.105C63.6411 263.105 64.4833 262.471 66.7691 262.598C69.5361 261.585 71.3406 262.471 74.1076 261.205C73.7467 261.332 74.2279 261.205 74.2279 261.332C75.5513 260.952 76.9949 260.572 76.8746 260.192C77.8371 259.938 77.7168 260.192 77.8371 260.318C77.8371 260.065 78.5589 259.812 79.401 259.685H79.0401C79.7619 259.685 80.4838 259.432 81.2056 259.178L80.7244 258.925C81.9274 258.672 81.0853 259.305 82.168 258.925V258.545C83.6117 258.165 84.6944 258.545 86.2584 258.292C92.6345 256.519 98.7701 252.972 104.545 250.693H104.906C105.146 251.073 106.109 249.426 106.47 249.679L107.071 249.173C107.312 249.173 107.673 249.046 107.432 249.173C108.034 248.919 108.034 248.793 108.394 248.413H109.116C109.718 248.033 110.319 247.653 110.801 247.4C111.282 247.02 111.763 246.64 112.244 246.26C113.207 245.5 114.169 244.74 115.372 243.98C116.936 243.22 118.741 241.7 120.666 240.18C122.59 238.66 124.154 236.761 125.478 235.494C126.32 234.608 127.162 233.594 128.245 232.581C129.207 231.694 130.29 230.681 131.252 229.795C133.297 227.768 135.102 225.488 136.185 222.955C136.305 222.829 136.425 222.322 136.425 222.322C137.268 220.802 137.869 219.282 138.471 217.636C138.471 217.636 138.471 217.256 138.711 216.623C138.831 215.989 139.072 215.103 139.192 214.09C139.433 211.936 139.192 209.277 138.23 207.377C137.989 206.87 137.749 206.49 137.628 206.11C137.388 205.73 137.147 205.477 136.907 205.35C136.546 204.97 136.305 204.844 136.185 205.097C136.185 205.35 136.185 205.984 136.425 206.997C136.546 208.01 136.786 209.53 136.425 211.556C136.305 213.836 135.824 215.229 135.704 217.003C135.222 217.003 134.982 218.902 134.501 219.409C134.26 220.929 132.816 221.942 132.335 223.335C132.335 223.335 132.335 223.209 132.335 222.829C131.854 223.715 131.012 224.982 130.771 224.855C129.448 227.008 126.681 229.415 125.839 230.935C125.357 231.694 124.996 231.694 124.395 232.581H124.275C123.673 233.468 122.109 234.608 121.508 235.241H121.387L119.944 236.507L120.545 236.001C120.545 236.254 120.305 236.507 119.823 236.761C119.342 237.014 118.741 237.267 118.259 237.901C117.177 238.66 116.695 240.56 115.372 241.194C115.011 241.827 115.613 240.434 114.891 241.194C114.771 240.94 115.131 240.814 114.891 240.687C114.169 241.447 113.327 241.32 112.485 242.207H112.364C111.161 243.22 109.718 243.473 108.996 244.36C107.673 245.373 107.673 244.36 106.47 245.626H105.748C105.026 246.006 105.507 246.26 104.665 246.513C104.665 246.26 103.703 246.893 104.063 246.513C102.379 247.146 100.815 248.539 98.5295 249.173C98.1686 249.806 96.9655 250.059 96.7249 250.439C96.7249 250.439 94.4391 251.326 95.6422 250.439C95.6422 250.439 95.8828 250.313 96.0031 250.439V250.186C94.6797 250.313 93.8376 251.326 92.5142 251.832C92.8752 251.832 93.3564 251.579 93.1158 251.832L91.9127 252.339L92.1533 252.086C91.5518 252.339 90.9503 252.466 90.3488 252.592H90.7097C89.7472 252.972 89.3863 252.592 88.4239 253.352C88.063 253.732 89.3863 253.352 88.4239 253.732C87.2208 253.986 85.296 254.366 83.8523 254.746C84.0929 254.999 83.6117 254.999 83.2508 255.252V254.999C81.5665 255.759 82.4086 254.746 80.8447 255.379C80.8447 255.252 80.4838 255.759 80.4838 255.759C79.1604 256.645 79.6417 255.505 78.0777 256.519C78.6792 256.392 78.4386 256.899 77.7168 257.025V256.772C77.4762 256.899 77.3559 257.025 76.9949 257.025C77.2356 256.899 76.9949 256.645 76.3934 256.899L76.7543 256.519L75.5513 257.152C74.5889 257.152 73.1452 257.785 72.664 257.532C72.664 257.532 70.6188 257.659 70.1376 258.165C70.4985 257.912 69.4158 258.039 69.6564 257.659C69.1752 257.912 67.6112 258.418 67.0097 258.292C64.6036 258.292 63.0396 259.052 60.8741 258.925C60.8741 259.178 59.9117 259.178 60.1523 259.432C57.9868 259.938 56.1823 259.052 55.3401 260.065C54.3777 260.065 54.1371 259.938 53.6559 259.812H53.8965C52.0919 259.812 51.4904 259.812 50.167 259.812C49.4452 259.812 49.3249 260.445 48.1219 260.318C48.4828 260.192 48.1219 260.192 47.5203 260.192C47.7609 260.192 47.8812 260.192 47.2797 259.938C47.2797 259.938 47.0391 259.938 46.9188 259.938C46.197 259.938 46.3173 259.938 46.6782 260.065C46.6782 260.065 46.6782 260.065 46.7985 260.065C45.9564 259.812 44.5127 260.065 44.5127 259.685C42.2269 259.685 40.5427 259.938 38.4975 259.812C38.2569 259.685 38.7381 259.558 39.3396 259.558H38.0163C38.0163 259.305 38.8584 259.432 39.2193 259.432C37.6554 258.925 35.8508 259.432 33.9259 258.925H33.565C33.565 258.925 33.0838 259.052 32.8432 259.052C32.6026 258.798 32.8432 258.545 32.001 258.418C31.2792 258.165 29.9559 258.165 28.9934 258.039C29.4746 258.165 29.3543 258.292 28.9934 258.292C28.5122 258.292 28.2716 257.912 27.9107 257.912V257.659C28.031 257.912 26.7076 257.659 26.467 257.659C26.2264 257.405 27.1889 257.659 27.3092 257.659C25.6249 257.152 26.467 257.405 24.7828 256.772C23.8203 256.519 24.7828 257.152 24.3015 257.152C23.4594 256.772 22.6173 256.519 21.8955 255.759C21.8955 255.885 21.8955 256.012 21.8955 256.139C20.4518 255.252 19.73 254.366 19.2488 253.352C17.0833 251.073 16.6021 248.919 16.2411 248.033C15.8802 247.02 15.6396 247.146 15.399 247.653C15.1584 248.159 15.0381 249.299 15.1584 250.313C15.1584 251.326 15.5193 252.086 15.5193 252.086C16.4818 255.252 18.166 257.025 20.0909 258.418C22.1361 259.812 24.4219 260.572 27.5498 261.332L27.7904 261.965Z" fill="#FF2626"/>
<path d="M37.1741 243.727C38.7381 242.587 39.8208 242.207 40.9035 241.573C41.9863 241.067 43.069 240.434 44.633 239.294C46.3172 238.407 48.0015 237.267 49.5655 236.254C50.167 235.494 51.731 235.114 52.4528 234.354H52.934C53.1746 234.101 53.5355 233.848 53.8964 233.721C54.2574 233.341 54.8589 233.214 55.0995 232.961L55.701 232.708C56.4228 232.201 57.265 231.821 58.1071 231.568V231.314C59.6711 230.808 60.032 230.048 61.7162 229.668C63.2802 228.275 64.8442 228.908 66.5284 227.515C66.2878 227.641 66.6487 227.515 66.6487 227.641C67.4909 227.262 68.4533 226.755 68.333 226.248C68.9345 225.995 68.9345 226.248 69.0548 226.248C69.0548 225.995 69.536 225.742 70.0173 225.488H69.7766C69.7766 225.615 71.2203 224.982 71.2203 224.982L70.7391 224.728C71.5812 224.602 71.1 225.108 71.8218 224.728V224.348C72.7843 223.968 73.6264 224.348 74.7091 224.095C76.9949 223.462 79.1604 222.575 81.4462 221.689C83.732 220.929 86.0178 220.296 88.1832 220.042L88.4238 220.296C88.5442 220.675 89.5066 219.536 89.7472 219.789L90.2284 219.536C90.3487 219.536 90.7096 219.536 90.469 219.662C90.9502 219.662 90.9502 219.536 91.1909 219.282H91.6721C93.4766 219.282 94.9203 218.396 96.8452 218.142C98.0482 218.142 99.7325 217.889 101.296 217.509C102.981 217.129 104.665 216.876 105.868 216.496C106.71 216.243 107.673 216.116 108.635 216.116C109.597 216.116 110.56 216.116 111.522 216.116C113.447 216.116 115.372 216.116 117.177 215.863H117.538H120.906C120.906 215.863 121.147 215.863 121.628 215.863C121.989 215.863 122.59 215.863 123.312 215.863C124.636 215.863 126.199 215.863 127.523 215.736C130.049 215.483 131.132 214.723 124.876 212.95C123.914 212.696 123.192 212.696 122.47 212.696C121.748 212.696 121.147 212.823 120.545 213.076C120.305 212.57 118.981 213.076 118.62 212.95C117.538 213.33 116.335 212.57 115.252 212.95C115.252 212.95 115.252 212.696 115.613 212.696C114.771 212.696 113.688 212.95 113.688 212.696C111.763 212.95 109.116 212.95 108.033 213.583C107.432 213.836 107.191 213.583 106.349 213.836C105.627 214.216 104.184 214.089 103.582 214.343V214.089L102.018 214.343H102.62C102.499 214.849 101.417 214.089 100.454 214.596C99.4919 214.596 98.5294 215.989 97.4467 215.989C96.9655 216.369 97.8076 215.483 97.0858 215.863C97.0858 215.609 97.4467 215.609 97.0858 215.483C96.3639 215.736 95.8827 215.483 94.9203 215.736V215.483C93.7173 216.116 92.6345 215.609 91.9127 216.243C90.7096 216.623 90.9502 215.736 89.8675 216.496H89.266C88.6645 216.496 88.9051 216.749 88.3035 216.749C88.3035 216.496 87.4614 216.749 87.8223 216.496C86.3787 216.496 85.1756 217.636 83.3711 217.636C83.1305 218.142 82.168 218.142 81.9274 218.396C81.9274 218.269 80.1228 218.902 81.0853 218.269H81.3259V218.016C80.2431 217.889 79.6416 218.776 78.6792 219.029C79.0401 219.029 79.401 218.902 79.1604 219.029L78.198 219.282V219.029C78.3183 219.029 76.9949 219.409 76.9949 219.409H77.2355C76.5137 219.662 76.1528 219.409 75.5513 219.916C75.3107 220.169 76.2731 219.916 75.5513 220.296C74.5888 220.296 73.2655 220.675 72.0624 221.055C72.303 221.309 71.9421 221.309 71.7015 221.562V221.309C70.4985 222.069 70.9797 221.055 69.8969 221.689C69.8969 221.562 69.7766 222.069 69.7766 222.069C68.8142 222.829 69.0548 221.815 68.0924 222.829C68.5736 222.575 68.4533 223.209 67.8518 223.335V223.082C67.6112 223.209 67.4909 223.335 67.3706 223.462C67.4909 223.335 67.3705 223.082 66.8893 223.462L67.1299 223.082L66.4081 223.842C65.6863 223.842 64.7238 224.602 64.3629 224.475C64.3629 224.475 62.9193 224.982 62.6787 225.362C62.9193 225.108 62.0771 225.362 62.1975 224.982C61.9568 225.362 60.8741 225.995 60.3929 225.995C58.7086 226.502 57.7462 227.515 56.1822 227.895C56.3025 228.148 55.5807 228.275 55.8213 228.528C54.498 229.541 52.8137 229.288 52.8137 230.428C52.2122 230.808 51.9716 230.681 51.6107 230.808H51.731C50.5279 231.441 50.167 231.568 49.2046 232.074C48.8436 232.454 48.964 232.834 48.1218 233.214C48.2421 232.834 48.0015 233.214 47.6406 233.214C47.7609 233.088 47.8812 232.961 47.4 233.214C47.4 233.214 47.4 233.341 47.2797 233.468C46.7985 233.848 46.9188 233.848 47.2797 233.721C47.2797 233.721 47.2797 233.721 47.4 233.721C46.7985 233.721 45.9563 234.607 45.7157 234.354C44.2721 235.367 43.3096 236.127 42.1066 237.141C41.866 237.141 42.1066 236.761 42.4675 236.507L41.6254 237.141C41.6254 236.887 42.1066 236.761 42.3472 236.507C41.1442 236.887 40.4223 238.28 38.9787 238.66V239.04C38.8584 239.04 38.7381 239.04 38.7381 239.04C38.7381 239.04 38.6178 239.42 38.3771 239.547C38.1365 239.547 38.1365 239.167 37.535 239.547C36.9335 239.674 36.2117 240.56 35.7305 241.067C36.0914 240.813 35.9711 241.067 35.9711 241.193C35.7304 241.447 35.3695 241.32 35.2492 241.573V241.32C35.2492 241.447 34.4071 242.08 34.4071 242.333C34.1665 242.333 34.768 241.827 34.768 241.7C33.565 242.587 34.1665 242.08 33.0837 242.967C32.6025 243.6 33.3244 243.093 33.0837 243.473C32.6025 243.853 32.1213 244.486 31.3995 244.74H31.7604C30.798 245.753 30.1964 246.133 29.4746 246.513C26.3467 250.186 26.3467 251.072 27.1888 251.072C28.031 251.072 29.4746 250.059 29.4746 250.059C31.0386 249.173 32.1213 248.286 33.2041 247.273C34.2868 246.26 35.4898 245.246 37.1741 243.853V243.727Z" fill="#FF2626"/>
<path d="M138.952 204.084C139.914 203.324 140.395 203.451 141.117 202.564C141.599 202.184 141.959 201.677 142.32 201.298C142.32 200.791 142.922 200.791 142.922 200.411H143.162C143.162 200.411 143.162 200.158 143.403 200.284C143.403 200.158 143.644 200.031 143.644 199.904H143.764C143.884 199.651 144.125 199.524 144.366 199.398V199.144C144.847 199.144 144.726 198.511 145.208 198.511C145.328 197.625 146.29 198.384 146.411 197.498C146.411 197.498 146.411 197.498 146.531 197.625C146.772 197.371 147.012 197.118 146.772 196.738C147.012 196.738 147.012 196.738 147.133 196.865C147.133 196.738 147.133 196.485 147.253 196.358L147.614 196.105L147.373 195.851C147.614 195.851 147.734 196.231 147.854 195.978V195.725C147.975 195.598 148.456 195.978 148.817 195.978C150.14 195.345 151.103 193.825 152.546 193.698V193.952C152.907 194.332 152.787 193.318 153.027 193.572V193.318C153.148 193.318 153.268 193.318 153.268 193.445C153.388 193.445 153.268 193.445 153.388 193.192H153.629C154.23 193.192 154.471 192.558 155.073 192.432C155.915 192.558 156.997 191.545 157.599 191.039C158.441 190.025 160.125 191.039 160.968 190.025C160.968 190.025 160.968 190.025 160.968 189.899L161.93 189.645C161.93 189.645 162.171 189.645 162.652 189.392C163.013 189.265 163.494 189.012 163.855 188.759C164.456 188.252 164.697 187.366 162.411 186.479C161.81 186.479 161.449 186.479 161.208 186.986C160.968 186.479 160.727 186.986 160.607 186.986C160.366 187.492 159.764 186.986 159.644 187.366C159.644 187.366 159.644 187.239 159.644 187.112C159.404 187.239 159.163 187.492 159.043 187.112C158.561 187.366 157.719 187.619 157.479 188.126C157.479 188.379 157.238 188.126 157.118 188.379C157.118 188.759 156.516 188.759 156.396 188.885C156.396 188.759 156.035 188.885 156.035 188.885H156.155C156.276 189.392 155.674 188.632 155.554 189.139C155.193 189.139 155.434 190.405 154.952 190.405C154.952 190.659 154.952 190.025 154.832 190.279C154.832 190.025 154.832 190.025 154.832 189.899C154.712 190.152 154.351 189.899 154.23 190.152V189.899C153.99 190.405 153.388 189.899 153.268 190.405C153.027 190.785 152.787 189.899 152.546 190.405L152.306 190.152C152.185 190.152 152.306 190.532 152.065 190.532C152.065 190.405 151.824 190.532 151.824 190.279C151.343 190.279 151.223 191.039 150.501 190.912C150.501 191.292 150.26 191.292 150.26 191.545C150.26 191.419 149.779 191.798 149.9 191.292V191.039C149.298 190.785 149.418 191.545 149.057 191.672H148.576C148.576 191.798 148.696 191.925 148.696 191.925C148.456 191.925 148.215 191.672 148.095 192.052C148.095 192.305 148.456 192.178 148.215 192.432C147.854 192.432 147.373 192.432 147.012 192.685C147.133 192.938 147.012 192.938 147.012 193.065C146.772 193.318 146.651 192.558 146.411 193.065C146.411 192.938 146.531 193.318 146.531 193.318C146.531 193.825 146.17 193.065 146.05 193.698C146.05 193.698 146.411 194.078 146.05 194.078V193.825C145.929 193.825 146.05 194.078 145.809 194.078C145.809 193.952 145.689 193.825 145.569 193.952V193.698V194.205C145.208 194.205 145.087 194.585 144.847 194.458C144.847 194.458 144.366 194.585 144.486 194.965C144.486 194.712 144.245 194.838 144.125 194.585C144.125 194.838 143.884 195.218 143.644 195.091C143.042 195.091 143.042 195.978 142.441 195.978C142.561 196.231 142.32 196.231 142.441 196.485C142.2 196.991 141.358 196.485 141.719 197.498C141.599 197.751 141.358 197.498 141.238 197.498C140.997 197.751 140.877 197.878 140.516 198.005C140.516 198.131 140.756 198.511 140.516 198.638C140.516 198.384 140.516 198.638 140.275 198.638C140.275 198.638 140.275 198.511 140.155 198.511C140.155 198.511 140.155 198.511 140.155 198.638C140.155 198.764 140.155 198.891 140.155 198.764C139.914 198.764 139.794 199.144 139.553 198.891C139.192 199.271 139.072 199.778 138.831 200.284C138.711 200.284 138.711 200.031 138.831 199.904L138.591 200.158C138.471 200.031 138.591 199.904 138.591 199.778C138.11 199.778 138.23 200.664 137.628 200.664V200.918V201.171C137.508 201.171 137.388 200.791 137.147 200.918C136.907 200.918 136.786 201.298 136.786 201.551C136.786 201.551 136.907 201.551 136.907 201.677H136.666L136.425 201.424C136.666 201.551 136.425 201.804 136.425 201.931C136.185 201.931 136.425 201.677 136.425 201.551C136.064 201.931 136.305 201.677 135.944 202.057C135.944 202.437 136.185 202.184 136.185 202.437C136.185 202.691 136.064 202.944 135.824 202.944H136.064C135.944 203.451 135.704 203.704 135.343 203.704C134.982 205.477 135.343 206.11 135.824 206.237C136.305 206.364 136.786 206.11 136.786 206.11C137.869 205.73 137.869 204.717 138.711 203.704L138.952 204.084Z" fill="#FF2626"/>
<path d="M140.395 213.203C141.478 212.316 141.959 212.443 142.802 211.303C143.283 210.923 143.764 210.29 144.245 209.91C144.245 209.403 144.847 209.403 144.967 208.897H145.208C145.208 208.897 145.208 208.643 145.448 208.643C145.448 208.517 145.689 208.39 145.809 208.263H145.929C146.05 208.01 146.29 207.757 146.651 207.63V207.377C147.133 207.25 147.012 206.617 147.734 206.617C147.975 205.73 148.937 206.364 149.178 205.477C149.178 205.477 149.178 205.477 149.298 205.604C149.539 205.35 149.779 205.097 149.539 204.717C149.779 204.591 149.779 204.717 149.9 204.844C149.9 204.717 149.9 204.464 150.14 204.337L150.621 204.084L150.381 203.831C150.742 203.831 150.742 204.211 150.862 203.957V203.704C151.103 203.577 151.584 203.831 151.945 203.957C153.388 203.197 154.591 201.677 156.276 201.551V201.804C156.637 202.184 156.637 201.171 156.757 201.424V201.171C156.877 201.171 156.997 201.171 156.997 201.298C157.118 201.298 157.118 201.298 157.238 201.044H157.479C158.08 201.044 158.441 200.411 159.163 200.284C160.125 200.411 161.328 199.524 162.171 199.018C163.253 198.005 164.938 199.144 166.02 198.258C166.02 198.258 166.141 198.258 166.02 198.131L167.223 197.878C167.223 197.878 167.584 197.878 168.066 197.625C168.547 197.625 169.028 197.371 169.509 197.118C170.351 196.611 170.592 195.851 168.186 194.585C167.464 194.458 167.103 194.585 166.742 194.965C166.622 194.458 166.141 194.965 166.02 194.965C165.659 195.345 165.178 194.838 164.817 195.218C164.817 195.218 164.817 195.091 164.817 194.965C164.577 195.091 164.216 195.345 164.095 194.965C163.494 195.218 162.532 195.345 162.171 195.978C162.05 196.231 161.93 195.978 161.689 196.231C161.569 196.611 160.968 196.485 160.727 196.738C160.607 196.738 160.366 196.738 160.246 196.738H160.486C160.486 197.245 160.005 196.485 159.765 196.991C159.404 196.991 159.404 198.258 159.043 198.258C159.043 198.511 159.043 197.878 158.922 198.131C158.922 197.878 158.922 197.878 158.922 197.751C158.682 198.005 158.441 197.751 158.201 198.005V197.751C157.84 198.258 157.238 197.751 157.118 198.258C156.757 198.638 156.637 197.751 156.276 198.258L156.035 198.005C155.794 198.005 156.035 198.384 155.794 198.384C155.794 198.258 155.434 198.384 155.554 198.131C154.952 198.131 154.832 198.891 153.99 198.764C153.99 199.144 153.629 199.144 153.629 199.398C153.629 199.271 153.027 199.651 153.268 199.144V198.891C152.667 198.764 152.667 199.398 152.306 199.524C152.426 199.524 152.546 199.524 152.546 199.524H152.185H151.704C151.704 199.651 151.824 199.778 151.824 199.778C151.584 199.778 151.343 199.524 151.223 199.904C151.223 200.158 151.584 200.031 151.343 200.284C150.982 200.284 150.381 200.284 150.02 200.538C150.14 200.791 150.02 200.791 150.02 200.918C149.779 201.298 149.659 200.411 149.418 200.918C149.418 200.791 149.539 201.171 149.539 201.171C149.418 201.804 149.178 200.918 149.057 201.677C149.178 201.551 149.418 202.057 149.057 202.057V201.804C148.937 201.804 148.937 202.057 148.817 202.057C148.817 201.931 148.696 201.804 148.576 201.931V201.677L148.456 202.184C148.095 202.184 147.854 202.564 147.614 202.437C147.614 202.437 147.012 202.691 147.133 202.944C147.133 202.691 146.772 202.944 146.772 202.564C146.772 202.817 146.531 203.197 146.29 203.197C145.569 203.324 145.569 204.084 144.967 204.211C145.087 204.464 144.847 204.464 144.967 204.717C144.726 205.35 143.764 204.844 144.125 205.857C143.884 206.11 143.764 205.857 143.644 205.857C143.283 206.11 143.162 206.237 142.922 206.49C142.922 206.744 143.042 207.124 142.802 207.25C142.802 206.997 142.802 207.25 142.561 207.25C142.561 207.25 142.561 207.124 142.32 207.124C142.32 207.124 142.32 207.124 142.32 207.25C142.2 207.377 142.32 207.504 142.32 207.377C141.959 207.377 141.839 207.757 141.599 207.63C141.117 208.137 140.997 208.643 140.756 209.15C140.636 209.15 140.636 208.897 140.756 208.77L140.516 209.023C140.395 208.897 140.516 208.77 140.636 208.643C140.035 208.643 140.155 209.53 139.553 209.657V209.91C139.553 209.91 139.553 210.163 139.553 210.29C139.313 210.29 139.192 209.91 139.072 210.163C138.832 210.163 138.711 210.67 138.591 210.923C138.711 210.923 138.711 210.923 138.711 211.05C138.711 211.05 138.471 211.05 138.471 211.177H138.23C138.471 211.177 138.23 211.43 138.23 211.556C137.989 211.556 138.23 211.303 138.23 211.177C137.869 211.557 138.11 211.43 137.749 211.81C137.749 212.19 137.989 211.936 137.989 212.19C137.869 212.443 137.869 212.696 137.508 212.823H137.749C137.628 213.203 137.508 213.456 137.268 213.583H137.749C137.749 213.583 137.749 213.583 137.749 213.33C137.388 213.203 137.268 212.696 137.147 212.443C137.147 212.063 137.147 211.683 137.147 211.43C137.147 210.923 137.027 210.797 136.786 210.67C136.425 210.67 135.824 211.05 135.583 211.43C135.222 211.81 135.102 212.316 135.102 212.316C134.741 213.203 134.861 214.216 135.343 215.103L137.027 217.763L139.072 215.356C139.553 214.849 139.674 213.963 140.395 213.076V213.203Z" fill="#FF2626"/>
<path d="M162.411 189.772C162.531 190.152 162.291 190.532 162.652 190.785C162.652 190.912 162.892 191.039 163.133 191.165C163.494 191.039 163.253 191.419 163.614 191.165H163.494C163.494 191.292 163.735 191.165 163.494 191.419C163.614 191.419 163.494 191.419 163.735 191.419C163.975 191.419 163.975 191.419 163.975 191.672H164.216C164.216 191.798 164.577 191.672 164.336 191.925C164.938 191.672 164.216 192.558 164.817 192.305C164.817 192.305 164.817 192.305 164.697 192.305C164.697 192.305 164.938 192.305 165.298 192.052C165.298 192.052 165.298 192.178 165.058 192.305C165.178 192.178 165.298 192.178 165.419 192.305H165.539L165.78 192.052C165.78 192.178 165.419 192.432 165.539 192.432L165.78 192.178C165.78 192.305 165.419 192.685 165.298 192.938C165.419 193.445 166.381 193.318 166.261 194.078H166.02C165.78 194.458 166.502 194.078 166.261 194.205H166.381C166.381 194.205 166.381 194.205 166.261 194.205C166.261 194.205 166.261 194.205 166.381 194.205H166.261C166.261 194.712 166.622 194.458 166.742 194.712C166.502 195.218 167.103 195.345 167.464 195.345C168.065 195.345 167.223 196.611 167.945 196.485V196.738C168.065 196.738 169.028 198.131 170.592 195.218C170.592 194.838 170.592 194.838 170.231 194.965C170.592 194.585 170.231 194.838 170.231 194.712C169.87 194.712 170.231 194.332 169.99 194.458H170.111C170.111 194.458 169.87 194.458 170.111 194.205C169.99 194.205 169.87 193.825 169.509 193.952C169.269 193.952 169.509 193.952 169.269 193.952C169.028 194.078 169.148 193.825 168.908 193.952H169.028L168.908 193.698C168.426 194.078 169.148 193.445 168.787 193.698C168.787 193.698 167.825 194.205 167.945 193.952C167.705 193.952 168.306 193.698 168.065 193.825C168.306 193.698 168.186 193.825 168.426 193.572C168.306 193.572 168.547 193.318 168.426 193.318H168.547C168.186 193.318 168.547 192.812 168.306 192.938C168.065 192.938 168.787 192.432 168.306 192.685L168.547 192.432C168.547 192.432 168.306 192.558 168.306 192.432C168.426 192.432 168.306 192.305 168.547 192.178C168.667 191.925 168.065 192.178 168.306 191.798C168.065 191.925 168.065 191.798 167.945 191.798C167.945 191.798 167.945 191.672 168.186 191.545H168.306C168.547 191.039 168.065 191.419 168.065 191.292C168.065 191.292 168.065 191.292 167.945 191.419L168.065 191.165C168.065 191.039 167.945 191.165 167.945 191.165C167.945 191.039 168.306 190.785 167.945 190.912C167.825 190.912 167.705 191.165 167.705 191.165C167.705 191.039 167.825 190.785 167.825 190.659C167.584 190.785 167.584 190.785 167.584 190.785H167.705C167.344 190.785 168.065 190.279 167.705 190.405H167.825L167.464 190.532C167.103 190.659 167.825 190.152 167.223 190.532L166.862 190.785H166.983C166.983 190.785 167.223 190.659 167.223 190.532H167.464C167.464 190.405 167.103 190.532 167.103 190.532C167.223 190.279 166.983 190.532 167.103 190.152C167.103 190.152 167.103 189.899 166.862 190.152C166.983 190.152 167.103 189.899 167.223 189.772C166.983 189.772 166.862 189.772 166.983 189.772C166.983 189.519 166.502 189.772 166.622 189.392C166.381 189.519 166.502 189.392 166.261 189.645C165.9 189.645 166.622 189.012 165.78 189.645L165.9 189.392C165.78 189.392 165.78 189.392 165.659 189.139C165.659 189.139 165.178 189.392 165.178 189.265C165.298 189.265 165.178 189.265 165.178 189.139C165.178 189.139 165.178 189.139 165.298 189.012H165.178C165.298 188.759 165.178 188.885 165.298 188.632C165.178 188.632 164.817 188.632 164.577 188.632C164.577 188.632 164.817 188.505 164.938 188.505C165.058 188.252 165.058 188.505 165.178 188.505C165.419 188.126 164.697 188.505 164.938 188.252H164.817H164.577C164.697 188.126 164.938 187.999 164.938 187.872C164.938 187.746 164.817 187.872 164.697 187.872C164.697 187.872 164.697 187.872 164.577 187.999V187.872H164.817C164.577 187.872 164.577 187.872 164.456 187.872C164.577 187.746 164.577 187.872 164.697 187.746C164.697 187.746 164.697 187.746 164.577 187.619C164.336 187.619 164.336 187.746 164.216 187.872H163.975H163.855C163.614 187.999 163.614 187.872 163.855 187.872C161.81 188.379 161.689 189.392 161.689 189.392C161.449 190.025 162.171 189.772 162.531 190.025L162.411 189.772Z" fill="#FF2626"/>
<path d="M167.344 183.566C168.066 183.186 168.667 183.059 169.269 182.933C169.87 182.806 170.351 182.679 171.314 182.173C172.156 181.92 173.118 181.413 173.96 181.16C174.321 180.653 175.163 180.78 175.524 180.273H175.765C175.885 180.273 176.126 180.146 176.246 180.273C176.487 180.146 176.727 180.146 176.848 180.02H177.209C177.57 179.766 178.051 179.64 178.532 179.64V179.386C179.374 179.386 179.615 178.753 180.457 178.88C181.299 177.993 182.141 178.88 182.983 177.867C182.983 177.867 182.983 177.867 182.983 177.993C183.464 177.74 183.946 177.613 183.825 177.107C184.186 177.107 184.186 177.107 184.307 177.36C184.307 177.107 184.547 176.98 184.788 176.853L185.51 176.6L185.269 176.22C185.75 176.22 185.51 176.727 185.871 176.473V176.093C186.352 176.093 186.833 176.347 187.435 176.473C189.72 175.967 192.006 174.32 194.292 174.32V174.574C194.533 174.954 194.893 173.814 195.134 174.194L195.375 173.94C195.375 173.94 195.615 173.94 195.495 174.194C195.736 174.194 195.736 174.194 195.856 173.94H196.217C197.179 173.94 197.781 173.307 198.863 173.18C200.187 173.307 202.232 172.294 203.435 171.661C205.119 170.647 207.525 171.661 209.089 170.394C209.089 170.394 209.33 170.394 209.33 170.267L211.014 169.887C211.014 169.887 219.075 167.988 212.338 166.468C211.375 166.468 210.774 166.468 210.292 167.101C210.052 166.594 209.571 167.228 209.33 167.101C208.849 167.608 208.127 167.101 207.646 167.481C207.646 167.481 207.646 167.354 207.646 167.228C207.285 167.354 206.804 167.608 206.683 167.354C205.721 167.734 204.397 167.861 203.916 168.494C203.676 168.748 203.435 168.494 203.194 168.874C202.954 169.254 202.112 169.254 201.871 169.381C201.871 169.254 201.149 169.381 201.149 169.381H201.39C201.39 169.887 200.788 169.128 200.307 169.634C199.826 169.634 199.585 171.027 198.984 170.901C198.743 171.154 198.984 170.394 198.743 170.774C198.743 170.521 198.863 170.521 198.743 170.394C198.382 170.647 198.021 170.394 197.66 170.647V170.394C197.059 170.901 196.457 170.394 196.096 170.901C195.495 171.281 195.495 170.394 195.014 170.901L194.653 170.647C194.412 170.647 194.653 171.027 194.172 171.027C194.172 170.901 193.811 171.027 193.931 170.774C193.209 170.774 192.728 171.534 191.645 171.407C191.645 171.787 191.044 171.787 190.923 172.041C190.923 171.914 190.081 172.294 190.442 171.787C190.442 171.787 190.442 171.787 190.562 171.787V171.534C189.961 171.281 189.72 172.041 189.239 172.167C189.359 172.167 189.6 172.167 189.48 172.294H188.999H188.277L188.397 172.547C188.036 172.547 187.795 172.167 187.555 172.547C187.435 172.8 187.916 172.8 187.555 172.927C187.074 172.927 186.352 172.927 185.75 172.927C185.871 173.18 185.75 173.18 185.51 173.307V173.054C184.908 173.56 185.028 172.674 184.547 173.054C184.547 172.927 184.547 173.434 184.547 173.434C184.066 174.067 184.186 173.054 183.705 173.814C183.946 173.814 183.946 174.194 183.705 174.194V173.94C183.585 173.94 183.585 174.194 183.464 174.067C183.464 173.94 183.464 173.814 183.224 173.814V173.56L182.983 174.067C182.622 174.067 182.141 174.447 181.901 174.067C181.901 174.067 181.058 174.067 181.058 174.574C181.058 174.32 180.697 174.447 180.818 174.067C180.697 174.32 180.216 174.7 179.855 174.574C178.893 174.574 178.532 175.334 177.69 175.334C177.69 175.587 177.329 175.587 177.57 175.84C176.848 176.347 175.885 175.714 175.885 176.727C175.524 176.853 175.404 176.727 175.163 176.727C174.562 176.98 174.321 176.98 173.84 177.233C173.6 177.36 173.72 177.867 173.239 177.867C173.239 177.613 173.239 177.74 172.998 177.867C172.998 177.867 172.998 177.74 172.878 177.74C172.878 177.74 172.878 177.74 172.878 177.867C172.637 177.993 172.637 178.12 172.878 177.993C172.517 177.867 172.036 178.247 171.915 177.993C171.073 178.373 170.592 178.88 169.87 179.26C169.75 179.26 169.87 178.88 169.99 178.753L169.509 179.007C169.509 178.753 169.75 178.753 169.87 178.627C169.148 178.5 168.787 179.513 167.945 179.513V179.766H167.825C167.825 179.766 167.825 180.02 167.705 180.146C167.464 180.02 167.464 179.766 167.223 179.893C166.862 179.893 166.502 180.4 166.261 180.653C166.502 180.653 166.502 180.653 166.381 180.78C166.261 180.78 166.02 180.78 165.9 180.906V180.653C165.9 180.78 165.419 181.16 165.419 181.286C165.178 181.286 165.539 180.906 165.419 180.78C164.817 181.286 165.058 181.033 164.456 181.54C164.216 182.046 164.697 181.666 164.697 182.046C164.456 182.3 164.336 182.679 163.855 182.933H164.095C163.735 183.693 163.494 183.946 163.013 184.199C163.013 184.579 162.892 184.833 162.892 185.086C162.892 185.339 163.013 185.593 163.133 185.846C163.253 186.226 163.374 186.479 163.614 186.732C163.855 187.112 164.216 187.112 164.456 186.986C164.697 186.859 164.817 186.479 165.058 186.226C165.178 185.846 165.178 185.972 165.178 185.972C165.298 186.226 165.78 185.593 166.02 185.086C166.381 184.579 166.742 183.946 167.464 183.313L167.344 183.566Z" fill="#FF2626"/>
<path d="M178.291 198.511C180.697 198.131 181.299 198.511 183.705 197.878C184.908 197.625 186.111 197.245 187.194 196.991C187.675 196.485 188.638 196.611 189.239 196.231H189.48C189.72 196.231 189.961 196.105 190.202 196.231C190.442 196.105 190.923 196.105 191.044 195.978H191.405C191.886 195.725 192.487 195.598 193.089 195.598V195.345C194.172 195.345 194.412 194.711 195.495 194.838C196.578 193.952 197.54 194.838 198.623 193.825C198.503 193.825 198.623 193.825 198.623 193.952C199.224 193.698 199.826 193.445 199.706 193.065C200.187 193.065 200.067 193.065 200.187 193.318C200.187 193.065 200.427 192.938 200.788 192.812H200.668C200.668 192.938 201.63 192.558 201.63 192.558L201.39 192.178C201.871 192.178 201.63 192.685 202.112 192.432V192.052C202.713 191.925 203.315 192.305 204.037 192.305C206.924 191.545 209.571 189.772 212.338 189.392L212.578 189.645C212.698 190.025 213.059 188.885 213.3 189.139L213.541 188.885C213.541 188.885 213.902 188.885 213.781 189.012C214.022 189.012 214.022 188.885 214.262 188.632H214.623C215.826 188.505 216.669 187.619 217.872 186.859C218.714 186.606 219.796 185.719 220.518 184.452C221.24 183.186 221.481 181.666 221.481 180.653C221.24 177.993 221.481 174.827 220.157 172.8C220.157 172.8 220.037 172.547 219.917 172.547C219.676 171.787 219.315 171.154 218.954 170.394C218.954 170.394 218.593 169.761 217.992 168.874C217.39 168.114 216.308 167.228 215.345 166.848C214.383 166.594 213.661 166.848 213.781 167.228C213.781 167.734 214.744 168.367 215.225 170.014C215.706 170.9 215.947 171.407 216.669 171.787C216.308 172.167 217.029 172.547 216.909 172.927C217.511 173.434 217.15 174.32 217.631 174.827C217.631 174.827 217.511 174.827 217.39 174.827C217.631 175.207 217.872 175.84 217.631 175.967C218.112 177.107 218.233 178.5 218.714 179.133C219.075 179.386 218.714 179.64 218.954 180.02C219.315 180.4 218.954 181.159 218.954 181.539H218.714C218.714 181.793 218.593 181.919 218.473 182.173V181.919C219.075 182.299 218.112 182.299 218.112 182.933C217.751 183.313 218.112 184.579 217.39 184.832C217.39 185.212 217.39 184.326 217.15 184.832C217.029 184.579 217.15 184.579 217.029 184.452C216.789 184.832 216.308 184.579 215.947 184.959C215.586 185.466 214.744 185.086 214.383 185.592C213.781 186.099 213.781 185.212 213.18 185.846H212.819C212.458 185.846 212.819 186.099 212.338 186.099C212.338 185.972 211.856 186.099 211.977 185.846C211.135 185.846 210.533 186.859 209.33 186.732C209.21 187.112 208.608 187.112 208.488 187.492C208.488 187.366 207.405 187.872 207.886 187.239H208.007V186.986C207.285 186.859 207.044 187.619 206.443 187.745C206.683 187.745 206.924 187.745 206.804 187.745H206.202H205.36C205.36 187.872 205.48 188.125 205.48 188.125C204.999 188.125 204.758 187.872 204.397 188.252C204.277 188.505 204.879 188.379 204.397 188.632C203.796 188.632 202.954 188.632 202.232 188.885C202.352 189.139 202.232 189.139 201.991 189.265V189.012C201.27 189.519 201.51 188.632 200.909 189.012C200.909 188.885 200.909 189.392 200.909 189.392C200.307 190.025 200.427 189.012 199.826 189.899C200.067 189.899 200.067 190.279 199.826 190.279V190.025C199.706 190.025 199.585 190.279 199.465 190.279C199.465 190.152 199.465 190.025 199.224 190.025V189.772C199.345 189.772 198.863 190.279 198.863 190.279C198.382 190.279 197.781 190.659 197.54 190.279C197.54 190.279 196.578 190.279 196.457 190.785C196.578 190.532 196.096 190.659 196.096 190.279C195.976 190.532 195.254 190.912 194.893 190.785C193.811 190.785 193.209 191.545 192.247 191.545C192.247 191.798 191.886 191.798 192.006 192.052C191.164 192.558 190.081 191.798 189.961 192.938C189.48 193.065 189.359 192.938 189.119 192.938C188.277 193.192 188.036 193.192 187.435 193.318C187.194 193.445 187.194 193.952 186.592 193.952C186.713 193.698 186.592 193.825 186.352 193.952C186.472 193.952 186.472 193.825 186.231 193.698C186.231 193.698 186.231 193.698 186.111 193.825C185.75 193.952 185.871 193.952 186.111 193.952C185.75 193.825 185.149 194.205 185.028 193.952C184.066 194.205 183.344 194.711 182.502 195.091C182.382 194.965 182.502 194.711 182.743 194.711H182.141C182.141 194.711 182.502 194.711 182.622 194.711C181.78 194.458 181.179 195.471 180.337 195.218V195.471C180.216 195.471 180.096 195.471 180.096 195.471C180.096 195.471 179.976 195.725 179.855 195.851C179.735 195.725 179.855 195.345 179.374 195.471C179.013 195.345 178.412 195.725 178.051 195.978C178.291 195.978 178.291 195.978 178.051 196.231C177.81 196.231 177.69 196.105 177.57 196.231V195.978C177.57 196.231 176.968 196.358 176.968 196.485C176.848 196.358 177.209 196.231 177.329 196.105C176.487 196.231 176.848 196.105 176.006 196.358C175.645 196.611 176.126 196.611 176.006 196.865C175.645 196.991 175.284 197.245 174.803 197.118L175.043 197.371C174.321 197.751 173.84 197.751 173.359 197.625C170.712 199.144 170.472 199.778 170.953 200.158C171.434 200.538 172.517 200.538 172.517 200.538C174.803 200.664 175.885 199.778 178.532 199.144L178.291 198.511Z" fill="#FF2626"/>
<path d="M171.073 198.511C171.073 198.511 171.675 198.384 171.434 198.384C171.434 198.384 171.434 198.384 171.314 198.384C170.953 198.384 171.314 198.384 170.953 198.384H171.193C171.073 198.384 171.193 198.384 171.073 198.384C170.953 198.384 170.953 198.384 171.073 198.384H170.832C171.073 198.384 170.592 198.384 170.832 198.384C170.231 198.384 171.314 198.258 170.592 198.384C170.592 198.384 170.712 198.384 170.832 198.384C170.832 198.384 170.832 198.384 170.231 198.384C170.231 198.384 170.351 198.384 170.592 198.384C170.351 198.384 170.351 198.384 170.231 198.384H169.87C169.87 198.384 170.351 198.384 170.231 198.384H169.87C169.87 198.384 170.472 198.384 170.712 198.384C170.832 198.384 169.99 198.385 170.592 198.258H170.832C171.193 198.258 170.351 198.258 170.592 198.258H170.472C170.472 198.258 170.592 198.258 170.712 198.258C170.712 198.258 170.712 198.258 170.592 198.258H170.832C170.953 198.258 170.592 198.258 170.712 198.258C171.193 198.258 170.712 198.258 170.472 198.258C169.99 198.258 171.314 198.005 170.712 198.131C170.712 198.131 170.712 197.878 167.945 198.511C167.705 198.511 167.705 198.511 168.065 198.511C167.584 198.511 168.065 198.511 167.825 198.511C168.186 198.511 167.464 198.511 167.825 198.511H167.705C167.705 198.511 167.705 198.511 168.065 198.511C168.306 198.511 168.065 198.511 168.306 198.511C168.547 198.511 168.306 198.511 168.426 198.511H168.186C168.667 198.511 167.825 198.511 168.186 198.511C168.186 198.511 169.269 198.384 169.028 198.511C169.269 198.511 168.667 198.511 168.787 198.511C168.547 198.511 168.667 198.511 168.426 198.511C168.547 198.511 168.186 198.511 168.426 198.511H168.186C168.547 198.511 167.945 198.511 168.186 198.511C168.306 198.511 167.584 198.511 167.945 198.511H167.705C167.705 198.511 168.065 198.511 167.945 198.511C167.825 198.511 167.825 198.511 167.584 198.511C167.945 198.511 167.344 198.511 167.584 198.511C167.945 198.511 167.705 198.511 167.945 198.511C167.825 198.511 167.945 198.511 167.584 198.511H167.344C166.983 198.511 167.584 198.511 167.464 198.511C167.464 198.511 167.464 198.511 167.705 198.511H167.584H167.825C167.825 198.511 167.344 198.511 167.705 198.511C167.825 198.511 167.945 198.511 168.065 198.511C167.945 198.511 167.705 198.511 167.705 198.511C167.945 198.511 167.945 198.511 167.945 198.511H167.705C167.945 198.511 167.223 198.638 167.464 198.511H167.344H167.825C168.186 198.511 167.344 198.511 167.945 198.511C167.945 198.511 168.426 198.511 168.306 198.511H168.065H167.825H167.584H167.945C167.705 198.511 167.945 198.511 167.705 198.511C167.705 198.511 167.584 198.511 167.825 198.511C167.584 198.511 167.584 198.511 167.344 198.511C167.584 198.511 167.705 198.511 167.464 198.511C167.825 198.511 167.223 198.511 167.464 198.511C167.705 198.511 167.464 198.511 167.825 198.511C168.186 198.511 167.223 198.638 168.186 198.511H167.945H168.426C168.306 198.511 168.306 198.511 168.306 198.511C168.306 198.511 168.306 198.511 168.065 198.511C168.065 198.511 168.065 198.511 168.186 198.511C167.945 198.511 168.186 198.511 167.945 198.511C167.945 198.511 168.306 198.511 168.426 198.511C168.306 198.511 168.186 198.511 168.065 198.511C167.825 198.511 167.945 198.511 167.945 198.511C168.306 198.511 167.584 198.511 167.945 198.511H168.065H168.306C168.065 198.511 167.825 198.511 167.825 198.511C167.584 198.511 167.825 198.511 168.065 198.511C168.065 198.511 168.186 198.511 168.306 198.511H168.065C168.306 198.511 168.306 198.511 168.426 198.511C168.186 198.511 168.306 198.511 168.065 198.511C168.306 198.511 168.306 198.511 168.547 198.511H168.787C169.028 198.511 168.908 198.511 168.787 198.511C170.712 198.258 171.314 198.005 171.314 198.005C171.795 197.878 171.193 198.005 170.953 198.005L171.073 198.511Z" fill="#FF2626"/>
<path d="M55.3401 192.558V192.178C55.2198 192.178 55.2198 192.305 55.3401 192.558Z" fill="#FF2626"/>
<path d="M60.2726 193.572C59.9117 193.192 59.6711 192.812 59.3101 192.558C59.0695 192.178 58.8289 191.925 58.5883 191.545C58.1071 190.912 57.8665 190.279 57.5056 189.772C56.9041 188.632 56.3025 187.365 55.3401 185.466C54.6183 183.566 54.0168 181.413 53.7761 179.386C53.2949 178.5 53.6558 176.727 53.4152 175.587L53.6558 175.207C53.6558 174.827 53.5355 174.32 53.6558 173.94C53.6558 173.307 53.6558 172.674 53.6558 172.42C53.6558 172.167 53.6558 171.914 53.6558 171.787C53.6558 171.407 53.6558 170.9 53.7761 170.394C53.7761 169.887 54.0167 169.381 54.1371 168.874H53.8964C54.7386 166.974 54.498 166.088 55.4604 164.441C55.8213 162.035 57.3853 161.275 57.9868 158.868C57.9868 159.122 58.1071 158.868 58.2274 158.868C58.7086 157.855 59.3102 156.842 58.9492 156.462C59.4305 155.829 59.4305 155.955 59.6711 155.955C59.5508 155.955 59.7914 155.195 60.1523 154.689V154.942L60.9944 153.422H60.5132C61.235 152.789 60.9944 153.549 61.4756 152.789L61.235 152.536C62.0772 151.522 63.0396 151.142 64.002 150.382C67.4909 146.33 71.1 141.517 75.1904 138.35H75.5513C75.9122 138.604 76.1528 136.957 76.5137 137.084L76.8746 136.577C76.9949 136.577 77.3558 136.324 77.2355 136.577C77.5964 136.197 77.5964 136.197 77.8371 135.817L78.4386 135.564C80.1228 134.171 81.0853 132.524 82.7695 130.878C83.8523 129.991 85.2959 128.471 86.499 126.825C87.1005 125.938 87.702 125.178 88.3036 124.292C88.9051 123.405 89.3863 122.645 89.7472 121.759C90.2284 120.619 90.7096 119.479 90.9503 118.086C91.1909 116.693 90.9502 115.046 90.469 113.779C89.8675 112.513 89.1457 111.373 88.3036 110.486C87.4614 109.6 86.6193 108.84 85.7772 108.207C85.7772 108.08 85.2959 107.953 85.2959 107.953C84.3335 107.067 83.2508 106.18 82.2883 105.294C82.2883 105.294 81.3259 104.534 80.0025 103.647C78.6792 102.761 76.9949 101.747 75.6716 101.114C74.3482 100.481 73.2655 100.227 73.2655 100.734C73.2655 101.241 74.4685 102.381 76.9949 105.04H76.8746C78.5589 106.434 79.5213 107.193 80.8447 107.827C80.8447 108.333 82.168 108.967 82.4086 109.473C83.6117 109.98 84.2132 111.5 85.2959 112.133C85.2959 112.133 85.1756 112.133 84.935 112.133C85.6569 112.766 86.499 113.526 86.3787 113.779C87.1005 114.539 87.702 115.426 88.0629 116.186C88.4239 116.946 88.4239 117.706 88.5442 118.339C88.6645 118.972 88.4239 119.099 88.1833 119.859C88.1833 120.745 86.9802 121.885 86.7396 122.519H86.6193C86.2584 122.899 85.8975 123.405 85.5365 123.785L86.0178 123.279C86.2584 123.785 84.935 124.038 84.3335 125.305C83.4914 126.192 83.4914 127.838 82.5289 128.598C82.2883 129.231 82.5289 127.965 82.168 128.598C81.9274 128.471 82.2883 128.218 82.0477 128.218C81.5665 128.978 80.8447 129.105 80.2431 129.991H80.1228C79.401 131.131 78.0777 131.511 77.7167 132.524C76.8746 133.664 76.634 132.778 75.7919 134.044L75.1904 134.297C74.7091 134.677 75.1904 134.931 74.4685 135.311C74.4685 135.184 73.7467 135.817 73.867 135.311C72.5437 136.197 71.8218 137.844 70.0173 138.984C70.0173 139.617 69.0548 140.124 68.9345 140.63C68.8142 140.63 67.3706 142.15 67.9721 141.01C67.9721 141.01 68.2127 140.757 68.2127 140.883V140.63C67.0096 141.263 66.769 142.403 65.9269 143.163C66.1675 142.91 66.5284 142.53 66.4081 142.91L65.566 143.67V143.417L64.3629 144.556H64.7239C64.1223 145.063 63.6411 145.063 63.2802 145.95C63.1599 146.33 64.002 145.57 63.5208 146.33C62.6787 147.089 61.4756 148.229 60.5132 149.243C60.7538 149.243 60.5132 149.623 60.3929 149.876H60.1523C59.4305 151.142 59.4305 149.876 58.7086 151.269V151.016V151.649C58.2274 153.042 57.9868 152.029 57.5056 153.549C57.8665 153.042 57.9868 153.549 57.5056 154.182V153.929C57.265 154.309 57.265 154.435 57.0244 154.689C57.0244 154.435 56.9041 154.435 56.5431 154.942V154.435C56.5431 154.815 56.3025 155.195 56.3025 155.575C55.701 156.209 55.2198 157.602 54.7386 157.728C54.7386 157.728 53.6558 159.375 53.7761 159.882C53.7761 159.502 53.2949 160.388 53.1746 159.882C53.1746 160.388 52.6934 161.781 52.3325 162.288C51.2497 164.061 51.2497 165.834 50.5279 167.607C50.7685 167.607 50.4076 168.621 50.7685 168.367C50.5279 170.394 49.4452 171.914 50.2873 172.8C50.2873 173.687 49.9264 173.813 49.8061 174.32V174.067C49.8061 175.84 49.8061 176.347 49.8061 177.613C49.8061 178.246 50.4076 178.373 50.4076 179.513C50.167 179.133 50.2873 179.513 50.4076 180.02C50.4076 179.766 50.2873 179.64 50.167 180.273C50.167 180.273 50.167 180.526 50.2873 180.526C50.5279 181.286 50.5279 181.033 50.5279 180.779C50.5279 180.779 50.5279 180.779 50.5279 180.653C50.5279 181.413 50.8888 182.679 50.6482 182.806C51.0091 183.819 51.2497 184.706 51.731 185.466C51.9716 185.846 52.0919 186.226 52.3325 186.606C52.5731 186.986 52.8137 187.365 52.934 187.745C52.934 187.999 52.5731 187.745 52.3325 187.239L52.934 188.379C52.6934 188.379 52.4528 187.745 52.3325 187.492C52.4528 188.252 52.8137 189.012 53.4152 189.645C53.8964 190.279 54.3777 191.038 54.7386 191.798L55.0995 192.052C55.0995 192.052 55.4604 192.305 55.701 192.558C55.701 192.938 55.3401 192.812 55.9416 193.572C56.0619 193.951 56.4228 194.331 56.7838 194.585C57.1447 194.965 57.6259 195.218 57.9868 195.471C57.6259 195.091 57.8665 195.091 57.9868 195.218C58.3477 195.471 58.3477 195.851 58.5883 195.978V196.231C58.5883 195.978 59.4305 196.738 59.6711 196.738C59.6711 197.118 59.0695 196.485 58.8289 196.485C60.1523 197.624 59.4305 197.118 60.8741 198.004C61.7162 198.384 60.8741 197.624 61.3553 197.751C62.0772 198.258 62.799 198.384 63.5208 198.891V198.511C64.002 198.764 64.6036 198.891 65.0848 199.144C65.566 199.398 65.9269 199.524 66.4081 199.778C67.7315 199.904 68.8142 199.778 69.6563 199.651C70.4985 199.398 70.9797 199.271 71.3406 199.018C71.9421 198.638 71.9421 198.384 71.5812 198.131C71.2203 197.878 70.6188 197.751 70.0173 197.624C69.7766 197.624 69.536 197.624 69.2954 197.498C69.1751 197.498 69.0548 197.498 69.0548 197.498C67.2503 196.991 66.0472 196.611 64.6036 196.105C63.2802 195.598 61.7162 194.838 60.032 193.318L60.2726 193.572Z" fill="#FF2626"/>
<path d="M75.1904 188.632C74.3482 187.619 73.9873 186.732 73.6264 185.972C73.2655 185.212 72.7843 184.452 72.1827 183.186C71.5812 182.046 70.9797 180.779 70.6188 179.513C70.1376 179.006 70.1376 177.866 69.7766 177.233V176.853C69.7766 176.6 69.7766 176.347 69.7766 176.093C69.536 175.713 69.6563 175.333 69.536 175.08V174.573C69.2954 173.94 69.2954 173.307 69.2954 172.674H69.0548C69.2954 171.407 68.8142 170.9 69.2954 169.761C68.8142 168.241 70.0173 167.481 69.7766 165.961C69.7766 166.214 69.897 165.961 70.0173 165.961C70.1376 165.201 70.3782 164.568 69.8969 164.314C70.0173 163.808 70.1376 163.934 70.3782 163.934C70.1376 163.934 70.2579 163.428 70.3782 163.048V163.301C70.4985 162.921 70.6188 162.541 70.7391 162.161H70.2579C70.6188 161.655 70.7391 162.161 70.9797 161.655H70.7391C71.1 160.768 71.8218 160.515 72.4233 160.008C74.2279 157.222 76.0325 153.802 78.7995 151.902H79.0401C79.2807 152.156 79.2807 150.889 79.6416 151.142V150.762C79.8822 150.762 80.1228 150.636 80.0025 150.762C80.2431 150.509 80.2431 150.509 80.3635 150.256H80.8447C81.9274 149.243 82.5289 148.103 83.6117 147.089C84.4538 146.583 85.2959 145.696 86.1381 144.556C86.9802 143.416 87.702 142.277 88.1833 141.263C88.7848 139.87 89.7472 138.73 90.5893 137.337C91.4315 136.071 92.2736 134.551 92.3939 132.904V132.524C92.6345 131.638 92.7548 130.624 92.8751 129.738C92.8751 129.738 92.8751 129.485 92.8751 129.105C92.8751 128.725 92.8751 128.218 92.8751 127.711C92.8751 126.571 92.5142 125.178 92.1533 124.165C91.6721 123.152 91.1909 122.645 90.8299 122.899C90.469 123.278 90.469 124.418 89.9878 126.698C89.9878 127.965 89.8675 128.725 90.1081 129.611C89.6269 129.611 89.9878 130.624 89.7472 131.004C89.9878 131.891 89.0254 132.524 89.1457 133.284C89.1457 133.284 89.0254 133.284 89.1457 133.031C89.0254 133.537 88.9051 134.297 88.5442 134.297C88.1832 135.564 87.1005 137.21 87.1005 138.224C87.1005 138.73 86.7396 138.73 86.6193 139.237C86.6193 139.87 85.7772 140.63 85.5365 141.01H85.4162C85.1756 141.263 85.0553 141.517 84.8147 141.77L85.0553 141.517C85.2959 142.023 84.3335 141.897 83.9726 142.783C83.4914 143.29 83.732 144.683 83.0101 145.063C83.0101 145.57 83.0101 144.556 82.6492 145.063C82.4086 144.936 82.6492 144.81 82.4086 144.683C82.168 145.19 81.5665 145.19 81.2056 145.696H81.0853C80.7244 146.456 79.7619 146.583 79.5213 147.216C79.0401 147.976 78.6792 147.216 78.3183 148.229H77.837C77.4761 148.483 77.8371 148.736 77.4761 148.989C77.4761 148.863 76.9949 149.243 76.9949 148.989C76.0325 149.496 75.7919 150.762 74.4685 151.522C74.4685 152.029 73.867 152.409 73.9873 152.789C73.867 152.789 73.0249 153.929 73.2655 153.042C73.2655 153.042 73.2655 152.916 73.3858 153.042V152.789C72.4233 153.169 72.5437 154.055 71.9421 154.689C72.1827 154.562 72.303 154.309 72.303 154.562L71.8218 155.195V154.942C71.5812 155.195 71.3406 155.449 70.9797 155.829H71.2203C70.8594 156.209 70.3782 156.209 70.2579 156.842C70.2579 157.222 70.7391 156.589 70.4985 157.095C70.0173 157.602 69.1751 158.488 68.6939 159.248C68.9345 159.248 68.8142 159.502 68.6939 159.755H68.4533C68.2127 160.768 67.8518 159.755 67.6112 160.895C67.6112 160.768 67.8518 161.148 67.8518 161.148C67.8518 162.161 67.2503 161.401 67.3706 162.668C67.3706 162.288 67.8518 162.668 67.6112 163.048V162.795C67.3706 163.048 67.4909 163.175 67.3706 163.301C67.3706 163.048 67.1299 163.175 67.0096 163.554V163.175C67.0096 163.428 67.0096 163.681 67.0096 164.061C66.6487 164.568 66.6487 165.581 66.2878 165.708C66.2878 165.708 66.2878 165.961 66.0472 166.341C66.0472 166.721 66.0472 167.101 66.0472 167.227C65.9269 166.974 65.6863 167.607 65.566 167.354C65.6863 167.734 65.8066 168.747 65.566 169.127C65.2051 170.52 65.566 171.534 65.4457 172.8C65.6863 172.8 65.4457 173.434 65.9269 173.307C66.2878 174.573 65.4457 175.84 66.5284 176.22C66.6487 176.853 66.5284 176.98 66.5284 177.233C66.769 178.246 66.8893 178.5 67.0096 179.386C67.2503 179.766 67.6112 179.766 67.7315 180.399C67.4909 180.273 67.7315 180.399 67.7315 180.779C67.7315 180.653 67.6112 180.526 67.6112 181.033C67.6112 181.033 67.7315 181.033 67.7315 181.159C67.9721 181.539 67.9721 181.539 67.9721 181.159C67.9721 181.666 68.4533 182.426 68.2127 182.553C68.8142 183.819 69.536 184.579 70.1376 185.466C70.1376 185.719 69.7766 185.466 69.6563 185.212L70.1376 185.846C69.897 185.846 69.7766 185.466 69.6563 185.339C69.7766 186.352 70.9797 186.859 71.3406 187.999H71.5812V188.125C71.5812 188.125 71.9421 188.125 72.0624 188.252C72.0624 188.505 71.7015 188.505 72.0624 189.012C72.1827 189.519 72.9046 189.899 73.3858 190.278C73.2655 190.025 73.3858 190.025 73.3858 190.025C73.6264 190.279 73.5061 190.532 73.7467 190.532V190.785C73.7467 190.532 74.2279 191.165 74.4685 191.165C74.4685 191.418 74.1076 191.038 73.867 191.038C74.7091 191.798 74.2279 191.418 75.07 192.178C75.6716 192.432 75.07 191.925 75.5513 191.925C75.9122 192.305 76.5137 192.432 76.7543 192.938V192.685C77.5964 193.192 78.0777 193.445 78.4386 194.078C80.1228 194.711 81.2056 194.711 81.6868 194.585C82.2883 194.585 82.2883 194.205 82.168 193.951C82.168 193.698 81.6868 193.318 81.4462 193.065C81.2056 192.812 80.965 192.558 80.965 192.558C80.0025 191.672 79.2807 191.165 78.4386 190.658C77.5964 190.152 76.634 189.519 75.5513 188.505L75.1904 188.632Z" fill="#FF2626"/>
<path d="M97.0858 228.275C94.5594 227.261 93.9579 226.502 91.1909 225.868C89.8675 225.488 88.4239 225.235 87.1005 224.982C86.3787 225.235 85.4163 224.602 84.5741 224.855L84.3335 224.602C84.0929 224.602 83.732 224.602 83.4914 224.602C83.1305 224.602 82.6493 224.602 82.4086 224.602H81.9274C81.2056 224.602 80.4838 224.602 79.8823 224.475V224.728C78.5589 224.348 78.0777 224.855 76.8746 224.602C75.431 225.235 74.4685 224.222 72.9046 224.982C73.1452 224.982 72.9046 224.982 72.9046 224.855C72.1828 224.982 71.4609 225.235 71.4609 225.742C70.9797 225.742 70.9797 225.742 70.8594 225.488C70.8594 225.742 70.4985 225.868 70.0173 225.995H70.1376C69.7767 225.995 69.4158 225.995 69.0548 226.248L69.4158 226.628C68.8142 226.628 69.1751 226.122 68.5736 226.375V226.755C67.8518 226.882 67.2503 226.502 66.2878 226.502C64.6036 227.008 62.9193 227.895 61.4756 228.908C59.9117 229.921 58.5883 230.934 57.0244 231.821H56.7838C56.5432 231.441 56.4229 232.708 56.0619 232.581L55.8213 232.961C55.701 232.961 55.4604 233.088 55.5807 232.961C55.3401 233.214 55.3401 233.214 55.2198 233.594H54.7386C53.6559 234.734 53.1746 236.127 52.4528 237.774C51.8513 238.66 51.6107 240.56 52.2122 242.207C52.8137 243.853 54.0168 244.993 54.9792 245.626C56.3026 246.386 57.5056 247.273 58.829 248.033C60.1523 248.793 61.596 249.299 62.799 249.299H63.1599L65.4457 249.933C65.4457 249.933 76.5137 252.972 68.8142 247.779C67.6112 247.146 66.7691 246.893 65.9269 247.146C65.9269 246.64 64.9645 246.766 64.6036 246.64C63.7614 246.766 63.1599 245.88 62.3178 246.006C62.3178 246.006 62.3178 245.88 62.5584 245.88C61.9569 245.88 61.235 245.753 61.3553 245.373C60.1523 245.12 58.5883 244.36 57.7462 244.36C57.265 244.36 57.265 244.106 56.7838 243.98C56.1822 243.98 55.8213 243.093 55.4604 242.967H55.5807C55.4604 242.587 55.2198 242.333 55.0995 242.207V242.46C54.9792 242.46 54.9792 242.46 54.9792 242.08C54.9792 241.827 54.9792 241.573 54.8589 241.32C54.8589 241.067 54.498 240.813 54.2574 240.433C54.0168 240.054 53.8965 239.674 54.0168 239.42C53.8965 239.04 54.3777 239.8 54.2574 239.294C54.498 239.294 54.2574 239.547 54.6183 239.547C54.6183 239.04 55.0995 238.914 55.2198 238.407H55.4604C55.4604 237.647 56.4229 237.52 56.4229 236.887C56.7838 236.127 57.265 236.887 57.5056 236.001H57.9868C58.2274 235.747 57.9868 235.494 58.3477 235.367C58.3477 235.494 58.8289 235.114 58.7086 235.367C59.5508 234.987 59.9117 233.847 61.1147 233.594C61.1147 233.088 61.7163 232.961 61.8366 232.708C61.8366 232.708 62.9193 232.074 62.4381 232.708H62.3178V232.961C63.1599 232.961 63.2802 232.201 64.002 231.948C63.7614 231.948 63.5208 232.074 63.6411 231.948L64.2427 231.694V231.948C64.4833 231.948 64.8442 231.821 65.0848 231.694H64.8442C65.3254 231.441 65.566 231.694 65.9269 231.314C66.0472 231.061 65.4457 231.188 65.9269 230.934C66.5284 230.934 67.4909 230.808 68.2127 230.681C68.0924 230.428 68.2127 230.428 68.4533 230.301V230.554C69.2954 230.048 68.9345 230.934 69.6564 230.554C69.6564 230.681 69.6564 230.175 69.6564 230.175C70.2579 229.541 70.1376 230.554 70.8594 229.795C70.4985 229.795 70.6188 229.288 70.9797 229.415V229.668C71.1 229.668 71.2203 229.415 71.3406 229.541C71.3406 229.668 71.3406 229.921 71.5812 229.795V230.048C71.4609 230.048 71.9421 229.541 71.9421 229.541C72.4234 229.668 73.1452 229.288 73.3858 229.541C73.3858 229.541 74.4685 229.541 74.5888 229.288C74.3482 229.541 74.9498 229.541 74.8295 229.795C75.0701 229.541 75.9122 229.288 76.1528 229.541C77.3559 229.795 78.198 229.161 79.1604 229.541C79.1604 229.288 79.6416 229.541 79.5213 229.161C80.6041 228.908 81.4462 230.048 81.9274 229.161C82.4086 229.161 82.529 229.415 82.7696 229.541H82.6493C83.6117 229.541 83.8523 229.668 84.5741 229.795C84.935 229.795 85.0553 229.288 85.6569 229.541C85.4163 229.668 85.6569 229.668 85.8975 229.795C85.7772 229.795 85.6569 229.795 85.8975 230.048C85.8975 230.048 86.0178 230.048 86.1381 230.048C86.499 230.048 86.499 230.048 86.2584 230.048C86.2584 230.048 86.2584 230.048 86.2584 229.921C86.6193 230.301 87.3411 230.175 87.3411 230.428C88.5442 230.681 89.3863 230.428 90.3487 230.681C90.3487 230.808 90.1081 230.934 89.8675 230.934H90.5894C90.5894 231.314 90.1081 231.061 89.9878 231.061C90.7097 231.694 91.7924 231.188 92.6345 231.821H92.8751C92.8751 231.821 93.1158 231.694 93.3564 231.694C93.3564 231.948 93.2361 232.201 93.7173 232.328C94.0782 232.708 94.8 232.581 95.2812 232.708C95.0406 232.581 95.1609 232.454 95.2812 232.454C95.5218 232.454 95.5218 232.834 95.7625 232.708V232.961C95.7625 232.708 96.364 232.961 96.4843 232.961C96.4843 233.214 96.1234 232.961 96.0031 233.088C96.9655 233.468 96.4843 233.214 97.4467 233.594C98.0482 233.594 97.4467 233.341 97.8076 233.214C98.2889 233.214 98.7701 233.214 99.131 233.721V233.468C99.9731 233.594 100.454 233.847 100.815 234.354C104.184 234.734 104.785 234.354 104.545 233.721C104.304 233.088 103.101 232.454 103.101 232.454C100.936 230.934 99.3716 230.934 96.364 230.048L97.0858 228.275Z" fill="#FF2626"/>
<path d="M101.898 233.594C101.898 233.721 101.537 234.101 101.898 234.101C101.898 234.101 102.018 234.101 102.139 234.101C102.379 233.848 102.139 234.101 102.499 234.101H102.379C102.379 234.101 102.499 234.101 102.379 234.228C102.499 234.228 102.379 234.228 102.499 234.228C102.62 234.228 102.62 234.228 102.62 234.228H102.86C103.101 233.974 102.74 234.228 102.86 234.228C103.342 233.848 102.62 234.608 103.101 234.228C103.101 234.228 103.101 234.228 102.981 234.354C102.981 234.354 103.101 234.354 103.462 233.974C103.462 233.974 103.462 233.974 103.221 234.228C103.342 234.101 103.462 234.101 103.462 234.101L103.703 233.848C103.703 233.848 103.342 234.228 103.462 234.101L103.703 233.848C103.703 233.848 103.342 234.228 103.101 234.481C103.101 234.734 103.823 234.228 103.462 234.734H103.221C102.981 235.114 103.703 234.608 103.462 234.734H103.582C103.582 234.734 103.582 234.734 103.462 234.734C103.462 234.734 103.462 234.734 103.582 234.734H103.462C103.462 235.114 103.703 234.734 103.703 234.988C103.462 235.368 103.703 235.241 104.063 234.988C104.545 234.734 103.582 235.748 104.063 235.494C104.063 235.494 104.304 236.127 106.349 233.721C106.349 233.468 106.349 233.468 106.109 233.721C106.47 233.341 106.109 233.721 106.109 233.468C106.349 233.214 105.748 233.721 106.109 233.468H106.229C106.229 233.468 106.109 233.468 106.229 233.341C106.229 233.341 106.229 233.214 105.748 233.341C105.507 233.468 105.748 233.341 105.507 233.341C105.267 233.468 105.507 233.341 105.267 233.341H105.387C105.387 233.214 105.387 233.214 105.387 233.214C105.627 232.961 105.026 233.594 105.387 233.214C105.387 233.214 104.545 233.848 104.665 233.721C104.424 233.848 105.026 233.468 104.785 233.594C105.026 233.468 104.906 233.594 105.026 233.341H105.146C104.785 233.341 105.267 232.961 105.026 233.214C104.906 233.214 105.507 232.708 105.026 232.961L105.267 232.708C105.267 232.708 105.026 232.961 105.026 232.708C105.146 232.708 105.026 232.708 105.267 232.455C105.507 232.201 104.906 232.708 105.267 232.328C105.026 232.581 105.146 232.328 104.906 232.581C104.906 232.581 104.906 232.581 105.146 232.328H105.267C105.507 231.948 105.026 232.328 105.146 232.328C105.146 232.328 105.146 232.328 105.026 232.455L105.146 232.328H105.026C105.026 232.328 105.387 231.948 105.026 232.201C104.906 232.201 104.785 232.455 104.785 232.455C104.785 232.455 105.026 232.201 105.026 232.075C104.785 232.201 104.785 232.201 104.785 232.201H104.906C104.665 232.201 105.267 231.695 105.026 231.821L104.665 232.075C104.304 232.328 105.026 231.821 104.545 232.075C104.545 232.075 104.184 232.455 104.304 232.328H104.424C104.424 232.328 104.665 232.075 104.665 232.201H104.906C104.906 232.075 104.545 232.201 104.545 232.201C104.665 232.075 104.545 232.201 104.665 231.948C104.665 231.948 104.665 231.821 104.545 231.948C104.665 231.948 104.785 231.695 104.906 231.568C104.785 231.695 104.545 231.821 104.785 231.568C104.906 231.315 104.424 231.695 104.665 231.568C104.424 231.695 104.665 231.568 104.304 231.821C104.063 231.948 104.665 231.315 103.943 231.948C103.943 231.948 104.063 231.821 104.184 231.695C104.184 231.695 103.703 232.075 103.823 231.948C103.823 231.948 103.823 231.948 103.943 231.821C104.063 231.695 103.943 231.821 104.184 231.568C104.184 231.568 103.823 231.695 103.703 231.821L103.943 231.568C104.063 231.441 103.943 231.568 104.063 231.568C104.304 231.315 103.703 231.695 104.063 231.568H103.943C103.943 231.568 103.823 231.695 103.703 231.695C103.823 231.568 104.063 231.441 104.063 231.315C104.184 231.188 104.063 231.315 103.823 231.315C103.823 231.315 103.823 231.315 103.703 231.441H103.943C103.703 231.441 103.703 231.441 103.582 231.441C103.703 231.315 103.703 231.441 103.823 231.188C103.703 231.188 103.582 231.315 103.462 231.568H103.342C103.221 231.821 103.221 231.821 103.342 231.568C101.657 232.581 101.296 233.341 101.296 233.341C100.936 233.848 101.537 233.341 101.778 233.341L101.898 233.594Z" fill="#FF2626"/>
<path d="M70.1375 232.581C69.2954 232.834 68.8142 232.961 68.2127 233.341C67.6111 233.721 67.0096 234.354 66.6487 235.621C66.2878 236.761 66.5284 238.154 67.1299 239.167C67.6111 239.547 67.9721 240.307 68.4533 240.434V240.687C68.6939 240.687 68.8142 240.687 68.9345 240.94C69.1751 240.94 69.4157 241.194 69.536 241.194L69.7766 241.32C70.1375 241.32 70.4984 241.573 70.8594 241.7V241.447C71.4609 241.953 71.8218 241.447 72.303 241.953C72.7842 241.827 73.0248 241.953 73.2655 242.08C73.5061 242.207 73.867 242.46 74.2279 242.08C74.2279 242.08 74.2279 242.207 74.2279 242.333C74.5888 242.333 74.8294 242.333 74.9497 241.827C75.1903 241.827 75.07 241.953 75.07 242.207C75.07 241.953 75.3106 241.953 75.4309 241.953H75.9121V241.573C76.1528 241.7 75.9121 242.08 76.1528 241.953V241.573C76.5137 241.573 76.7543 242.207 76.9949 242.46C78.4385 242.713 80.1228 242.207 82.0477 242.46V242.713C82.4086 243.093 82.5289 241.953 82.7695 242.333C82.7695 242.333 82.7695 242.207 82.8898 242.08C82.8898 242.08 83.1304 242.08 83.0101 242.207C83.2507 242.207 83.2507 242.08 83.2507 241.827H83.6116C84.4538 241.447 84.6944 240.307 85.0553 239.42C85.4162 238.914 85.5365 237.901 85.2959 237.141C85.0553 236.381 84.5741 235.747 84.2132 235.241C83.6116 234.734 83.2507 233.974 82.6492 233.341C82.0477 232.708 81.3259 232.201 80.604 232.328C80.604 232.328 80.4837 232.328 80.3634 232.328C80.0025 232.328 79.5213 232.074 79.1604 232.074C79.1604 232.074 78.7995 232.074 78.3182 232.074C77.837 232.074 77.3558 232.074 76.8746 232.328C76.0325 232.708 75.7918 233.468 77.7167 234.987C78.1979 235.241 78.5588 235.367 78.9198 234.987C78.9198 235.494 79.2807 234.987 79.401 235.241C79.7619 234.987 79.8822 235.747 80.2431 235.494C80.2431 235.494 80.2431 235.621 80.1228 235.621C80.3634 235.621 80.604 235.621 80.4837 235.874C80.7243 235.874 80.9649 236.127 81.0852 236.127C81.2056 236.127 81.4462 236.254 81.6868 236.127C82.0477 236.127 81.8071 236.254 82.0477 236.381C82.4086 236.381 82.4086 236.761 82.5289 236.887H82.4086C82.4086 237.014 82.4086 237.141 82.5289 237.267C83.0101 237.014 82.2883 237.521 82.6492 237.647C82.6492 237.647 82.8898 237.774 83.1304 238.027C83.371 238.154 83.6116 238.28 83.4913 238.534C83.7319 238.66 83.1304 238.407 83.2507 238.534C83.0101 238.534 83.1304 238.534 82.8898 238.534C82.8898 238.787 82.5289 238.66 82.6492 238.914H82.4086C82.5289 238.914 82.4086 239.04 82.4086 239.04C82.4086 239.04 82.168 239.04 82.2883 239.294C82.2883 239.547 81.8071 238.914 81.9274 239.294C81.9274 239.294 81.8071 239.167 81.6868 239.04C81.6868 239.04 81.6868 239.42 81.6868 239.294C81.6868 239.167 81.5665 239.294 81.5665 239.04C81.3259 238.787 81.0852 239.547 80.604 239.04C80.604 239.42 80.2431 239.167 80.2431 239.42C80.2431 239.294 79.7619 239.42 80.0025 239.04V238.787C79.7619 238.407 79.5213 239.04 79.2807 238.787C79.2807 238.787 79.5213 238.787 79.2807 239.04H79.0401V238.787H78.6792C78.4385 238.66 78.4385 238.28 78.1979 238.534C78.0776 238.66 78.3182 238.914 78.1979 238.914C77.9573 238.787 77.4761 238.407 77.1152 238.28C77.1152 238.534 77.1152 238.534 76.8746 238.534V238.28C76.5137 238.534 76.8746 237.774 76.3934 238.027C76.3934 237.901 76.2731 238.28 76.2731 238.28C75.9122 238.66 76.1528 237.774 75.6715 238.28C75.7918 238.28 75.6715 238.787 75.5512 238.66V238.407C75.5512 238.407 75.5512 238.407 75.4309 238.407V238.154V237.901C75.5512 237.901 75.1903 238.28 75.1903 238.28C74.9497 238.027 74.5888 238.28 74.5888 238.027C74.5888 238.027 74.2279 237.774 74.1076 238.027C74.1076 237.901 74.1076 237.774 74.1076 237.521C73.9873 237.774 73.6264 237.901 73.5061 237.521C73.1451 237.141 72.6639 237.521 72.4233 237.141C72.4233 237.394 72.1827 237.141 72.1827 237.521C71.7015 237.521 71.8218 236.634 71.2203 237.521C70.9797 237.521 71.2203 237.267 71.2203 237.141C70.9797 237.014 70.8594 237.014 70.8594 236.761C70.8594 236.761 70.3781 237.014 70.3781 236.761C70.4984 236.761 70.4984 236.761 70.3781 236.634C70.3781 236.634 70.3781 236.634 70.4984 236.634H70.3781C70.4984 236.507 70.3781 236.381 70.6188 236.254C70.6188 236.001 70.2578 235.747 70.2578 235.367C70.3781 235.367 70.4984 235.494 70.4984 235.621C70.4984 235.621 70.4984 235.621 70.4984 235.494C70.7391 235.494 70.4984 235.621 70.4984 235.747C70.7391 235.747 70.6187 235.747 70.4984 235.494C70.4984 235.494 70.4984 235.241 70.7391 235.241C70.7391 235.114 70.7391 235.114 70.7391 235.114V234.861C70.8594 234.987 70.9797 235.241 71.1 235.114C71.3406 235.114 71.3406 234.861 71.4609 234.734C71.4609 234.734 71.4609 234.734 71.4609 234.481C71.4609 234.481 71.7015 234.608 71.7015 234.481V234.734C71.7015 234.481 71.9421 234.354 71.9421 234.228C71.9421 234.354 71.9421 234.481 71.9421 234.608C72.303 234.608 72.0624 234.608 72.4233 234.481C72.5436 234.228 72.4233 234.228 72.4233 233.974C72.5436 233.974 72.7842 233.721 73.0248 233.848V233.594C73.2655 233.341 73.5061 233.341 73.7467 233.594C74.4685 233.088 74.9497 232.708 75.1903 232.328C75.4309 231.948 75.4309 231.694 75.3106 231.441C75.07 230.935 74.4685 230.808 74.4685 230.808C73.7467 230.555 73.2655 230.555 72.6639 230.808C72.0624 231.061 71.5812 231.315 70.7391 231.694L70.1375 232.581Z" fill="#FF2626"/>
</svg>
