<svg width="197" height="212" viewBox="0 0 197 212" fill="none" xmlns="http://www.w3.org/2000/svg">
<path d="M128.7 96.3L128.9 97C128.9 97 128.9 96.8 128.7 96.3Z" fill="#FF2626"/>
<path d="M123.2 89.4001C124.9 93.8001 125.9 96.5001 127 99.4001C127.5 100.8 128 102.2 128.8 103.9C129.5 105.5 130.4 107.6 132.5 109.6C133.5 110.6 134.7 111.4 135.9 112C137.2 112.6 138.6 112.8 139.9 112.9C142.6 113.1 145.1 112.6 147.4 112C149.5 111.2 153.2 110.1 155.5 109L156.5 108.8C157.3 108.4 158.2 107.9 159.1 107.7C160.3 107.1 161.7 106.6 162.2 106.2C162.7 106 163.2 105.8 163.6 105.5L163.4 105.7C165.4 104.5 167.5 103.2 169.3 102H169C170.9 100.7 172.1 99.5001 173.1 98.4001C173.6 97.8001 174.1 97.2001 174.6 96.6001C174.8 96.3001 175.1 95.9001 175.4 95.6001C175.7 95.2001 175.9 94.8001 176.2 94.4001C177.3 92.0001 178.2 90.1001 178.6 87.9001C178.8 86.8001 178.9 85.7001 178.8 84.4001C178.7 83.2001 178.3 81.9 177.5 80.6C177.9 81.2 177.5 80.3001 177.5 80.3001C176.3 77.9001 174.4 76 174.1 76.2C172.9 74.9 173.2 75.0001 173.2 74.8001C173.1 74.9001 172 73.9001 171 72.9001L171.5 73.3001L168.8 70.5L169.1 71.3001C167.8 69.7001 169.1 70.6 167.6 69.2L167.4 69.4001C165.5 67.3001 164.6 65.8 162.9 63.6C159 59.3 154.8 55.1 150.7 50.8C149.7 49.7 148.7 48.7 147.7 47.6C146.7 46.6 145.6 45.4 144 44.6C142.4 43.9 140.6 43.9001 139.1 44.2001C137.6 44.6001 136.2 45.2 135 45.8H134.5C134.1 45.8 132.2 47.8 131.7 47.8L130.7 48.6C130.4 48.7 129.7 49.1 130.2 48.6C129.2 49.2 129.2 49.3 128.5 49.8L127.3 50.3C123.3 52.6 120.2 54.9001 116.1 57.4001C115.5 57.7001 114.8 58.1 114 58.6C113.6 58.8 113.2 59 112.8 59.3C112.6 59.4 112.5 59.5 112.3 59.6H112.2C112.2 59.6 112.2 59.7001 112.1 59.7001H112C112 59.6001 111.9 59.5 111.9 59.5L111.4 59C110.8 58.3 110.2 57.5001 109.7 56.7001C108.6 55.1001 107.9 53.2 107.4 51.5C107 49.7 106.8 48 106.9 46.5C106.9 42.4 109 37.9 112.2 34.8C113.8 33.2 115.6 31.9 117.6 31C119.6 30.1 121.6 29.5 123.7 29.3C124 29.3 124.7 29.3001 124.7 29.2001C127.3 29.2001 129.8 29.8 132.2 30.8C132.2 30.8 132.3 30.8 132.6 31C132.8 31.1 133.2 31.3 133.6 31.5C134.5 31.9 135.6 32.7 136.8 33.6C139.2 35.5 141.6 38.5001 142.7 41.2001C143.3 42.5001 143.6 43.7 143.9 44.5C144.1 45.3 144.3 45.7001 144.5 45.4001C144.6 45.1001 144.8 44.2001 144.5 42.4001C144.2 40.6001 143.6 37.8 141.2 34.5H141.4C138.4 30.9 135.6 29.3 132.5 28.4C132.3 28.1 131.4 27.7 130.4 27.5C129.4 27.2 128.3 27.1 127.7 26.9H127.8C127.1 26.9 126.3 26.9 125.6 26.8C124.9 26.8 124.1 26.8 123.4 26.8C122.7 26.8 121.9 26.8 121.2 27C120.5 27.2 119.8 27.3 119.1 27.6C119.1 27.6 119.2 27.4001 119.9 27.2001C119.4 27.3001 118.9 27.5001 118.3 27.7001C117.8 27.9001 117.3 28.1 116.8 28.3C115.9 28.7 115.2 29 115.1 29C113 30.3 110.7 32.2001 109.1 34.4001C107.4 36.6001 106.5 38.9001 106.1 40.4001V40.2001C105.8 41.9001 105.4 42.4 105.1 44.3C105.1 44.4 105.1 44.5 105.1 44.5C105.1 45.5 104.9 46.9001 105 48.2001C105 49.6001 105.2 50.9 105.4 51.6H105.3C105.3 51.7 105.8 53.6 105.8 53.6C106 54.2 106.2 54.8001 106.5 55.4001C106.3 55.0001 106.1 54.5 106 54.1C106.3 54.3 106.5 55.0001 106.8 55.9001C107.1 56.8001 107.7 58 108.6 59.1C109 59.6 109.4 60.1 109.9 60.6C110.3 61 111.1 61.6 111.7 62L111.9 62.2001H112L112.5 61.7001C112.8 61.5001 113.1 61.2 113.4 61C113.9 60.6 114.4 60.3 115 60C115.9 59.2 114.3 60.8 115.7 59.8C115.9 60 115 60.4 115.5 60.3C117 59.3 118.1 58.9001 119.9 57.7001H120.1C122.4 56.0001 124.9 55.1001 126.4 53.9001C128.9 52.2001 128.4 53.3001 130.8 51.4001L132 51C133.2 50.3 132.7 50.3 134 49.6C134 49.8 135.6 48.7 135 49.3C136.5 48.5 137.8 47.7001 139.3 47.2001C140.8 46.7001 142.4 46.6001 143.7 47.9001C144.5 48.1001 145.9 49.8001 146.5 50.2001C146.5 50.4001 149.5 53.5 147.6 51.8C147.4 51.7 147.2 51.4001 147.2 51.4001H146.9C148.4 53.4001 150.1 54.5001 151.8 56.4001C151.3 55.8001 150.7 55.1 151.2 55.5L152.8 57.2001L152.4 56.9001L154.7 59.5L154.5 59C155.6 60.3 155.8 60.9 157.2 62.1C157.9 62.6 156.3 60.8 157.5 62.1C158.9 63.8 161.1 66.4 163 68.5C163 68.2 163.5 68.7001 164.1 69.3001V69.5C166.3 71.6 164.5 70.6 166.7 72.7H166.4C166.4 72.6 167.2 72.9001 167.2 72.9001C169.3 74.7001 167.9 74.2 170.4 76.1C169.6 75.2 170.4 75.4 171.2 76.6L170.8 76.4001C171.4 77.0001 171.6 77.1 171.9 77.5C171.5 77.2 171.6 77.5001 172.3 78.3001L171.6 77.9001C172.2 78.4001 172.7 78.9001 173.2 79.4001C173.6 80.1001 174.2 81.0001 174.6 81.8001C175 82.6001 175.2 83.3 175.2 83.7C175.2 83.7 175.4 84.5001 175.5 85.4001C175.5 86.3001 175.5 87.3 175.5 87.7C175.5 87 175.1 88.8001 175 88.3001C175 88.7001 174.9 89.6 174.6 90.5C174.3 91.4 173.9 92.2001 173.6 92.6001V92.4001C172.7 94.1001 171.8 95.5 170.7 96.7C170.2 97.4 169.6 97.9 169 98.5C168.3 99 167.7 99.6001 166.9 100.1C167.2 100.1 165.5 101.2 166.1 101.1C163 103.5 159.8 104.1 158.8 105.4C157.2 106.2 156.8 106.1 155.9 106.4L156.3 106.2C153.2 107.5 152.3 107.8 149.9 108.6C148.8 109.1 148.7 109.5 146.5 110C147.1 109.7 146.3 110 145.5 110.1C146 110 146.1 109.9 145.1 110.1C145 110.1 144.7 110.2 144.5 110.3C143.2 110.6 143.4 110.6 144 110.5C144 110.5 144 110.5 144.2 110.5C143.5 110.5 142.5 110.7 141.7 110.7C140.9 110.7 140.2 110.7 140.2 110.6C136.3 110.6 133.8 109 131.9 106.1C131.9 105.7 132.3 106.3 132.9 107.1C132.4 106.5 132 105.8 131.6 105.2C131.8 105.2 132.3 106.3 132.8 106.9C131.5 104.6 129.9 101.8 128.8 98.5L128.4 97.9001V97.7C128.3 97.7 127.9 97.1001 127.7 96.6001C127.7 96.1001 128.1 96.5001 127.4 94.9001C127 93.6001 125.9 91.4 125.1 89.7C125.4 90.6 125.2 90.3 125.1 90C124.8 89.2 124.7 88.7 124.4 88.1L124.6 87.9001C124.6 88.3001 123.5 85.9 123.3 85.6C123.3 85.1 123.9 86.8001 124.1 86.9001C122.8 83.7001 123.4 85.3 122.1 82.1C121.3 80.5 122.1 82.5 121.5 81.7C120.8 80.2 120.1 78.8 119.5 77V77.6C118.2 74.8 117.6 73.1 117 71.2C106.9 50.8 113.2 67.6 113.2 67.6C116.2 76 118.4 80.1001 122.6 89.9001L123.2 89.4001Z" fill="#FF2626"/>
<path d="M114.5 41C114.7 41 115 41.3 115 41C115 41 115 40.9 115 40.8C114.8 40.6 115 40.8 114.9 40.6H115H114.8C115 40.6 114.7 40.3 114.9 40.4C114.5 40.1 115.3 40.6 114.9 40.2C114.9 40.2 114.9 40.2 115 40.2C115 40.2 115 40.2 114.6 39.9C114.6 39.9 114.7 39.9 114.9 40C114.7 40 114.7 39.9 114.7 39.8L114.4 39.6C114.4 39.6 114.8 39.8 114.7 39.7H114.5C114.5 39.6 114.9 39.7 115.1 39.8C115.3 39.8 114.7 39.3 115.2 39.4H115.4C115.7 39.6 115 39.3 115.3 39.4H115.2C115.2 39.4 115.3 39.4 115.4 39.4C115.4 39.4 115.4 39.4 115.3 39.4H115.5C115.7 39.4 115.3 39.3 115.5 39.3C115.9 39.3 115.5 39.1 115.5 39C115.1 38.8 116.3 39 115.8 38.7C115.8 38.7 115.8 38.5 115.6 38.4C115.3 38.3 114.7 38.4 113.5 38.4C113.3 38.4 113.3 38.4 113.6 38.4C113.2 38.4 113.6 38.4 113.4 38.4C113.7 38.4 113.1 38.4 113.4 38.4H113.3C113.3 38.4 113.3 38.4 113.6 38.4C113.8 38.4 113.6 38.4 113.8 38.4C114 38.4 113.8 38.4 113.9 38.4H113.7C114.1 38.5 113.4 38.4 113.7 38.4C113.7 38.4 114.5 38.7 114.3 38.6C114.5 38.6 114 38.6 114.1 38.6C113.9 38.6 114 38.6 113.8 38.6H113.6C113.9 38.6 113.4 38.5 113.6 38.6C113.7 38.6 113.1 38.4 113.4 38.6H113.2C113.2 38.6 113.5 38.6 113.4 38.6C113.3 38.6 113.3 38.6 113.2 38.6C113.5 38.7 113 38.6 113.2 38.6C113.5 38.7 113.3 38.6 113.5 38.7C113.4 38.7 113.5 38.7 113.2 38.6H113.1C112.8 38.4 113.3 38.6 113.2 38.6C113.2 38.6 113.2 38.6 113.3 38.6H113.2H113.4C113.4 38.6 113.1 38.4 113.3 38.6C113.4 38.6 113.5 38.7 113.5 38.7C113.4 38.7 113.2 38.6 113.2 38.5C113.4 38.5 113.4 38.5 113.4 38.6H113.3C113.5 38.6 113 38.3 113.1 38.4L113.4 38.5C113.7 38.7 113.1 38.3 113.4 38.5C113.4 38.5 113.7 38.7 113.6 38.7H113.5L113.3 38.6H113.1C113.1 38.5 113.3 38.6 113.3 38.6C113.2 38.6 113.3 38.6 113.1 38.6C113.1 38.6 113.1 38.6 113.2 38.6C113.1 38.6 113 38.5 112.9 38.4C113 38.4 113.1 38.6 113 38.4C113.2 38.5 112.9 38.3 113 38.4C113.1 38.5 113 38.4 113.2 38.6C113.4 38.8 112.8 38.3 113.4 38.8C113.4 38.8 113.3 38.7 113.2 38.7C113.2 38.7 113.5 39 113.4 38.9C113.4 38.9 113.4 38.9 113.3 38.8C113.2 38.7 113.3 38.8 113.1 38.7C113.1 38.7 113.3 38.9 113.3 39C113.3 39 113.2 38.8 113.1 38.8C113.3 39 112.9 38.6 113.1 38.8L113.2 38.9C113.2 38.8 113 38.7 113 38.7C113 38.7 113 38.7 113 38.8C113 38.8 113 38.8 113 38.9H112.9C113 38.9 113 38.9 113.1 38.9C113.1 38.8 113.1 38.9 113 38.7C113 38.8 113.1 38.9 113.2 39C113.2 39.2 113.2 39.2 113.2 39C113.4 39.3 113.5 39.6 113.7 39.8C113.8 40 114 40.2 114.1 40.4C114.3 40.7 114.5 40.8 114.5 40.8C114.9 41.1 114.5 40.6 114.5 40.4V41Z" fill="#FF2626"/>
<path d="M120.3 42.4001C120.5 42.4001 120.8 42.7001 120.8 42.4001C120.8 42.4001 120.8 42.3001 120.8 42.2001C120.6 42.0001 120.8 42.2001 120.7 42.0001H120.8H120.6C120.8 42.0001 120.5 41.7001 120.7 41.8001C120.3 41.5001 121.1 42.0001 120.7 41.6001C120.7 41.6001 120.7 41.6001 120.8 41.6001C120.8 41.6001 120.8 41.6001 120.4 41.3001C120.4 41.3001 120.5 41.3001 120.7 41.4001C120.5 41.4001 120.5 41.3001 120.5 41.2001L120.2 41.0001C120.2 41.0001 120.6 41.2001 120.5 41.1001H120.3C120.3 41.0001 120.7 41.1001 120.9 41.2001C121.1 41.2001 120.5 40.7001 121 40.8001H121.2C121.5 41.0001 120.8 40.7001 121.1 40.8001H121C121 40.8001 121.1 40.8001 121.2 40.8001C121.2 40.8001 121.2 40.8001 121.1 40.8001H121.3C121.5 40.8001 121.1 40.7001 121.3 40.7001C121.7 40.7001 121.3 40.5001 121.3 40.4001C120.9 40.2001 122.1 40.4001 121.6 40.1001C121.6 40.1001 121.6 39.9001 121.4 39.8001C121.1 39.7001 120.5 39.8001 119.3 39.8001C119.1 39.8001 119.1 39.8001 119.4 39.8001C119 39.8001 119.4 39.8001 119.2 39.8001C119.5 39.8001 118.9 39.8001 119.2 39.8001H119.1C119.1 39.8001 119.1 39.8001 119.4 39.8001C119.6 39.8001 119.4 39.8001 119.6 39.8001C119.8 39.8001 119.6 39.8001 119.7 39.8001H119.5C119.9 39.9001 119.2 39.8001 119.5 39.8001C119.5 39.8001 120.3 40.1001 120.1 40.0001C120.3 40.0001 119.8 40.0001 119.9 40.0001C119.7 40.0001 119.8 40.0001 119.6 40.0001H119.4C119.7 40.0001 119.2 39.9001 119.4 40.0001C119.5 40.0001 118.9 39.8001 119.2 40.0001H119C119 40.0001 119.3 40.0001 119.2 40.0001C119.1 40.0001 119.1 40.0001 119 40.0001C119.3 40.1001 118.8 40.0001 119 40.0001C119.3 40.1001 119.1 40.0001 119.3 40.1001C119.2 40.1001 119.3 40.1001 119 40.0001H118.9C118.6 39.8001 119.1 40.0001 119 40.0001C119 40.0001 119 40.0001 119.1 40.0001H119H119.2C119.2 40.0001 118.9 39.8001 119.1 40.0001C119.2 40.0001 119.3 40.1001 119.3 40.1001C119.2 40.1001 119 40.0001 119 40.0001C119.2 40.0001 119.2 40.0001 119.2 40.1001H119.1C119.3 40.1001 118.8 39.8001 118.9 39.9001L119.2 40.0001C119.5 40.2001 118.9 39.8001 119.2 40.0001C119.2 40.0001 119.5 40.2001 119.4 40.2001H119.3L119.1 40.1001H118.9C118.9 40.0001 119.1 40.1001 119.1 40.1001C119 40.1001 119.1 40.1001 118.9 40.1001C118.9 40.1001 118.9 40.1001 119 40.1001C118.9 40.1001 118.8 40.0001 118.7 39.9001C118.8 39.9001 118.9 40.1001 118.8 39.9001C119 40.0001 118.7 39.8001 118.8 39.9001C118.9 40.0001 118.8 39.9001 119 40.1001C119.2 40.3001 118.6 39.8001 119.2 40.3001C119.2 40.3001 119.1 40.2001 119 40.2001C119 40.2001 119.3 40.5001 119.2 40.4001C119.2 40.4001 119.2 40.4001 119.1 40.3001C119 40.2001 119.1 40.3001 118.9 40.2001C118.9 40.2001 119.1 40.4001 119.1 40.5001C119.1 40.5001 119 40.3001 118.9 40.3001C119.1 40.5001 118.7 40.1001 118.9 40.3001L119 40.4001C119 40.3001 118.8 40.2001 118.8 40.2001C118.8 40.2001 118.8 40.2001 118.8 40.3001C118.8 40.3001 118.8 40.3001 118.8 40.4001H118.7C118.8 40.4001 118.8 40.4001 118.9 40.4001C118.9 40.3001 118.9 40.4001 118.8 40.2001C118.8 40.3001 118.9 40.4001 119 40.5001C119 40.7001 119 40.7001 119 40.5001C119.2 40.8001 119.3 41.1001 119.5 41.3001C119.6 41.5001 119.8 41.7001 119.9 41.9001C120.1 42.2001 120.3 42.3001 120.3 42.3001C120.7 42.6001 120.3 42.1001 120.3 41.9001V42.4001Z" fill="#FF2626"/>
<path d="M120.5 36.1C120.7 36.1 120.8 36.5 120.9 36.4C120.9 36.4 121.1 36.4 121.1 36.3C121.1 36 121.1 36.3 121.1 36C121.1 36.2 121.1 35.8 121.2 36C121.2 35.5 121.4 36.3 121.4 35.8C121.4 35.8 121.4 35.8 121.4 35.9C121.4 35.9 121.4 35.8 121.4 35.4C121.4 35.4 121.4 35.5 121.5 35.7C121.5 35.5 121.5 35.5 121.5 35.4V35.1C121.5 35.1 121.5 35.5 121.5 35.4V35.1C121.5 35.1 121.6 35.5 121.8 35.7C122 35.7 121.8 35 122.3 35.4V35.6C122.6 35.9 122.3 35.2 122.3 35.4C122.3 35.4 122.3 35.4 122.3 35.3V35.5C122.6 35.5 122.4 35.2 122.5 35.3C122.8 35.6 122.7 35.2 122.7 35C122.5 34.6 123.4 35.4 123.2 35H123.3C123.3 35 123.4 34.9 123.3 34.6C123.2 34.3 122.7 33.9 121.7 33.2C121.6 33.1 121.5 33.1 121.7 33.3C121.4 33 121.7 33.3 121.6 33.3C121.8 33.5 121.4 33.1 121.6 33.3V33.2C121.6 33.2 121.6 33.2 121.7 33.5C121.8 33.7 121.7 33.5 121.7 33.6C121.8 33.8 121.7 33.6 121.7 33.8C121.9 34.2 121.5 33.6 121.7 33.8C121.7 33.8 122.2 34.6 122 34.4C122 34.6 121.8 34.1 121.9 34.3C121.8 34.1 121.9 34.2 121.7 34C121.8 34.1 121.5 33.7 121.7 34C121.7 34.1 121.4 33.6 121.6 33.9V33.7C121.4 33.7 121.6 34 121.6 33.9C121.6 33.8 121.6 33.9 121.5 33.7C121.4 33.5 121.6 34 121.4 33.7C121.5 34 121.4 33.8 121.5 34C121.5 33.9 121.5 34 121.4 33.7V33.5C121.2 33.2 121.4 33.7 121.4 33.6C121.4 33.6 121.4 33.6 121.4 33.7V33.6C121.4 33.6 121.2 33.2 121.4 33.5C121.4 33.6 121.5 33.7 121.5 33.8C121.5 33.7 121.3 33.5 121.3 33.5C121.3 33.7 121.3 33.7 121.3 33.7V33.5C121.3 33.7 121.1 33.1 121.1 33.3C121.1 33.2 121.2 33.5 121.2 33.5C121.3 33.8 121.1 33.2 121.2 33.6C121.2 33.6 121.3 34 121.3 33.9V33.7V33.5V33.3V33.6C121.3 33.4 121.3 33.6 121.2 33.4C121.2 33.4 121.2 33.4 121.2 33.5C121.2 33.3 121.2 33.3 121.1 33.1C121.1 33.3 121.1 33.4 121.1 33.2C121.1 33.5 121.1 33 121.1 33.2C121.1 33.4 121.1 33.2 121.1 33.5C121.1 33.8 120.9 33 121.1 33.8V33.6V34C121.1 33.9 121.1 33.9 121.1 33.9C121.1 33.9 121.1 33.9 121.1 33.7C121.1 33.7 121.1 33.7 121.1 33.8C121.1 33.6 121.1 33.8 121.1 33.6C121.1 33.6 121.1 33.9 121.1 34C121.1 33.9 121.1 33.8 121.1 33.7C121.1 34 121.1 33.4 121.1 33.7C121.1 33.8 121.1 33.8 121.1 33.8V34C121.1 33.8 121.1 33.6 121.1 33.6C121.1 33.4 121.1 33.6 121.1 33.8C121.1 33.8 121.1 33.9 121.1 34V33.8C121.1 34 121.1 34 121.1 34.1C121.1 33.9 121.1 34 121.1 33.8C121.1 34 121.1 34 121.1 34.2V34.4C121.1 34.6 121.1 34.5 121.1 34.4C121.1 35.2 121 35.7 121.1 36.1C121.1 36.4 121.2 36.6 121.2 36.6C121.4 37 121.4 36.4 121.6 36.3L120.5 36.1Z" fill="#FF2626"/>
<path d="M119.6 64.9C120 66 120.3 66.6 120.6 67.3C120.9 68 121.3 68.6 122.1 69.4C122.8 70.3 123.6 71.1 124.3 71.8C124.8 72 125.2 72.8 125.8 73V73.3C126 73.3 126.2 73.5 126.3 73.7C126.6 73.8 126.7 74.1 126.9 74.2L127.1 74.5C127.5 74.8 127.8 75.2 128.1 75.5V75.3C128.7 76.2 129.2 76.2 129.5 77C130.6 77.6 130.2 78.6 131.3 79.2C131.2 79.2 131.3 79.3 131.2 79.3C131.5 79.7 131.9 80.1 132.2 79.9C132.4 80.2 132.2 80.2 132.2 80.4C132.3 80.4 132.6 80.5 132.7 80.8H132.6L133.1 81.4L133.3 81.1C133.5 81.5 133 81.4 133.3 81.7H133.5C133.8 82.1 133.6 82.6 133.7 83.3C134.9 85.5 136.7 87.6 137.4 89.9V90.1C137 90.3 138 90.5 137.7 90.7L137.9 90.9C137.9 90.9 137.9 91.2 137.8 91.1C137.9 91.3 138 91.3 138.1 91.4V91.7C138.4 92.7 139.1 93.3 139.5 94.2C139.7 95.5 141.1 97.5 142 98.6C143.3 100.1 143.3 102.7 144.9 104.2L145.1 104.4C145.4 104.9 145.7 105.5 146 106C146 106 147.2 107.9 148.3 108.8C149.4 109.8 150.1 109.8 149.2 106.4C148.8 105.5 148.5 105 147.8 104.6C148.1 104.3 147.4 103.9 147.4 103.6C146.8 103.3 147 102.4 146.4 102.1C146.4 102.1 146.5 102.1 146.6 102.1C146.3 101.8 146 101.3 146.2 101.2C145.6 100.4 145.1 99.1 144.4 98.7C144 98.5 144.1 98.3 143.8 98C143.4 97.8 143.2 97 143 96.7H143.1L142.7 95.9V96.2C142.4 96.3 142.7 95.5 142.3 95.1C142.1 94.6 141 94.5 140.9 93.9C140.6 93.7 141.3 93.9 140.9 93.7C141.1 93.6 141.1 93.8 141.2 93.7C140.9 93.4 141.2 93 140.8 92.6H140.9C140.3 92.1 140.6 91.3 140.1 91.1C139.7 90.6 140.4 90.5 139.8 90V89.7C139.8 89.4 139.5 89.7 139.5 89.3C139.6 89.3 139.5 88.9 139.6 89C139.5 88.2 138.6 87.8 138.5 86.8C138.1 86.8 138.1 86.2 137.8 86.2C137.9 86.2 137.4 85.3 137.8 85.7V85.8H138C138 85.1 137.4 85 137.1 84.5C137.1 84.7 137.2 84.9 137.1 84.8L136.9 84.3H137.1L136.8 83.6V83.8C136.6 83.4 136.8 83.2 136.4 82.9C136.2 82.9 136.4 83.3 136.1 83C136 82.5 135.7 81.8 135.5 81.2C135.4 81.4 135.3 81.2 135.1 81.1H135.2C134.6 80.5 135.4 80.6 134.9 80.1H135H134.6C134 79.8 134.7 79.6 134 79.3C134.2 79.5 133.7 79.6 133.6 79.3H133.8C133.7 79.1 133.6 79.1 133.5 79C133.6 79 133.7 79 133.5 78.7H133.8L133.3 78.5C133.3 78.1 132.7 77.7 132.8 77.4C132.8 77.4 132.4 76.6 132.1 76.6C132.3 76.6 132.1 76.2 132.3 76.2C132 76.2 131.5 75.7 131.5 75.4C131.1 74.5 130.3 74.3 129.9 73.5C129.8 73.7 129.6 73.2 129.4 73.5C128.6 73 128.7 71.9 127.9 72.2C127.6 71.9 127.7 71.7 127.6 71.5C127 71 126.9 70.9 126.5 70.5C126.3 70.4 126 70.5 125.7 70.2C125.9 70.2 125.7 70.1 125.7 70C125.7 70 125.9 70 125.7 69.8C125.7 69.8 125.6 69.8 125.5 69.8C125.3 69.6 125.3 69.7 125.3 69.8C125.3 69.4 124.7 69.2 124.9 69C124.3 68.4 123.6 68 123.1 67.5C123.1 67.4 123.3 67.5 123.5 67.5L123.1 67.1C123.3 67 123.4 67.3 123.5 67.4C123.4 66.7 122.5 66.5 122.3 65.8H122.1C122.1 65.8 121.9 65.8 121.8 65.7C121.8 65.5 122.1 65.5 121.9 65.2C121.9 64.9 121.5 64.5 121.2 64.2C121.2 64.4 121.2 64.4 121.1 64.3C121.1 64.1 121.1 64 121.1 63.9H121.3C121.1 63.9 120.9 63.5 120.8 63.4C120.9 63.3 121 63.6 121.2 63.6C120.9 62.9 121.1 63.3 120.8 62.6C120.5 62.3 120.6 62.7 120.4 62.6C120.3 62.3 120 62 120.1 61.6L119.9 61.8C119.6 61.2 119.6 60.8 119.9 60.3C119.5 59.1 119.4 58.3 119.2 57.9C119 57.5 118.8 57.5 118.6 57.6C118.4 57.8 118.1 58.1 118 58.5C117.9 58.8 117.8 59.1 117.8 59.1C117.5 60.3 117.6 61.2 117.8 62.1C118.1 63 118.5 63.9 119.1 65.1L119.6 64.9Z" fill="#FF2626"/>
<path d="M136.6 54C137.8 55.6 137.7 56.4999 139.1 58.2999C139.7 59.1999 140.4 60.1999 141 61.0999C141.5 61.3999 141.8 62.3 142.3 62.7V63C142.5 63.1 142.7 63.3 142.7 63.5C143 63.7 143.1 63.9999 143.2 64.0999L143.4 64.4C143.8 64.8 144.1 65.1999 144.3 65.6999H144.4C144.8 66.5999 145.4 66.6999 145.7 67.5999C146.8 68.2999 146.4 69.3999 147.5 70.1999C147.4 70.1999 147.5 70.3 147.5 70.3C147.9 70.7 148.2 71.2 148.6 71C148.8 71.4 148.6 71.4 148.6 71.5C148.7 71.5 149 71.7 149.2 71.9H149.1L149.7 72.5999L149.9 72.3C150.1 72.8 149.6 72.6 149.9 73L150.1 72.8C150.4 73.4 150.3 73.9999 150.5 74.5999C151.9 76.9999 154.1 79.1 155.1 81.5V81.6999C154.8 81.8999 155.7 82.1 155.6 82.3L155.9 82.5C155.9 82.5 155.9 82.7999 155.9 82.6999C156 82.8999 156.1 82.9 156.3 83V83.4C156.8 84.4 157.6 85 158.2 86C158.6 87.4 160.3 89.3 161.3 90.5C162.8 92 163.2 94.6999 164.8 96.1999L165 96.4L166 98.0999C166 98.0999 166.3 98.5999 166.7 99.1999C166.9 99.4999 167 99.6999 167 99.6999C167.2 99.6999 166.6 99.6 167.4 99.8L167.3 99.6999V99.9C167.3 100.1 167.3 100.1 167.3 100.1H167.1C167.1 100.1 167 100.2 167 100.4C167 100.5 167.1 100.8 167.4 100.9C167.7 101 168.1 101 168.6 100.8C168.8 100.7 169.1 100.4 169.2 100.1C169.3 99.7999 169.4 99.3999 169.4 99.0999C169.3 98.2999 169 97.8 168.8 97.5C168.6 97.2 168.3 96.8999 168 96.6999C168.3 96.3999 167.6 95.8999 167.5 95.6999C166.9 95.2999 167 94.4 166.4 94C166.4 94 166.5 94 166.6 94C166.3 93.6 165.9 93.2 166.1 93C165.4 92.1 164.7 90.8 164 90.4C163.6 90.2 163.7 89.9999 163.3 89.6999C162.9 89.4999 162.6 88.6 162.3 88.4H162.4C162.4 88.3 161.9 87.5999 161.9 87.5999L162.1 87.9C161.7 88 162 87.2 161.4 86.8C161.1 86.3 160 86.2999 159.8 85.5999C159.5 85.4999 160.2 85.6 159.8 85.4C160 85.3 160 85.4 160.1 85.4C159.8 85.1 159.9 84.7 159.5 84.3H159.6C159 83.8 159.1 82.9999 158.6 82.6999C158.1 82.1999 158.8 81.9999 158.1 81.5999V81.1999C158 80.8999 157.8 81.2 157.7 80.8C157.8 80.8 157.6 80.4 157.7 80.5C157.5 79.7 156.5 79.2999 156.3 78.1999C155.9 78.1999 155.8 77.5999 155.5 77.5999C155.5 77.5999 154.9 76.7 155.5 77V77.0999H155.7C155.7 76.3999 155 76.1999 154.7 75.6999C154.7 75.8999 154.9 76.1 154.7 76L154.4 75.5H154.6L154.2 74.8V75C154 74.6 154.2 74.2999 153.7 74.0999C153.5 74.0999 153.7 74.5999 153.4 74.1999C153.2 73.6999 152.9 72.9 152.6 72.3C152.5 72.5 152.4 72.2999 152.2 72.1999H152.3C151.7 71.5999 152.5 71.6999 151.9 71.1999H152H151.6C151 70.7999 151.7 70.7 150.9 70.4C151.1 70.6 150.7 70.7 150.5 70.4H150.7C150.6 70.2 150.5 70.1999 150.4 70.0999C150.5 70.0999 150.6 70.1 150.4 69.8H150.7L150.1 69.5999C150.1 69.0999 149.5 68.7 149.6 68.4C149.6 68.4 149.2 67.6 148.9 67.5C149.1 67.5 148.9 67.0999 149.1 67.0999C148.8 67.0999 148.3 66.4999 148.3 66.1999C147.9 65.2999 147.1 64.9 146.8 64C146.7 64.1 146.5 63.7 146.3 64C145.6 63.3 145.8 62.3 144.9 62.4C144.6 62.1 144.8 61.9 144.7 61.7C144.2 61.1 144.1 60.9 143.8 60.4C143.6 60.2 143.2 60.4 143 59.9C143.2 59.9 143 59.7999 143 59.5999C143 59.5999 143.2 59.6 143 59.4C143 59.4 142.9 59.4 142.8 59.4C142.6 59.1 142.6 59.2 142.6 59.4C142.6 59 142.1 58.6 142.2 58.4C141.6 57.6 141 57.1 140.4 56.5C140.4 56.3 140.7 56.4999 140.8 56.5999L140.4 56.0999C140.6 56.0999 140.7 56.3 140.8 56.5C140.7 55.7 139.7 55.3999 139.5 54.5999H139.3V54.5C139.3 54.5 139 54.5 139 54.4C139 54.2 139.3 54.1999 139 53.7999C139 53.3999 138.4 52.9999 138 52.7999C138.1 52.9999 138 53 138 53C137.9 52.8 138 52.6 137.7 52.5L137.9 52.2999C137.9 52.4999 137.3 52 137.2 52C137.2 51.8 137.5 52.1999 137.7 52.0999C137 51.4999 137.4 51.8 136.7 51.2C136.2 51 136.7 51.4 136.3 51.4C135.9 51.2 135.5 51.1 135.2 50.7V50.9C134.5 50.7 134.1 50.5 133.6 50.2C132.1 50.3 131.5 51 131.4 51.4C131.2 51.8 131.4 52 131.6 52C132 52.2 132.5 52.1999 132.5 52.2999C133.2 52.4999 133.6 52.5999 134.2 52.7999C134.8 52.9999 135.4 53.2999 136.2 54.0999L136.6 54Z" fill="#FF2626"/>
<path d="M66.3 157.2L66.6 157.5C66.6 157.5 66.6 157.4 66.3 157.2Z" fill="#FF2626"/>
<path d="M83.6 153.9C83.6 153.9 83.6 153.9 83.6 154H83.7L83.6 153.9Z" fill="#FF2626"/>
<path d="M60.8 153.8C61.6 155.3 62.3 156.6 63.1 157.7C63.9 158.8 64.9 159.7 66.1 160.4C68.5 161.7 71.6 161.9 75.2 160.2C76.9 159.4 78.4 158.3 79.8 157.2C81.2 156.1 82.4 155 83.6 154.1C84.6 153 87 151.8 88.4 150.7L89.1 150.5C89.6 150.1 90.2 149.7 90.8 149.5C91.5 149 92.5 148.6 92.9 148.3L93.9 147.8V148C95.1 147.1 96.6 146.4 98 145.8H97.8C100.7 144.5 101.6 143.6 104.2 142.5C107.2 140.5 109.5 140.3 112.5 138.2C112.1 138.5 112.7 138.2 112.7 138.2C113.5 137.8 114.2 137.4 114.8 137C115.4 136.6 115.8 136.2 115.7 136.1C116.8 135.3 116.7 135.5 116.9 135.5C116.8 135.4 117.7 134.5 118.3 133.4C118.3 133.6 118.2 133.7 118.1 133.9C118.7 132.9 119 131.8 119 130.7C118.9 130.9 118.8 131.1 118.6 131.3C118.7 130.5 118.8 130.4 118.9 130.3C118.9 130.3 119 130.1 118.9 129.3H118.6C118.6 128.3 118.4 127.4 118.4 126.6C118.4 125.8 118.4 125 118.2 123.9C117.3 119.8 115.7 115.7 114 111.8C112.2 107.9 110.2 104.3 108.3 100.9V100.5C108.5 100.2 106.7 98.9 106.7 98.5C106.5 98.3 106.2 98.1 106 97.8C105.9 97.6 105.5 97.1 105.9 97.4C105.3 96.7 105.2 96.7 104.7 96.4C104.5 96.1 104.3 95.9 104 95.6C102.6 94.4 100.6 93.8 98.9 93.8C97.1 93.8 95.5 94.2 93.8 94.6C91.7 94.9 88.7 96 86 97.6C83.3 99.1 80.8 101 79.1 102.5C76.7 104.6 74 106.6 71.3 108.7C68.6 110.8 65.9 112.9 63.6 115.1C63.4 115.2 63.1 115.6 63.1 115.6L58.6 119.4C58.6 119.4 57.3 120.6 55.5 122.1C54.6 122.9 53.7 123.7 52.7 124.6C52.2 125 51.7 125.5 51.3 125.9C50.8 126.4 50.4 126.9 50 127.4C49.6 127.9 49.4 128.5 49.2 129C49 129.6 49.1 130.1 49.2 130.5C49.3 130.9 49.5 131.2 49.6 131.3C49.7 131.4 49.8 131.3 49.8 131.3C49.8 131.1 49.6 130.2 50.3 129.2C50.7 128.7 51.2 128.2 52 127.6C52.8 127.1 53.8 126.4 54.9 125.7C57.4 123.9 59 122.6 60.5 120.9C61 120.9 62.5 119.2 63.2 118.8C64.5 117.4 66.4 116.4 67.7 115C67.7 115 67.7 115.2 67.4 115.5C68.4 114.6 69.8 113.3 70 113.4C72.5 111.2 76 108.3 77.4 106.7C78.2 105.9 78.6 105.8 79.5 104.9H79.7C80.6 103.9 82.7 102.6 83.5 102H83.6C84.3 101.6 85 101.2 85.7 100.7C85.4 100.8 85.1 101 84.9 101.2C84.9 100.7 86.7 100.4 88.2 99.3C89.7 98.6 91 97 92.9 96.7C93.7 96.3 92.3 97.2 93.5 96.7C93.6 96.9 93 97 93.3 97.1C94.5 96.6 95.3 96.8 96.8 96.4V96.6C97.8 96.3 98.7 96.3 99.5 96.5C100.3 96.6 100.9 96.9 101.5 97C102.4 97.3 102.6 97.7 102.8 97.9C103 98.2 103.2 98.4 104 99C104.1 99.2 104.2 99.5 104.4 99.7C104.9 100.4 105 100 105.5 100.9C105.3 100.9 106.1 102 105.7 101.6C106.8 103.6 108.5 105.4 109.6 108.4C110.2 108.9 110.7 110.3 111.1 110.7C111.1 110.8 112.4 113.5 111.4 112.1C111.4 112 111.2 111.7 111.3 111.7H111.1C111.5 113.3 112.5 114.4 113.1 116.1C113 115.6 112.7 115 113 115.4C113.2 115.9 113.4 116.4 113.6 116.9L113.4 116.6C113.6 117.4 113.9 118.1 114.1 118.9V118.5C114.5 119.6 114.3 120.1 114.9 121.3C115.2 121.8 114.9 120.2 115.2 121.3C115.5 122.8 115.9 125.2 116.3 127.1C116.5 126.9 116.6 127.4 116.7 127.9H116.5C116.8 129 116.7 129.2 116.6 129.4C116.6 129.6 116.5 129.8 116.6 130.6H116.5C116.6 130.6 116.7 130.7 116.8 130.9C116.8 131.7 116.7 131.8 116.6 132C116.4 132.2 116.4 132.3 116 133C116.4 132.5 116.6 133 115.8 133.6V133.3C115.5 133.6 115.4 133.8 115.1 134C115.3 133.7 115.1 133.7 114.5 134.1C114.6 134 114.7 133.8 114.8 133.7C114.5 134 114.1 134.4 113.7 134.7C112.5 135.1 110.8 136.2 110.3 136.2C110.3 136.2 107.8 137.3 107.4 137.8C107.8 137.4 106.5 138 106.8 137.7C106.3 138.2 104.5 139.2 103.7 139.4H103.8C101 140.5 99.3 141.9 96.7 142.9C96.9 143 95.6 143.6 96 143.6C93.6 145.1 91.1 145.5 90.6 146.7C89.5 147.4 89.2 147.3 88.6 147.6L88.8 147.4C86.7 148.7 86.1 149.1 84.6 150C83.9 150.6 84 150.9 82.6 151.8C82.9 151.4 82.4 151.8 81.9 152.2C82.2 151.9 82.3 151.8 81.6 152.2C81.6 152.3 81.4 152.4 81.3 152.6C80.5 153.3 80.7 153.2 81.1 152.9C81.1 152.9 81.1 152.9 81.3 152.9C80.3 153.4 79.1 154.8 78.8 154.6C76.5 156.5 75 157.9 72.7 158.6C72.4 158.6 72.9 158.3 73.5 158C73 158.2 72.5 158.4 72 158.5C72 158.3 72.9 158.2 73.3 158C72.4 158.2 71.4 158.4 70.4 158.5C69.4 158.5 68.4 158.5 67.5 157.8C67.4 157.8 67.2 157.8 67.1 157.7C67.1 157.7 66.6 157.5 66.3 157.3C66.2 156.9 66.6 157.1 65.8 156.3C65.4 155.6 64.3 154.3 63.6 153.2C63.9 153.8 63.7 153.7 63.6 153.4C63.3 152.9 63.3 152.5 63 152.1L63.2 151.9C63.2 152.2 62.2 150.6 62.1 150.4C62.1 150 62.7 151.2 62.9 151.2C61.7 149 62.3 150.1 61.1 148C60.3 146.9 61.1 148.3 60.6 147.8C60 146.8 59.3 145.9 58.8 144.6V145.1C57.7 143.3 57.1 142.1 56.5 140.7C47.4 127.2 53 138.7 53 138.7C55.6 144.5 57.7 147.2 61.4 153.8H60.8Z" fill="#FF2626"/>
<path d="M61.4 164C60.4 164.3 59.6 164.2 59 164.2C58.3 164.2 57.6 164.2 56.5 164.1C55.4 163.9 54.3 163.8 53.3 163.4C52.7 163.5 52 162.9 51.3 162.8V162.5C50.9 162.5 50.7 162.5 50.5 162.2C50.2 162.2 49.9 161.9 49.7 161.8L49.3 161.6C48.7 161.4 48.2 161.1 47.8 160.7V160.9C46.9 160.1 46.4 160.2 45.7 159.3C44.3 158.9 44.3 157.7 43 157.2C43.2 157.2 43 157.1 43 157C42.5 156.6 42 156.2 41.7 156.5C41.4 156.2 41.5 156.2 41.6 156C41.5 156.1 41.2 156 40.9 155.7H41.1L40.4 155.1V155.5C40 155 40.4 155.1 40.1 154.8L39.9 155C39.5 154.4 39.5 153.8 39.3 153.1C38.5 151.9 37.7 150.7 37.1 149.4C36.5 148.1 36.2 146.7 36.3 145.4H36.5C36.8 145.2 36 144.6 36.3 144.5C36.3 144.5 36.3 144.3 36.2 144.2C36.2 144.2 36.3 144 36.4 144.2C36.4 143.9 36.4 143.9 36.4 143.7L36.6 143.4C36.9 142.4 36.8 141.5 37.4 140.4C37.9 139.9 38.4 139 38.9 138.1C39.4 137.2 40 136.2 40.4 135.5C40.9 134.5 41.9 133.7 42.8 132.9C43.8 132.2 44.7 131.5 45.5 130.7L45.7 130.5C46.3 130.1 46.8 129.8 47.4 129.5C47.4 129.5 49.7 128.3 50.4 128.6C50.4 128.6 50.4 128.6 50.5 128.6C50.6 128.6 50.7 128.7 50.9 128.7C50.9 128.7 51.1 128.7 51.2 128.5C51.3 128.4 51.4 128.1 51.2 127.8C51.1 127.5 50.8 127.2 50.4 127C50 126.8 49.5 126.6 48.7 126.6C47.3 126.7 46.6 127 45.9 127.7C45.6 127.4 45 128.2 44.6 128.2C44.1 128.8 43.1 128.8 42.7 129.5C42.7 129.5 42.7 129.4 42.7 129.2C42.3 129.6 41.8 130.1 41.6 130C40.7 130.9 39.4 132.2 39.2 133C39.1 133.4 38.9 133.4 38.6 133.9C38.5 134.4 37.7 135 37.6 135.4H37.5L36.9 136.1L37.1 135.8C37.4 136.2 36.4 136.2 36.3 137C35.9 137.5 36.3 138.6 35.8 139.1C35.8 139.5 35.6 138.7 35.6 139.2C35.4 139.2 35.6 138.9 35.4 139C35.3 139.5 34.8 139.6 34.7 140.3H34.5C34.5 141.1 33.8 141.7 33.9 142.3C33.9 143.2 33.3 142.8 33.5 143.7L33.2 144C33.2 144.4 33.5 144.3 33.3 144.7C33.1 144.7 33.2 145.2 33 145C32.8 146 33.4 146.9 33.3 148.3C33.6 148.5 33.6 149.2 33.9 149.3C33.8 149.3 34.3 150.5 33.8 149.9V149.7H33.6C33.6 150.5 34.2 150.9 34.5 151.5C34.5 151.3 34.3 151 34.5 151.2C34.5 151.4 34.7 151.6 34.8 151.8H34.6C34.7 152 34.8 152.4 35 152.7V152.5C35.2 153 35 153.3 35.6 153.6C35.8 153.7 35.6 153.1 35.9 153.5C36.1 154.1 36.5 155 37 155.7C37.1 155.5 37.2 155.7 37.4 155.8H37.3C38 156.4 37.3 156.4 37.9 156.9H37.8H38.2C39 157.2 38.2 157.5 39.1 157.7C38.8 157.5 39.3 157.3 39.5 157.7H39.3C39.5 157.9 39.6 157.9 39.7 158C39.5 158 39.5 158.1 39.7 158.3H39.4L40.1 158.5C40.3 159 41 159.3 41 159.6C41 159.6 41.7 160.4 42 160.3C41.7 160.3 42.1 160.7 41.9 160.7C42.2 160.7 42.9 161.1 43 161.5C43.8 162.4 44.7 162.5 45.5 163.3C45.5 163.1 46 163.5 46 163.3C47 163.7 47.4 164.8 48.2 164.3C48.7 164.5 48.6 164.7 48.8 164.9H48.7C49.6 165.3 49.8 165.3 50.5 165.6C50.9 165.6 51 165.3 51.6 165.6C51.4 165.6 51.6 165.7 51.8 165.8C51.7 165.8 51.6 165.8 51.8 166C51.8 166 51.9 166 52 166C52.4 166 52.3 166 52.2 166C52.2 166 52.2 166 52.2 165.9C52.5 166.2 53.3 166.2 53.3 166.5C54.5 166.7 55.4 166.5 56.3 166.5C56.4 166.6 56.2 166.7 55.9 166.8C56.1 166.8 56.4 166.8 56.6 166.8C56.6 167 56.2 166.8 56 166.9C56.8 167.3 57.7 166.7 58.7 166.9L58.9 166.7C58.9 166.7 59.1 166.5 59.2 166.5C59.4 166.6 59.2 166.9 59.7 166.8C60.1 166.8 60.8 166.5 61.2 166.3C60.9 166.3 61 166.3 61.1 166.1C61.3 166.1 61.5 166.1 61.7 166.1V166.3C61.7 166.1 62.3 165.9 62.4 165.7C62.6 165.7 62.1 166 62.1 166.1C63 165.7 62.6 165.9 63.4 165.5C63.8 165.1 63.2 165.4 63.4 165.1C63.8 164.8 64.1 164.5 64.6 164.3H64.4C65 163.6 65.3 163.3 65.9 163C66.6 161.5 66.4 160.6 66.2 160.2C66 159.8 65.7 159.8 65.6 160C65.4 160.1 65.2 160.3 65.1 160.5C64.9 160.7 64.8 160.8 64.8 160.8C64.2 161.5 63.8 161.9 63.3 162.4C62.8 162.9 62.1 163.5 60.9 164H61.4Z" fill="#FF2626"/>
<path d="M48.5 157.5C48.5 157.5 48.8 157.7 48.7 157.6C48.5 157.4 48.7 157.6 48.6 157.4H48.5C48.6 157.4 48.5 157.1 48.5 157.3C48.7 157.6 48.2 157 48.5 157.3C48.5 157.3 48.5 157.3 48.5 157.4C48.5 157.4 48.5 157.4 48.3 157C48.3 157 48.3 157 48.4 157.2C48.4 157.1 48.3 157 48.3 157V156.7C48.3 156.7 48.3 157 48.3 156.9V156.7C48.3 156.7 48.3 157.1 48.5 157.2C48.5 157.2 48.4 156.7 48.5 157.1V157.3C48.6 157.6 48.5 156.9 48.5 157.1C48.5 157.1 48.5 157.1 48.5 157V157.2C48.5 157.3 48.5 157 48.5 157.1C48.5 157.5 48.5 157.1 48.5 156.9C48.5 156.4 48.5 157.6 48.5 157.1C48.5 157.1 48.5 157.1 48.5 156.9C48.5 156.8 48.5 156.5 48.6 156.2C48.6 155.9 48.8 155.4 48.7 154.8C48.7 154.6 48.6 154.5 48.5 154.8C48.5 154.4 48.5 154.8 48.5 154.6C48.5 154.9 48.5 154.3 48.4 154.6V154.5C48.4 154.5 48.2 154.5 48.2 154.8C48.2 155 48.2 154.8 48.2 154.9C48.2 155.2 48.2 154.9 48.2 155.1V154.9C48.2 155.4 48.2 154.7 48.2 154.9C48.2 154.9 48.3 155.8 48.2 155.6C48.2 155.8 48.2 155.3 48.2 155.4C48.2 155.2 48.2 155.3 48.2 155.1C48.2 155.2 48.2 154.9 48.2 155.1V154.9C48.2 155.2 48 154.7 48.1 155C48.1 155.2 47.9 154.5 48 154.9V154.7C47.9 154.7 48 155 48 154.9C48 154.8 48 154.8 48 154.7C47.9 154.5 48 155.1 47.8 154.7C47.8 155 47.8 154.8 47.8 155C47.8 154.9 47.8 155 47.7 154.7V154.5C47.5 154.2 47.7 154.7 47.6 154.7C47.6 154.7 47.6 154.7 47.6 154.8C47.6 154.8 47.4 154.5 47.5 154.8C47.5 154.9 47.6 155 47.6 155.1C47.6 155.1 47.4 154.9 47.3 154.8C47.3 155 47.3 155 47.3 155V154.8C47.3 155 47 154.5 47.1 154.7C47.1 154.6 47.3 154.9 47.3 154.9C47.4 155.2 47.1 154.6 47.3 155L47.5 155.3V155.1L47.4 154.9V154.7C47.3 154.7 47.4 155 47.4 155C47.3 154.9 47.4 155 47.2 154.9C47.2 154.9 47.1 154.9 47.2 155.1C47.2 155 47.1 154.9 47 154.8C47 155 47.2 155.1 47 155C46.8 154.9 47 155.3 47 155.1C47.1 155.3 47 155.1 47.2 155.4C47.3 155.6 46.8 155.1 47.3 155.7C47.3 155.7 47.2 155.6 47.1 155.6C47.1 155.6 47.4 155.9 47.3 155.9C47.3 155.9 47.3 155.9 47.2 155.8C47 155.7 47.2 155.8 47 155.7C47 155.7 47.2 156 47.3 156.1C47.2 156.1 47.1 155.9 47.1 155.9C46.9 155.9 47.1 155.9 47 155.9C46.7 155.7 47.2 156.2 47 156H47.1L47.3 156.1C47.2 156.1 47 155.9 47 155.9C46.9 155.9 47 155.9 47.1 156.1C47.1 156.1 47.2 156.1 47.3 156.2H47.1C47.3 156.2 47.3 156.2 47.4 156.2C47.3 156.2 47.3 156.2 47.2 156C47.3 156.1 47.4 156.1 47.6 156.2H47.8C47.9 156.4 47.9 156.4 47.8 156.3C48.2 156.6 48.4 156.7 48.5 156.7C48.7 156.7 48.8 156.8 48.9 156.9C49.1 156.9 49.2 157 49.2 157C49.5 157.1 49.2 157 49 156.9L48.5 157.5Z" fill="#FF2626"/>
<path d="M47.6 148.8C47.6 148.6 48.1 148.6 47.9 148.5C47.9 148.5 47.9 148.4 47.8 148.3C47.5 148.3 47.8 148.3 47.5 148.2H47.7C47.6 148.2 47.7 148.2 47.6 148.2C47.5 148.2 47.5 148.2 47.6 148.2H47.4C47.6 148.2 47.2 148.2 47.4 148.1C46.9 148.1 47.8 148 47.3 147.9C47.3 147.9 47.4 147.9 47.5 147.9C47.5 147.9 47.5 147.9 47 147.8C47 147.8 47.1 147.8 47.3 147.8C47.1 147.8 47.1 147.8 47 147.8H46.7C46.7 147.8 47.1 147.8 47 147.8H46.7C46.7 147.8 47.2 147.8 47.4 147.8C47.4 147.8 47.3 147.6 47.2 147.4H44.9C44.9 147.6 44.9 147.6 44.9 147.7H44.7C44.4 147.8 45.1 147.7 44.9 147.7H45C45 147.7 44.9 147.7 44.8 147.7C44.8 147.7 44.8 147.7 44.9 147.7H44.7C44.6 147.9 44.9 147.9 44.9 148C44.5 148.2 44.9 148.3 45.1 148.4C45.6 148.4 44.4 148.9 45 148.9C45 149 45 149.8 47.4 148.7C47.5 148.6 47.6 148.5 47.2 148.5C47.6 148.5 47.2 148.5 47.4 148.4C47.1 148.4 47.6 148.2 47.4 148.3H47.5C47.5 148.3 47.5 148.1 47.1 148.1C46.8 148.1 47.1 148.1 46.9 148.1C46.6 148.1 46.9 148.1 46.7 148.1H46.9C47.2 148.1 46.5 148.2 46.9 148.1C46.9 148.1 46 148.1 46.2 148.1C46 148.1 46.5 148.1 46.4 148.1C46.6 148.1 46.5 148.1 46.7 148.1C46.6 148.1 46.9 148.1 46.7 148H46.9C46.6 148 47.1 147.8 46.9 147.9C46.7 147.9 47.4 147.8 47.1 147.8H47.3C47.3 147.8 47 147.8 47.1 147.8C47.2 147.8 47.2 147.8 47.4 147.8C47.6 147.7 47.1 147.8 47.4 147.6C47.2 147.6 47.2 147.6 47.1 147.6H44.4L44.6 147.7C44.5 147.7 44.6 147.7 44.3 147.7H44.1C43.8 147.7 44.3 147.7 44.2 147.8C44.2 147.8 44.2 147.8 44.4 147.8H44.3H44.5C44.5 147.8 44.1 147.8 44.4 147.8C44.5 147.8 44.6 147.8 44.7 147.8C44.6 147.8 44.4 147.8 44.3 147.9C44.5 147.9 44.5 147.9 44.5 147.9H44.3C44.5 147.9 43.9 147.9 44.1 147.9H44H44.4C44.7 147.9 44 147.9 44.5 147.9C44.5 147.9 44.9 147.9 44.8 147.9H44.6H44.4H44.2H44.5C44.3 147.9 44.5 147.9 44.3 147.9C44.3 147.9 44.2 147.9 44.4 147.9C44.2 147.9 44.2 147.9 44 147.9C44.2 147.9 44.3 147.9 44.1 148C43.9 148 44.4 148.1 44.1 148.2C44.3 148.2 44.1 148.2 44.5 148.2C44.8 148.2 44 148.3 44.8 148.4H44.6C44.6 148.4 44.6 148.4 44.6 148.5H45C44.9 148.5 44.9 148.5 44.9 148.5C44.9 148.5 44.9 148.5 44.7 148.5C44.7 148.5 44.7 148.5 44.8 148.5C44.6 148.5 44.8 148.5 44.6 148.5C44.6 148.5 44.9 148.6 45 148.7C44.9 148.7 44.8 148.7 44.7 148.7C44.5 148.7 44.6 148.7 44.6 148.7C44.3 148.7 44.9 148.7 44.6 148.9H44.7H44.9C44.7 148.9 44.5 148.9 44.5 148.9C44.3 148.9 44.5 148.9 44.7 148.9C44.7 148.9 44.8 148.9 44.9 148.9H44.7C44.9 148.9 44.9 148.9 45 148.9C44.8 148.9 44.9 148.9 44.7 148.9C44.9 148.9 44.9 148.9 45.1 148.9H45.3C45.5 148.9 45.4 148.9 45.3 148.9C46.1 148.9 46.7 148.9 47 148.9C47.3 148.9 47.5 148.7 47.5 148.7C47.9 148.5 47.3 148.5 47.2 148.4L47.6 148.8Z" fill="#FF2626"/>
<path d="M40.5 147C40.5 146.9 40.8 146.6 40.7 146.7C40.7 146.7 40.7 146.7 40.6 146.7C40.4 146.9 40.6 146.7 40.4 146.8H40.5C40.4 146.8 40.5 146.8 40.4 146.8C40.3 146.8 40.3 146.8 40.4 146.8H40.2C40.4 146.8 40 147 40.2 146.8C39.7 147 40.5 146.6 40 146.8C40 146.8 40 146.8 40.1 146.8C40.1 146.8 40.1 146.8 39.6 147C39.6 147 39.7 147 39.9 146.9C39.7 146.9 39.7 146.9 39.7 146.9H39.4C39.4 146.9 39.8 146.9 39.7 146.9H39.4C39.4 146.9 39.8 146.9 40 146.7H39.7L37.8 147.7C37.8 147.7 37.8 147.7 37.8 147.9V148.1C38 147.8 37.5 148.3 37.8 148.1H37.9C37.9 148.1 37.9 148.1 37.8 148.1C37.8 148.1 37.8 148.1 37.9 148.1V148.3C37.7 148.4 38 148.3 38 148.3C37.8 148.6 38.1 148.5 38.3 148.3C38.7 148 38 149 38.4 148.7C38.4 148.8 38.7 149.2 40.1 147.1C40.1 146.9 40.1 146.8 39.9 147.1C40.2 146.8 39.9 147.1 39.9 146.9C40 146.6 39.7 147.1 39.9 146.9C39.9 146.9 39.9 146.8 40 146.8C40 146.8 39.9 146.8 40 146.7C40 146.7 40 146.6 39.6 146.8C39.4 146.9 39.6 146.8 39.5 146.8C39.3 147 39.5 146.8 39.3 146.8H39.4C39.4 146.7 39.4 146.7 39.4 146.7C39.6 146.5 39.1 147.1 39.4 146.7C39.4 146.7 38.8 147.3 38.9 147.1C38.8 147.2 39.1 146.9 39 147C39.1 146.8 39.1 147 39.2 146.8C39.2 146.8 39.3 146.6 39.2 146.7H39.3C39.1 146.7 39.3 146.3 39.2 146.6C39.1 146.6 39.5 146.2 39.2 146.4V146.2C39.4 146.2 39.2 146.4 39.2 146.3C39.2 146.2 39.2 146.2 39.4 146.1C39.5 145.9 39.1 146.3 39.4 146C38.6 146.4 37.7 146.9 36.9 147.3C36.9 147.3 36.9 147.3 37 147.3C36.9 147.3 37 147.3 36.7 147.3H36.5C36.2 147.4 36.7 147.3 36.7 147.5C36.7 147.5 36.7 147.5 36.9 147.5H36.8H37C37 147.5 36.6 147.6 36.9 147.6C37 147.6 37.1 147.6 37.2 147.6C37.1 147.6 36.9 147.8 36.9 147.9C37.1 147.9 37.1 147.9 37.1 147.9H36.9C37.2 147.9 36.5 148.1 36.7 148.1H36.6H37C37.3 148.1 36.7 148.3 37.1 148.1C37.1 148.1 37.5 148 37.4 148.1H37.2H37H36.8H37.1C36.9 148.2 37.1 148.1 37 148.3C37 148.3 37 148.4 37.2 148.3C37 148.3 37 148.4 36.8 148.5C37 148.5 37.1 148.5 37 148.5C36.9 148.7 37.3 148.5 37.1 148.7C37.3 148.6 37.2 148.7 37.4 148.5C37.7 148.5 37 148.9 37.7 148.5C37.7 148.5 37.6 148.6 37.5 148.7H37.6C37.6 148.7 38 148.5 37.9 148.5C37.9 148.5 37.9 148.5 37.8 148.6C37.7 148.7 37.8 148.6 37.7 148.8C37.7 148.8 38 148.7 38.1 148.7L37.9 148.9C37.8 149 37.9 148.9 37.8 148.9C37.6 149.2 38.1 148.8 37.9 149H38C38 149 38.1 148.9 38.2 148.9C38.1 149 37.9 149.2 38 149.2C38 149.3 38.1 149.2 38.2 149.2C38.2 149.2 38.2 149.2 38.3 149.1V149.3C38.3 149.1 38.3 149.2 38.3 149.1C38.3 149.2 38.2 149.1 38.1 149.3C38.2 149.2 38.2 149.1 38.4 149C38.4 149 38.6 148.9 38.5 149V148.8C38.7 148.8 38.7 148.8 38.7 148.9C39.3 148.3 39.5 147.8 39.7 147.5C39.9 147.2 39.9 147.1 39.9 147.1C40.1 146.7 39.9 147.2 39.7 147.3L40.5 147Z" fill="#FF2626"/>
<path d="M66.9 149.4C68.9 148.6 69.6 148.7 71.7 147.6C72.7 147.2 73.8 146.7 74.7 146.2C75.1 145.7 76 145.7 76.5 145.2H76.8C77 145.2 77.2 145 77.4 145C77.6 144.8 78 144.8 78.1 144.6L78.4 144.5C78.9 144.3 79.4 144.1 79.9 144V143.8C80.9 143.6 81.1 143.1 82.1 143C83 142.1 84 142.7 85 141.8C84.9 141.9 85 141.8 85.1 141.9C85.6 141.6 86.2 141.4 86.1 141C86.5 140.9 86.5 141 86.6 141.1C86.6 140.9 86.9 140.7 87.2 140.6H87.1C87.1 140.7 88 140.3 88 140.3L87.7 140.1C88.2 140.1 88 140.4 88.4 140.1V139.8C89 139.6 89.5 139.8 90.2 139.8C92.8 138.9 95.3 137.2 97.9 136.6H98.1C98.3 137 98.6 136.1 98.8 136.3L99 136.1C99 136.1 99.3 136.1 99.2 136.2C99.5 136.1 99.4 136.1 99.6 135.9H99.9C101 135.7 101.7 134.9 102.7 134.5C104.1 134.3 106.3 132.7 107.5 131.8C108.3 131.1 109.4 130.6 110.5 130.2C111.6 129.8 112.6 129.2 113.4 128.4L113.6 128.2C114.2 127.8 114.7 127.5 115.2 127C115.2 127 116.5 126 117.6 125L118.2 124.4L118 123.8C117.8 123.3 117.5 122.9 117.1 122.7C116.7 122.5 116.4 122.4 116.1 122.4C115.4 122.4 115 122.8 115 123C115 123.2 115.2 123.2 115.6 123.4C115.8 123.4 116 123.6 116.1 123.8C116.2 124 116.3 124.3 116.1 124.4L116.3 123.6C116.1 123.6 115.8 123.8 115.5 123.9C114.6 124.4 114 124.7 113.7 125.4C113.4 125.2 113 125.9 112.7 125.9C112.4 126.5 111.5 126.4 111.1 127C111.1 127 111.1 126.9 111.1 126.8C110.8 127.1 110.3 127.5 110.1 127.3C109.3 128 107.9 128.6 107.5 129.3C107.3 129.6 107.1 129.5 106.8 129.9C106.6 130.3 105.7 130.5 105.5 130.8C105.5 130.7 104.8 131.1 104.8 131.1H105.1C105.2 131.4 104.4 131.1 104 131.6C103.5 131.8 103.3 132.9 102.7 133C102.5 133.3 102.7 132.6 102.5 133C102.4 132.8 102.6 132.8 102.5 132.7C102.2 133 101.8 132.7 101.4 133.2C100.9 133.6 100.1 133.4 99.9 133.9C99.3 134.3 99.3 133.6 98.7 134.2H98.3C98 134.2 98.3 134.5 97.8 134.5C97.8 134.4 97.3 134.5 97.5 134.4C96.7 134.5 96.2 135.3 95 135.4C94.9 135.8 94.3 135.8 94.3 136.1C94.3 136 93.3 136.5 93.8 136.1H93.9V135.9C93.2 135.9 93 136.5 92.4 136.6C92.6 136.6 92.8 136.5 92.7 136.6L92.2 136.8V136.6L91.5 136.8H91.7C91.3 137 91.1 136.8 90.7 137.1C90.6 137.3 91.1 137.1 90.7 137.4C90.2 137.4 89.4 137.6 88.7 137.8C88.8 138 88.7 138 88.5 138.1V137.9C87.8 138.4 88 137.6 87.4 138.1C87.4 138 87.4 138.4 87.4 138.4C86.9 138.9 86.9 138.2 86.4 138.9C86.7 138.8 86.7 139.2 86.4 139.3V139.1C86.3 139.2 86.2 139.3 86.1 139.3C86.1 139.2 86.1 139 85.8 139.2V138.9C85.9 138.9 85.5 139.4 85.5 139.4C85 139.4 84.5 139.8 84.3 139.7C84.3 139.7 83.4 139.9 83.3 140.2C83.4 140 82.9 140.1 83 139.9C82.8 140.2 82.3 140.5 81.9 140.4C80.9 140.5 80.4 141.2 79.4 141.3C79.5 141.5 79 141.5 79.2 141.7C78.4 142.3 77.4 141.8 77.4 142.7C77 142.9 76.9 142.7 76.6 142.7C75.9 143 75.7 143.1 75.1 143.3C74.8 143.5 74.9 143.8 74.4 144C74.5 143.8 74.4 144 74.1 144C74.2 144 74.2 143.9 73.9 143.9C73.9 143.9 73.9 144 73.8 144C73.5 144.2 73.6 144.2 73.8 144.2C73.4 144.2 72.9 144.6 72.8 144.4C71.9 144.8 71.3 145.4 70.6 145.8C70.5 145.8 70.6 145.5 70.8 145.4L70.3 145.7C70.3 145.5 70.6 145.5 70.7 145.4C69.9 145.4 69.5 146.3 68.6 146.4V146.6H68.4C68.4 146.6 68.4 146.8 68.2 146.9C68 146.8 68.1 146.6 67.7 146.7C67.3 146.7 66.9 147.1 66.5 147.4C66.7 147.4 66.7 147.4 66.6 147.5C66.4 147.5 66.2 147.5 66.1 147.6V147.4C66.1 147.6 65.6 147.8 65.6 148C65.4 148 65.8 147.7 65.8 147.6C65.1 148 65.4 147.8 64.7 148.2C64.4 148.5 64.9 148.4 64.7 148.6C64.4 148.8 64.1 149.1 63.6 149.2H63.8C63.2 149.8 62.8 150 62.3 150C60.3 152 60.4 152.6 60.9 152.7C61.4 152.8 62.4 152.4 62.4 152.4C63.4 152.1 64.1 151.7 64.8 151.2C65.5 150.7 66.2 150.2 67.3 149.6L66.9 149.4Z" fill="#FF2626"/>
<path d="M61.1 137C62.9 135.5 63.7 135.4 65.4 133.7C66.3 132.9 67.1 132.1 67.9 131.3C68.1 130.7 69 130.3 69.3 129.7H69.6C69.7 129.4 69.9 129.2 70.1 129.2C70.3 128.9 70.6 128.7 70.7 128.6L71 128.4C71.3 128 71.8 127.6 72.2 127.3H72C73 126.6 73 126 73.9 125.5C74.5 124.3 75.6 124.5 76.2 123.2C76.2 123.4 76.3 123.2 76.3 123.2C76.7 122.8 77.2 122.3 76.9 122C77.2 121.7 77.2 121.9 77.4 122C77.3 121.9 77.5 121.6 77.8 121.3V121.5L78.4 120.8H78C78.4 120.4 78.4 120.8 78.7 120.5L78.5 120.3C79.1 119.9 79.7 119.9 80.3 119.6C82.5 117.8 84.4 115.3 86.8 114.1H87C87.2 114.4 87.3 113.4 87.5 113.5L87.7 113.2C87.8 113.2 88 113.2 87.9 113.2C88.1 113 88.1 113 88.2 112.8H88.6C89.6 112.2 90.1 111.4 91.1 110.7C91.8 110.5 92.6 109.9 93.5 109.3C94.3 108.7 95.1 108 95.7 107.5C96.1 107.1 96.6 106.8 97.1 106.6C97.6 106.4 98.2 106.2 98.7 106C99.8 105.6 100.9 105.2 101.8 104.5L102 104.3L103.8 103.5C103.8 103.5 104.1 103.4 104.3 103.3C104.4 103.3 104.6 103.3 104.7 103.3V103.1V101.7C103.2 103.6 102 105.8 106.3 103.2L106.9 102.9L106.4 101.9C106.4 101.9 106.4 101.8 106.3 101.7H106.4C106 101.2 105.4 101 105 100.9C104.6 100.9 104.2 100.9 104 100.9C103.5 101 103 101.3 102.8 101.6C102.5 101.3 101.9 102 101.6 102C101.1 102.5 100.2 102.3 99.7 102.9C99.7 102.9 99.7 102.8 99.8 102.7C99.4 102.9 98.8 103.3 98.7 103.2C97.7 103.8 96.2 104.5 95.8 105.2C95.6 105.6 95.4 105.4 95 105.8C94.7 106.3 93.9 106.5 93.6 106.8H93.5C93.5 106.7 92.7 107.2 92.7 107.2L93 107C93.1 107.4 92.3 107.1 91.9 107.8C91.4 108.1 91.4 109.2 90.7 109.4C90.6 109.7 90.7 109 90.4 109.4C90.3 109.2 90.4 109.2 90.3 109.1C90 109.4 89.5 109.3 89.2 109.8H89.1C88.7 110.4 87.9 110.3 87.6 110.8C87.1 111.4 86.9 110.7 86.5 111.4H86.1C85.8 111.6 86.1 111.8 85.7 111.9C85.7 111.8 85.3 112.1 85.3 111.9C84.5 112.2 84.2 113.2 83.1 113.6C83.1 114 82.6 114.2 82.6 114.5C82.5 114.5 81.7 115.2 82 114.5C82 114.5 82.1 114.4 82.1 114.5V114.3C81.4 114.5 81.3 115.2 80.8 115.5C81 115.5 81.2 115.3 81.1 115.5L80.6 115.9V115.7L79.9 116.2H80.1C79.7 116.5 79.4 116.3 79.2 116.8C79.2 117 79.7 116.8 79.4 117.1C78.9 117.4 78.1 117.8 77.6 118.2C77.8 118.3 77.6 118.4 77.6 118.6H77.5C77.1 119.2 77 118.4 76.6 119C76.6 118.9 76.6 119.3 76.6 119.3C76.3 120 76.1 119.3 75.8 120.1C76 119.9 76.2 120.3 75.8 120.5V120.3C75.6 120.5 75.6 120.6 75.5 120.6C75.5 120.5 75.4 120.4 75.2 120.6V120.3L75 120.9C74.6 121.1 74.2 121.7 73.9 121.6C73.9 121.6 73.1 122.1 73.1 122.5C73.1 122.3 72.7 122.5 72.7 122.3C72.7 122.6 72.2 123.2 71.9 123.2C71 123.7 70.7 124.6 69.9 125C70.1 125.1 69.6 125.4 69.9 125.5C69.3 126.4 68.2 126.3 68.5 127.2C68.2 127.5 68 127.4 67.8 127.5C67.2 128 67.1 128.2 66.6 128.6C66.4 128.9 66.6 129.2 66.2 129.5C66.2 129.3 66.1 129.5 65.9 129.5C65.9 129.4 65.9 129.3 65.7 129.5C65.7 129.5 65.7 129.6 65.7 129.7C65.5 130 65.6 130 65.7 129.9C65.7 129.9 65.7 129.9 65.8 129.9C65.4 130 65.1 130.6 64.9 130.4C64.2 131.1 63.8 131.8 63.2 132.5C63 132.5 63.2 132.2 63.2 132L62.8 132.4C62.7 132.3 63 132.1 63.1 131.9C62.4 132.2 62.2 133.1 61.3 133.5V133.7C61.3 133.7 61.3 134 61.2 134.1C61 134.1 61 133.8 60.6 134.1C60.2 134.2 59.9 134.8 59.7 135.1C59.9 135 59.9 135.1 59.9 135.1C59.7 135.2 59.5 135.1 59.5 135.4L59.3 135.2C59.5 135.3 59 135.7 59 135.8C58.8 135.8 59.2 135.5 59.1 135.4C58.5 136 58.8 135.7 58.1 136.2C57.9 136.6 58.3 136.3 58.3 136.6C58 136.9 57.8 137.3 57.4 137.5H57.6C57.1 138.2 56.7 138.4 56.2 138.6C54.5 141 54.6 141.6 55.1 141.6C55.6 141.6 56.6 141 56.6 141C58.6 139.9 59.2 138.7 61.1 136.9V137Z" fill="#FF2626"/>
<path d="M38.5 170.8C38.4 170.8 38 170.8 38.1 170.9C38.1 170.9 38.1 170.9 38.1 171C38.4 171 38.1 171 38.3 171.1H38.1C38.2 171.1 38.1 171.1 38.2 171.1C38.3 171.1 38.3 171.1 38.2 171.1H38.4C38.2 171.1 38.6 171.2 38.4 171.2C38.9 171.4 38 171.2 38.5 171.3C38.5 171.3 38.4 171.3 38.3 171.3C38.3 171.3 38.3 171.3 38.8 171.5C38.8 171.5 38.7 171.5 38.5 171.5C38.7 171.5 38.7 171.5 38.7 171.5H39C39 171.5 38.6 171.5 38.7 171.5H39C39 171.5 38.5 171.5 38.3 171.5C38.2 171.5 38.8 171.8 38.3 171.8H38.1C37.8 171.7 38.5 171.8 38.3 171.8H38.4C38.4 171.8 38.3 171.8 38.2 171.8C38.2 171.8 38.2 171.8 38.3 171.8H38.1C37.9 171.8 38.3 171.8 38.2 171.9C37.8 171.9 38.2 172 38.3 172.1C38.7 172.3 37.5 172.1 38 172.3C38 172.3 37.8 172.7 40.3 173C40.5 173 40.5 173 40.2 172.9C40.6 172.9 40.2 172.9 40.4 172.9C40.7 172.9 40.1 172.9 40.4 172.9H40.5C40.5 172.9 40.4 172.9 40.6 172.9C40.6 172.9 40.6 172.9 40.3 172.7C40.1 172.7 40.3 172.7 40.1 172.7C39.9 172.7 40.1 172.7 40 172.7H40.2C40.5 172.7 39.8 172.7 40.2 172.7C40.2 172.7 39.3 172.5 39.6 172.5C39.4 172.5 39.9 172.5 39.8 172.5C40 172.5 39.9 172.5 40.1 172.5H40.3C40.5 172.5 40 172.5 40.3 172.5C40.2 172.5 40.8 172.5 40.5 172.5H40.7C40.7 172.5 40.4 172.5 40.5 172.5C40.6 172.5 40.6 172.5 40.8 172.5C41 172.5 40.5 172.4 40.8 172.5C40.5 172.5 40.7 172.5 40.5 172.4C40.6 172.4 40.5 172.4 40.8 172.4H41C41.3 172.4 40.8 172.4 40.9 172.4C40.9 172.4 40.9 172.4 40.7 172.4H40.8H40.6C40.6 172.4 41 172.4 40.7 172.4C40.6 172.4 40.5 172.4 40.4 172.4C40.5 172.4 40.7 172.4 40.8 172.4C40.6 172.4 40.6 172.4 40.6 172.4H40.8C40.6 172.4 41.2 172.5 41 172.4H41.1H40.7C41.1 172.4 40.4 172.3 40.7 172.4C40.7 172.4 40.3 172.4 40.4 172.4H40.6H40.8H41H40.7C40.9 172.4 40.7 172.4 40.9 172.4C40.9 172.4 41 172.4 40.8 172.4C41 172.4 41 172.4 41.2 172.4C41 172.4 40.9 172.3 41.1 172.4C41.3 172.4 40.8 172.3 41.1 172.4C40.9 172.4 41.1 172.4 40.8 172.4C40.6 172.4 41.3 172.4 40.6 172.3H40.8C40.8 172.3 40.4 172.2 40.5 172.2C40.6 172.2 40.6 172.2 40.6 172.2C40.6 172.2 40.6 172.2 40.8 172.2C40.8 172.2 40.8 172.2 40.7 172.2C40.9 172.2 40.7 172.2 40.9 172.2C40.9 172.2 40.6 172.1 40.5 172C40.6 172 40.7 172 40.8 172C41 172 40.9 172 40.9 172C41.2 172 40.6 171.9 40.9 172H40.8H40.6C40.8 172 41 172 41 172C41.2 172 41 172 40.8 172C40.8 172 40.7 172 40.6 172H40.8C40.6 172 40.6 172 40.5 172C40.7 172 40.6 172 40.8 172C40.6 172 40.6 172 40.4 172H40.2C40.1 172 40.1 171.9 40.2 172C38.7 171.5 38.1 171.5 38.1 171.5C37.7 171.5 38.2 171.6 38.3 171.8L38.5 170.8Z" fill="#FF2626"/>
<path d="M31.6 168.9C31.5 168.9 31.1 168.9 31.2 168.9C31.2 168.9 31.2 169 31.2 169.1C31.5 169.2 31.2 169.1 31.4 169.3H31.2C31.3 169.3 31.3 169.3 31.2 169.3H31.4C31.2 169.3 31.6 169.5 31.3 169.4C31.8 169.6 30.9 169.3 31.3 169.6C31.3 169.6 31.3 169.6 31.2 169.6C31.2 169.6 31.2 169.6 31.6 169.8C31.6 169.8 31.5 169.8 31.3 169.7C31.5 169.7 31.5 169.8 31.5 169.8H31.8C31.8 169.9 31.4 169.8 31.5 169.8H31.7C31.7 169.9 31.3 169.8 31.1 169.7C30.9 169.7 31.5 170.2 31.1 170H30.9C30.6 169.8 31.3 170.1 31 170H31.1C31.1 170 31 170 30.9 170C30.9 170 30.9 170 31 170H30.8C30.6 170 31 170 30.8 170.1C30.4 170 30.8 170.2 30.8 170.4C31.2 170.7 30 170.3 30.5 170.5C30.5 170.5 30.2 170.9 32.6 171.6C32.8 171.6 32.8 171.6 32.6 171.5C33 171.7 32.6 171.5 32.8 171.5C33.1 171.5 32.5 171.4 32.8 171.5H32.9C32.9 171.5 32.8 171.5 33 171.5C33 171.5 33 171.5 32.8 171.2C32.6 171.2 32.8 171.2 32.7 171.2C32.5 171.1 32.7 171.2 32.6 171.1H32.7C33 171.1 32.3 170.9 32.7 171.1C32.7 171.1 31.9 170.7 32.1 170.7C31.9 170.7 32.4 170.8 32.3 170.7C32.5 170.7 32.4 170.7 32.6 170.8H32.8C33 170.9 32.5 170.8 32.8 170.8C32.7 170.8 33.3 171 33 170.8H33.2C33.2 170.8 32.9 170.8 33.1 170.8C33.2 170.8 33.2 170.8 33.3 170.8C33.5 170.8 33 170.6 33.4 170.8C33.1 170.7 33.4 170.8 33.1 170.6C33.2 170.6 33.1 170.6 33.4 170.7H33.6C33.9 170.9 33.5 170.7 33.6 170.7C33.6 170.7 33.6 170.7 33.5 170.7H33.6H33.4C33.4 170.7 33.8 170.8 33.5 170.7C33.4 170.7 33.3 170.7 33.2 170.6C33.3 170.6 33.5 170.6 33.6 170.6C33.4 170.6 33.4 170.6 33.4 170.5H33.6C33.4 170.5 34 170.7 33.8 170.6H33.9L33.6 170.5C33.9 170.6 33.3 170.3 33.6 170.5C33.6 170.5 33.2 170.3 33.3 170.4H33.5C33.5 170.4 33.7 170.5 33.7 170.4H33.9H33.6C33.8 170.4 33.6 170.4 33.8 170.4C33.8 170.4 33.9 170.4 33.7 170.3C33.8 170.3 33.9 170.3 34.1 170.5C33.9 170.5 33.8 170.3 34 170.4C34.2 170.4 33.8 170.2 34 170.3C33.8 170.3 34 170.3 33.7 170.1C33.5 170 34.2 170.3 33.5 169.9H33.7C33.7 169.9 33.3 169.7 33.4 169.7C33.5 169.7 33.5 169.7 33.5 169.7C33.5 169.7 33.5 169.7 33.7 169.7C33.7 169.7 33.7 169.7 33.6 169.7C33.8 169.7 33.6 169.7 33.8 169.7C33.8 169.7 33.5 169.5 33.5 169.4C33.6 169.4 33.7 169.5 33.8 169.5C34 169.5 33.8 169.5 33.9 169.5C34.2 169.6 33.6 169.3 33.9 169.5H33.8H33.6C33.8 169.5 33.9 169.7 33.9 169.6C34 169.6 33.9 169.6 33.8 169.5C33.8 169.5 33.7 169.5 33.6 169.5H33.8C33.6 169.5 33.6 169.5 33.5 169.5C33.7 169.5 33.6 169.5 33.7 169.6C33.6 169.6 33.5 169.6 33.3 169.4H33.1C33 169.2 33.1 169.2 33.1 169.3C31.7 168.4 31.1 168.4 31.1 168.4C30.7 168.3 31.1 168.6 31.3 168.7L31.6 168.9Z" fill="#FF2626"/>
<path d="M24.7 159.2C24.5 159.2 24.3 158.9 24.3 159.2C24.3 159.2 24.3 159.3 24.3 159.4C24.5 159.6 24.3 159.4 24.3 159.7H24.2V159.9C24.4 160.1 24.2 159.8 24.2 159.9C24.5 160.3 23.9 159.7 24.2 160.1C24.2 160.1 24.2 160.1 24.1 160C24.1 160 24.1 160.1 24.4 160.4C24.4 160.4 24.4 160.4 24.2 160.2C24.3 160.3 24.3 160.4 24.3 160.4L24.5 160.6C24.5 160.6 24.2 160.3 24.3 160.4L24.5 160.6C24.5 160.6 24.2 160.3 24 160.2C23.8 160.2 24.1 160.8 23.7 160.6V160.4C23.4 160.2 23.8 160.8 23.7 160.6C23.7 160.6 23.7 160.6 23.6 160.6C23.6 160.6 23.6 160.6 23.6 160.7H23.5C23.5 160.8 23.4 160.5 23.5 160.7C23.2 160.5 23.3 160.8 23.4 161C23.6 161.4 22.7 160.6 23 161H22.9C22.9 161 22.4 161.3 24.3 162.9C24.4 163 24.5 163 24.3 162.8C24.6 163.1 24.3 162.8 24.5 162.8C24.7 163 24.3 162.6 24.5 162.8V162.9C24.5 162.9 24.5 162.8 24.6 162.9C24.6 162.9 24.7 162.9 24.6 162.5C24.5 162.3 24.6 162.5 24.6 162.4C24.5 162.2 24.6 162.4 24.6 162.2H24.7C24.9 162.4 24.4 161.9 24.7 162.2C24.7 162.2 24.2 161.5 24.3 161.6C24.2 161.4 24.5 161.9 24.4 161.7C24.5 161.9 24.4 161.8 24.6 161.9C24.6 161.9 24.8 162 24.7 161.9H24.8C25 162.2 24.6 161.8 24.8 161.9C24.8 161.8 25.2 162.3 25 161.9L25.2 162.1C25.2 162.1 25 161.9 25.2 161.9C25.2 162 25.2 161.9 25.4 162.1C25.6 162.2 25.3 161.8 25.6 162.1C25.4 161.9 25.6 162 25.4 161.8C25.4 161.8 25.4 161.8 25.6 162H25.7C25.7 162 25.7 162 25.6 161.9V162H25.5C25.5 162 25.8 162.3 25.6 162C25.6 161.9 25.4 161.8 25.4 161.8C25.5 161.8 25.7 162 25.7 162C25.6 161.8 25.6 161.8 25.6 161.8H25.7C25.6 161.8 26 162.2 25.9 162L25.7 161.8C25.5 161.5 25.9 162.1 25.7 161.7C25.7 161.7 25.4 161.4 25.5 161.5H25.6C25.6 161.5 25.8 161.7 25.7 161.7V161.9C25.8 161.9 25.7 161.6 25.7 161.6C25.8 161.7 25.7 161.6 25.9 161.7C25.9 161.7 26 161.7 25.9 161.6C25.9 161.7 26.1 161.8 26.2 161.9C26.1 161.8 26 161.6 26.2 161.8C26.4 161.9 26.1 161.5 26.2 161.8C26.1 161.6 26.2 161.8 26 161.5C25.9 161.3 26.4 161.8 26 161.2C26 161.2 26.1 161.3 26.2 161.3C26.2 161.3 25.9 160.9 26 161C26 161 26 161 26.1 161.1C26.2 161.2 26.1 161.1 26.3 161.2C26.3 161.2 26.2 160.9 26.1 160.8L26.3 161C26.5 161.2 26.2 160.7 26.3 161C26.3 160.9 26.3 160.9 26.3 160.9C26.3 160.9 26.2 160.8 26.2 160.7C26.3 160.8 26.4 161 26.5 161C26.6 161.1 26.5 161 26.5 160.8C26.5 160.8 26.5 160.8 26.4 160.7V160.9C26.4 160.7 26.4 160.7 26.4 160.6C26.5 160.7 26.4 160.7 26.6 160.8C26.6 160.7 26.5 160.6 26.3 160.5H26.2C26.2 160.2 26.2 160.2 26.3 160.4C25.5 159 24.9 158.7 24.9 158.7C24.5 158.4 24.9 158.9 24.9 159.1L24.7 159.2Z" fill="#FF2626"/>
<path d="M21.6 177.8C21.4 177.8 21.2 177.5 21.2 177.8C21.2 177.8 21.2 177.9 21.1 178C21.3 178.3 21.1 178 21.1 178.3H21V178.5C21.2 178.7 21 178.4 21 178.5C21.3 178.9 20.7 178.2 21 178.7C21 178.7 21 178.7 21 178.6C21 178.6 21 178.7 21.2 179C21.2 179 21.2 179 21 178.8C21.1 178.9 21.1 179 21.1 179L21.3 179.3C21.3 179.3 21.1 179 21.1 179.1L21.3 179.3C21.3 179.3 21 179 20.8 178.8C20.6 178.8 20.8 179.5 20.5 179.2V179C20.2 178.8 20.6 179.4 20.5 179.2C20.5 179.2 20.5 179.2 20.4 179.2C20.4 179.2 20.4 179.2 20.4 179.3H20.3C20.3 179.4 20.2 179.1 20.3 179.3C20 179 20.1 179.4 20.1 179.6C20.3 180 19.4 179.2 19.6 179.6H19.5C19.5 179.6 19 179.9 20.8 181.6C20.9 181.7 21 181.7 20.8 181.5C21 181.8 20.8 181.5 21 181.5C21.2 181.7 20.8 181.3 21 181.5V181.6C21 181.6 21 181.4 21.1 181.6C21.1 181.6 21.3 181.6 21.1 181.2C21 181 21.1 181.2 21.1 181.1C21 180.9 21.1 181.1 21.1 180.9C21.3 181.1 20.8 180.5 21.1 180.9C21.1 180.9 20.6 180.1 20.8 180.3C20.7 180.1 21 180.6 20.9 180.4C21 180.6 20.9 180.5 21.1 180.7C21.1 180.6 21.3 180.9 21.2 180.7H21.3C21.5 181 21.1 180.6 21.3 180.7C21.3 180.6 21.6 181.1 21.5 180.7L21.7 180.9C21.7 180.9 21.5 180.7 21.7 180.7C21.7 180.8 21.7 180.7 21.9 180.9C22.1 181.1 21.8 180.6 22.1 180.9C21.9 180.7 22.1 180.8 21.9 180.6C21.9 180.6 21.9 180.6 22.1 180.8C22.1 180.8 22.1 180.8 22 180.7V180.8L21.9 180.7C21.9 180.7 22.2 181 22 180.7C22 180.6 21.8 180.5 21.8 180.5C21.8 180.5 22 180.7 22.1 180.7C22 180.5 22 180.5 22 180.5H22.1C22 180.5 22.3 180.9 22.3 180.8L22.1 180.6C21.9 180.3 22.3 180.9 22.1 180.5L21.9 180.2L22 180.4V180.6C22.1 180.6 22 180.3 22 180.3C22.1 180.4 22 180.3 22.2 180.4C22.2 180.4 22.3 180.4 22.2 180.2C22.2 180.3 22.4 180.4 22.5 180.5C22.5 180.3 22.3 180.2 22.5 180.3C22.7 180.4 22.5 180 22.6 180.2C22.5 180 22.6 180.2 22.4 179.9C22.3 179.7 22.8 180.3 22.4 179.6C22.4 179.6 22.5 179.7 22.6 179.8C22.6 179.8 22.3 179.4 22.4 179.5C22.4 179.5 22.4 179.5 22.5 179.6C22.6 179.7 22.5 179.6 22.7 179.8C22.7 179.8 22.6 179.5 22.6 179.4C22.6 179.5 22.7 179.6 22.8 179.6C23 179.8 22.7 179.3 22.8 179.5C22.8 179.4 22.8 179.4 22.8 179.4L22.7 179.2C22.8 179.3 22.9 179.5 22.9 179.5C23 179.6 22.9 179.5 22.9 179.3C22.9 179.3 22.9 179.3 22.8 179.2V179.4C22.8 179.2 22.8 179.2 22.8 179.1C22.9 179.2 22.8 179.2 22.9 179.3C22.9 179.2 22.8 179.1 22.7 179V178.8C22.6 178.7 22.5 178.7 22.7 178.8C22 177.3 21.4 177 21.4 177C21 176.7 21.4 177.2 21.3 177.4L21.6 177.8Z" fill="#FF2626"/>
<path d="M30 188.8C29.8 188.8 29.6 188.5 29.5 188.8C29.5 188.8 29.5 188.9 29.4 189C29.6 189.2 29.4 189 29.4 189.3H29.3H29.5C29.3 189.3 29.5 189.6 29.3 189.5C29.7 189.9 28.9 189.4 29.3 189.7C29.3 189.7 29.3 189.7 29.2 189.7C29.2 189.7 29.2 189.8 29.6 190C29.6 190 29.5 190 29.4 189.9C29.5 189.9 29.6 190.1 29.6 190.1L29.9 190.3C29.9 190.3 29.6 190.1 29.6 190.2H29.8C29.8 190.3 29.4 190.2 29.2 190.1C29 190.2 29.6 190.7 29.1 190.6H28.9C28.6 190.4 29.3 190.7 29 190.6H29.1C29.1 190.6 29 190.6 28.9 190.6C28.9 190.6 28.9 190.6 29 190.6H28.8C28.6 190.6 29 190.7 28.8 190.8C28.4 190.8 28.8 191.1 28.9 191.2C29.3 191.3 28.1 191.4 28.6 191.6C28.6 191.7 28.6 191.9 28.9 192C29.2 192 29.8 191.9 31 191.7C31.2 191.7 31.2 191.7 30.9 191.7C31.3 191.7 30.9 191.7 31.1 191.7C31.4 191.7 30.8 191.7 31.1 191.7H31.2C31.2 191.7 31.2 191.7 30.9 191.7C30.7 191.7 30.9 191.7 30.7 191.7C30.5 191.7 30.7 191.7 30.6 191.7H30.8C31.1 191.7 30.4 191.7 30.8 191.7C30.8 191.7 29.9 191.5 30.2 191.5C30 191.5 30.5 191.5 30.4 191.5C30.6 191.5 30.5 191.5 30.7 191.5H30.9C31.1 191.5 30.6 191.5 30.9 191.5C30.8 191.5 31.4 191.6 31.1 191.5H31.3C31.3 191.5 31 191.5 31.1 191.5C31.2 191.5 31.2 191.5 31.3 191.5C31.5 191.5 31 191.4 31.3 191.5C31 191.4 31.2 191.5 31 191.4C31.1 191.4 31 191.4 31.3 191.5H31.5C31.8 191.7 31.3 191.5 31.4 191.5C31.4 191.5 31.4 191.5 31.3 191.5H31.4H31.2C31.2 191.5 31.5 191.7 31.3 191.5C31.2 191.5 31.1 191.4 31 191.4C31.1 191.4 31.3 191.5 31.3 191.6C31.1 191.5 31.1 191.6 31.1 191.5H31.2C31 191.5 31.5 191.8 31.4 191.7H31.5L31.2 191.6C31.5 191.8 30.9 191.4 31.2 191.6L30.9 191.4H31L31.2 191.5H31.4C31.4 191.6 31.2 191.5 31.2 191.5C31.3 191.5 31.2 191.5 31.4 191.5C31.4 191.5 31.4 191.5 31.3 191.5C31.4 191.5 31.5 191.6 31.6 191.7C31.5 191.6 31.3 191.5 31.5 191.7C31.7 191.8 31.3 191.5 31.5 191.7C31.4 191.6 31.5 191.7 31.2 191.5C31 191.3 31.6 191.8 31 191.3C31 191.3 31.1 191.4 31.2 191.4C31.2 191.4 30.9 191.1 31 191.1C31 191.1 31 191.1 31.1 191.2C31.2 191.3 31.1 191.2 31.3 191.4L31.1 191.1C31.1 191.1 31.2 191.3 31.3 191.3C31.5 191.5 31.1 191.1 31.3 191.3C31.3 191.3 31.3 191.2 31.2 191.1C31.2 191.2 31.4 191.4 31.4 191.4C31.4 191.5 31.4 191.4 31.4 191.3C31.4 191.3 31.4 191.3 31.4 191.2V191.4C31.4 191.2 31.4 191.2 31.4 191.1C31.4 191.2 31.4 191.2 31.5 191.3C31.5 191.2 31.5 191.1 31.3 191V190.8C31.2 190.7 31.2 190.7 31.3 190.8C31 190.1 30.9 189.5 30.7 189.2C30.5 188.9 30.4 188.8 30.4 188.8C30.1 188.5 30.2 189 30.2 189.2L30 188.8Z" fill="#FF2626"/>
<path d="M35.9 183.1C35.9 183.1 35.5 183.3 35.6 183.3C35.6 183.3 35.6 183.3 35.7 183.3C36 183.3 35.7 183.3 36 183.3H35.8C35.9 183.3 35.8 183.3 35.9 183.3C36 183.3 35.9 183.3 36.1 183.3C36.1 183.3 36.2 183.3 36.3 183.3C36.3 183.3 36.4 183.3 36.5 183.3C36.5 183.3 36.6 183.3 36.7 183.3C36.7 183.3 36.6 183.3 36.5 183.3H36.7C36.7 183.3 36.5 183.3 36.6 183.3L36.9 183.5C36.9 183.5 36.9 183.5 36.9 183.4C36.9 183.4 36.9 183.6 36.8 183.7H36.9C36.9 183.7 36.9 183.7 36.8 183.7C36.5 183.7 36 183.6 35.4 184C35.3 184.2 35.4 184.4 35.7 184.4C35.4 184.6 35.7 184.6 35.7 184.7C36 184.7 35.7 185.1 36 185C36 185 36 185.1 35.9 185C35.9 185 36.1 185 36 185.2C36.2 185.2 36.4 185.4 36.6 185.2C36.7 185 36.6 185.2 36.8 185.2C36.9 185 36.9 185.2 37 185.1V185.3C37 184.8 37 185.5 37.1 185.3C37.1 185.3 37.2 184.4 37.2 184.6C37.2 184.4 37.2 184.9 37.2 184.8C37.2 185 37.2 184.9 37.2 185.1C37.2 185 37.2 185.3 37.3 185.1V185.3C37.3 185 37.5 185.5 37.5 185.2C37.5 185 37.7 185.7 37.7 185.3V185.5C37.9 185.5 37.7 185.2 37.8 185.3C37.8 185.4 37.8 185.3 37.9 185.5C38.1 185.7 37.9 185.1 38.3 185.4C38.2 185.1 38.3 185.2 38.3 185C38.3 185 38.4 185 38.5 185.2C38.8 185.5 38.5 185.1 38.6 185C38.6 185 38.6 185 38.5 185H38.7L38.5 184.8C38.6 184.8 38.9 184.9 38.7 184.8C38.6 184.8 38.5 184.8 38.5 184.6C38.6 184.6 38.8 184.6 38.9 184.6C38.7 184.6 38.7 184.5 38.7 184.5H38.9C38.7 184.4 39.3 184.7 39.1 184.5H39.2L38.9 184.4C38.6 184.2 39.3 184.4 38.9 184.2C38.9 184.2 38.5 184.1 38.6 184.1H38.8H39H39.2H38.9C39.1 184.1 38.9 184 39.1 184.1C39.1 184.1 39.2 184.1 39 184C39.2 184 39.2 184 39.4 184C39.2 184 39.1 183.8 39.3 183.8C39.5 183.8 39 183.6 39.3 183.5C39.1 183.5 39.3 183.5 39 183.5C38.7 183.5 39.5 183.3 38.7 183.3H38.9C38.9 183.3 38.9 183.3 38.9 183.2H38.5C38.6 183.2 38.6 183.2 38.6 183.2C38.6 183.2 38.6 183.2 38.8 183.2C38.8 183.2 38.8 183.2 38.7 183.2C38.9 183.2 38.7 183.2 38.9 183.2C38.9 183.2 38.6 183.2 38.5 183.2C38.6 183.2 38.7 183.2 38.8 183.2C39 183.2 38.9 183.2 38.9 183.2C39.2 183.1 38.6 183.2 38.9 183.1H38.8H38.6C38.8 183.1 39 183.1 39 183C39.1 183 39 183 38.8 183C38.8 183 38.7 183 38.6 183H38.8C38.6 183 38.6 183 38.5 183C38.7 183 38.6 183 38.8 183C38.6 183 38.6 183 38.4 183.1H38.2C38.1 183.1 38 183.1 38.2 183.1C37.4 183.2 36.9 183.4 36.6 183.5C36.3 183.6 36.1 183.7 36.1 183.7C35.7 183.9 36.3 183.7 36.4 183.7L35.9 183.1Z" fill="#FF2626"/>
</svg>
