<svg width="306" height="493" viewBox="0 0 306 493" fill="none" xmlns="http://www.w3.org/2000/svg">
<path d="M235.5 359.7L235.9 359.4C235.9 359.4 235.8 359.4 235.5 359.7Z" fill="#FF2626"/>
<path d="M233.8 365.6C237.9 360.9 239.3 359.9 243.4 354.9C245.4 352.6 247.5 350 249.4 347.7C250.1 346.4 252 344.7 252.9 343.2L253.5 342.8C253.8 342.3 254.2 341.7 254.7 341.4C255.2 340.7 255.9 340 256.1 339.6L256.8 338.8V339C257.6 337.8 258.6 336.6 259.6 335.5H259.4C261.5 333.4 261.9 332.3 263.8 330.4C264.7 329 265.6 328 266.6 327.1C267.5 326.1 268.5 325.2 269.5 323.6C269.3 324 269.7 323.6 269.7 323.6C270.2 322.9 270.7 322.1 270.9 321.5C271.2 320.9 271.3 320.3 271.1 320.3C271.6 319.1 271.5 319.3 271.8 319.2C271.6 319.2 271.8 318 271.8 316.9V317.4C271.8 316.3 271.5 315.3 270.9 314.4C270.9 314.6 270.9 314.9 270.9 315.1C270.5 314.4 270.5 314.3 270.5 314.1C270.5 314 270.5 313.8 269.8 313.3L269.6 313.5C268.7 312.8 267.9 312.4 267.1 312.1C266.3 311.8 265.4 311.6 264.3 311.7C261.9 312.1 260.1 313.4 258.5 314.8C257 316.2 255.7 317.7 254.3 319.1C251.6 322 249 324.8 246.4 327.4H246C245.7 327.4 245 329.3 244.6 329.3L244.1 330C243.9 330.1 243.5 330.5 243.8 330.1C243.3 330.7 243.3 330.7 243 331.2L242.3 331.7C240.2 333.9 238.8 336.1 236.7 338.6C233.9 341.3 229.7 347.2 227.3 350.7C224 355.6 218.9 360.2 215.6 365.3C215.4 365.4 215.2 365.9 215.2 365.9L213.5 368.1C212.9 368.8 212.3 369.5 211.8 370.4C211.8 370.4 211.5 370.8 211.2 371.5C210.9 372.2 210.4 373.4 210.6 374.9C210.7 375.6 211 376.4 211.5 377C211.9 377.6 212.5 378.1 213 378.5C214.1 379.3 215.1 379.9 215.9 380.4C216.7 380.9 217.2 381.4 217.6 381.8C217.9 382.1 218.2 382.3 218.2 382.1C218.2 381.9 218.2 381.2 217.5 380.2C217.1 379.7 216.6 379.1 215.9 378.4C215.2 377.8 214.4 377 213.7 376.2H213.8C213 375.3 212.9 374.5 213 373.8C213.1 373 213.5 372.2 213.9 371.3C214.2 371.3 214.5 370.8 214.9 370.3C215.3 369.8 215.7 369.2 216 368.9C216.9 367.3 218.5 366.2 219.4 364.6C219.4 364.6 219.4 364.8 219.2 365.1C220 364.1 221 362.6 221.2 362.7C223 360.2 225.8 356.9 226.7 355.1C227.2 354.2 227.6 354.1 228.2 353H228.3C228.9 351.9 230.5 350.2 231 349.3H231.2L232.7 347.4L232.1 348.1C232 347.6 233.5 346.8 234.3 345.3C235.4 344 235.7 342.1 237 340.9C237.4 340.1 236.8 341.7 237.5 340.6C237.7 340.7 237.2 341.1 237.5 341C238.2 340 238.9 339.6 239.7 338.4H239.9C240.9 336.8 242.4 335.8 243 334.6C244.2 333 244.3 333.9 245.4 332.1L246.1 331.6C246.7 331 246.3 330.9 247 330.3C247 330.4 247.9 329.4 247.6 330C249.2 328.5 250.4 326.4 252.7 324.6C252.9 323.9 254.1 323 254.2 322.5C254.3 322.5 256.3 320.4 255.3 321.8C255.3 321.9 255 322.1 255 322V322.3C256.4 321.3 257 320 258.2 318.9C257.8 319.2 257.4 319.7 257.6 319.3L258.7 318.2V318.5C259.1 318 259.7 317.5 260.2 317.1H259.9C260.8 316.5 261.2 316.6 262 315.7C262.4 315.3 261.1 316 262 315.4C262.6 315.1 263.4 314.8 264.2 314.7C265 314.6 265.8 314.7 266.5 314.7C266.5 314.5 266.8 314.5 267.2 314.7V314.9C267.9 315.1 267.9 315.3 268 315.4C268 315.6 268 315.7 268.5 316.1C268.5 316.1 268.4 316.1 268.3 316.1C268.5 316.1 268.6 316.1 268.8 316.1C269 316.3 269.1 316.5 269.1 316.6C269.1 316.7 269.1 316.8 269.1 316.9C269.1 317.1 269.1 317.2 269.2 318C269.2 317.4 269.7 317.7 269.4 318.5C269.4 318.5 269.4 318.3 269.3 318.3C269.3 318.7 269.3 318.9 269.1 319.2C269.1 318.9 268.9 319 268.7 319.6C268.7 319.4 268.7 319.3 268.7 319.1C268.7 319.5 268.6 320 268.4 320.4C267.8 321.2 266.9 322.7 266.4 322.9C266.4 322.9 266 323.4 265.5 323.9C265 324.4 264.6 325 264.5 325.3C264.7 324.8 263.8 325.8 263.9 325.4C263.6 326 262.5 327.6 261.8 328C259.8 329.9 258.8 331.8 257 333.5C257.2 333.5 256.3 334.5 256.7 334.4C255.2 336.6 253.2 337.7 253.1 339C252.3 339.9 252 340 251.6 340.4L251.8 340.2C250.4 342 250 342.5 248.9 343.7C248.4 344.4 248.6 344.7 247.6 345.8C247.8 345.3 247.4 345.8 247.1 346.2C247.3 345.9 247.3 345.8 246.8 346.2C246.8 346.3 246.7 346.4 246.6 346.6C246 347.3 246.2 347.3 246.5 346.9C246.5 346.9 246.5 346.9 246.7 346.9C245.9 347.5 244.9 349 244.7 348.9C242.9 351.1 241.8 352.8 240.4 354.6C240.1 354.7 240.4 354.2 240.8 353.7L239.8 355C239.7 354.9 240.3 354.2 240.6 353.8C239.1 355.1 238.2 357.1 236.5 358.7L236.3 359.2H236.2C236.2 359.3 236 359.8 235.8 360.1C235.5 360.2 235.5 359.8 234.8 360.7C234.1 361.3 233.2 362.7 232.5 363.7C232.9 363.2 232.9 363.4 232.7 363.7C232.3 364.1 232 364.3 231.8 364.7H231.6C231.9 364.6 230.8 365.9 230.7 366.1C230.4 366.2 231.2 365.3 231.2 365.1C229.7 366.9 230.5 366 229 367.7C228.3 368.7 229.3 367.7 229 368.2C228.3 369.1 227.8 370 226.8 370.8L227.2 370.6C226 372.2 225.2 373.2 224.1 374.1C215.4 386.7 223.7 377.9 223.7 377.9C227.9 373.6 229.5 370.9 234 365.4L233.8 365.6Z" fill="#FF2626"/>
<path d="M207.9 417.3L207.7 417.9C207.7 417.9 207.8 417.7 207.9 417.3Z" fill="#FF2626"/>
<path d="M206.8 408.8C206 413.2 205.4 416 204.8 418.8C204.2 421.6 203.6 424.4 202.6 428.9C201.5 433.1 200 437.5 198.1 441.3C197.5 443.2 195.5 446.2 194.3 448.2C194.1 448.4 193.9 448.6 193.6 448.9C193.2 449.6 192.7 450.4 192.1 451C191.8 451.4 191.4 452 191 452.4C190.6 452.8 190.3 453.2 190.1 453.4C189.8 453.7 189.5 454.1 189.1 454.4V454.2C187.9 455.8 186.2 457.3 184.7 458.5H184.9C184.1 459.1 183.3 459.6 182.7 460.1C182.1 460.5 181.5 460.9 180.9 461.3C180.3 461.7 179.8 462 179.1 462.4C178.5 462.7 177.7 463.1 176.9 463.4C174.9 464.5 173.1 465.1 171.3 465.5C169.5 465.9 167.7 466.3 165.3 466.8C165.9 466.7 165 466.8 165.1 466.7C164 466.9 162.9 466.9 162 467C161.1 467 160.5 467.2 160.5 467.4C158.9 467.4 159.2 467.2 159 467.1C159 467.3 157.6 467.3 156.3 467.1H156.9C156.3 467.1 155.7 467 155.1 466.9L153.3 466.5L153.9 467C152 466.5 153.5 466.5 151.7 466.1V466.4C149.1 465.5 147.8 464.5 145.7 463.1C143.5 461.8 141.4 460.1 140 457.9C138.6 455.8 137.9 453.2 137.6 450.5C137.3 447.8 137.6 445.1 137.9 442.4C138.3 439.7 138.8 437.2 139.6 434.8L139.9 434.4C140.2 434.3 140.3 431.6 140.7 431.3L140.9 430.1C141.1 429.8 141.4 429.2 141.2 429.8C141.6 428.8 141.6 428.8 141.8 428C142 427.7 142.2 427.3 142.4 427C142.9 426 143.3 425.1 143.8 424.2C144.2 423.3 144.7 422.4 145.2 421.6C145.7 420.7 146.2 419.9 146.8 419C147.4 418.2 148 417.3 148.8 416.5C150.6 414.6 153.4 411.9 156.6 409.7C159.8 407.5 163.4 405.7 166.1 404.4C169.9 402.6 174.2 401 178.4 399.2C182.6 397.4 186.9 395.4 190.5 393C190.8 392.9 191.4 392.4 191.3 392.4C193.6 391 195.8 389.6 198 388C198 388 200 386.6 202.4 384.5C203.6 383.5 204.9 382.3 206.2 381C207.4 379.7 208.6 378.5 209.6 377.3C210.6 376.2 211.3 375.1 211.7 374.4C212.1 373.7 212.3 373.3 212 373.4C211.7 373.4 211 374.1 209.7 375.3C209 375.9 208.2 376.6 207.3 377.5C206.3 378.3 205.1 379.4 203.7 380.4V380.2C200.6 383 198.4 384.5 196.2 386.5C195.6 386.5 193.3 388.5 192.4 388.9C190.4 390.5 187.7 391.4 185.6 392.8C185.6 392.8 185.6 392.6 186.2 392.3C184.6 393.2 182.4 394.5 182.2 394.3C178.3 396.4 172.7 398.8 170.2 400.2H170.4C169 400.9 168.5 400.9 166.9 401.7C166.8 401.7 166.7 401.7 166.7 401.7C165.2 402.6 162 403.8 160.7 404.6H160.5C159.4 405 158.4 405.6 157.4 406.2C157.8 406 158.2 405.8 158.6 405.6C158.4 406.2 156.1 406.6 154.1 408.4C152.1 409.8 150.8 412.1 149 413.8C148.3 414.8 149.5 412.8 148.4 414.2C148.2 414.1 148.9 413.5 148.4 413.7C147.9 414.4 147.3 414.9 146.8 415.5C146.3 416.1 145.7 416.7 145.1 417.6H144.9C143.5 420.1 141.8 422 141.2 423.8C140.6 425.1 140.3 425.5 140 426C139.7 426.4 139.4 426.9 139 428.4C138.8 428.7 138.5 429.1 138.4 429.4C137.9 430.6 138.4 430.4 137.8 431.7C137.7 431.6 137.2 433.4 137.3 432.6C136.1 435.7 136 439.1 135.1 443.4C135.3 444.4 134.9 446.5 135.1 447.2C135.1 447.2 135 448.4 135 449.1C135 449.9 135 450.3 134.8 449.1C134.8 448.9 134.8 448.5 134.8 448.5L134.6 448.2C134.3 450.7 135 452.8 135.6 455.3C135.4 454.5 135.2 453.6 135.5 454.2C135.7 455 135.9 455.7 136.2 456.5L135.9 456.1C136.3 457.2 136.8 458.4 137.4 459.4C137.4 459.2 137.4 459.1 137.3 458.9C138.2 460.4 138.3 461.2 139.9 462.4C140.6 462.9 138.9 461.1 140.2 462.4C141.8 464.1 144.6 466.2 147.3 467.3C147.1 467 147.8 467.3 148.6 467.6V467.8C150.1 468.2 150.3 468.4 150.6 468.6C150.8 468.8 151.1 469 152.6 469.3H152.3L153.2 469.2C154.6 469.3 154.9 469.5 155.3 469.6C155.7 469.7 156.1 469.9 157.7 469.8C156.5 469.8 157.2 469.4 158.6 469.6H158.2C159 469.8 159.3 469.7 159.8 469.8C159.3 469.8 159.5 470 160.7 470L159.9 470.2C160.7 470.1 161.4 470 162.2 469.9C164 470 166.7 469.5 167.4 469.6C167.4 469.6 167.6 469.6 168 469.6C168.4 469.6 168.9 469.5 169.4 469.3C170.4 469 171.5 468.8 171.9 468.5C171.2 468.9 173.2 468.3 172.7 468.7C173.6 468.3 176.2 467.1 177.3 466.8H177.1C179.1 466.2 180.7 465.2 182.2 464.2C182.9 463.7 183.6 463.2 184.4 462.7C185.1 462.2 185.8 461.7 186.6 461.1C186.3 461.1 187.9 459.9 187.4 460C190.2 457.3 192.9 455.4 193.2 453.8C194.3 452.4 194.7 452.3 195.2 451.6L195 452C196.9 449.3 197.4 448.5 198.7 446.4C199.2 445.3 199 445 200.1 443.1C199.9 443.8 200.3 443 200.7 442.3C200.5 442.8 200.5 443 201 442C201 441.8 201 441.6 201.2 441.4C201.7 440.1 201.6 440.3 201.3 440.9C201.3 440.9 201.3 440.9 201.1 441.1C201.9 439.9 202.6 437.5 202.9 437.4C203.6 435.5 204.1 433.8 204.4 432.1C204.8 430.5 205.1 428.9 205.4 427.3C205.6 427 205.5 427.8 205.4 428.7C205.6 427.9 205.8 427.1 205.9 426.3C206.1 426.3 205.7 427.7 205.6 428.4C206.6 425.7 206.6 422.6 207.5 419.3V418.6V418.4C207.5 418.4 207.5 417.6 207.5 417.1C207.7 416.7 207.9 417.1 208.1 415.6C208.5 414.3 208.6 411.9 208.8 410.2C208.6 411.1 208.6 410.8 208.6 410.4C208.7 409.6 209 409.2 209 408.5H209.2C208.9 408.7 209.4 406.3 209.3 406C209.6 405.6 209.2 407.3 209.3 407.5C209.9 404.3 209.6 405.9 210.2 402.7C210.4 401 209.9 403 209.9 402.1C210.2 400.6 210.4 399.1 211 397.4L210.7 397.9C211 396.5 211.3 395.3 211.6 394.3C211.9 393.3 212.3 392.5 212.7 391.6C214.2 386.4 215.6 383.6 216 382.2C216.5 380.8 216.3 380.8 215.7 381.4C215.2 382 214.3 383.3 213.6 384.4C213 385.6 212.4 386.5 212.4 386.5C210.4 390.5 209.4 393.7 208.6 397.1C207.8 400.5 207.2 404.2 206.4 409.3L206.8 408.8Z" fill="#FF2626"/>
<path d="M167.9 465.6C168.8 465.2 169.6 464.9 170.3 464.6C171 464.3 171.6 464 172.2 463.7C173.4 463.1 174.5 462.5 176.2 461.2C177.8 460 179.4 458.6 180.8 457.1C181 456.7 181.5 456.2 181.9 455.7C182.4 455.2 182.8 454.7 183.1 454.2L183.5 454C183.7 453.6 183.9 453.3 184.2 453C184.4 452.5 184.9 452 185 451.8C185.1 451.7 185.3 451.5 185.4 451.3C185.8 450.5 186.4 449.7 186.9 448.9H186.7C187.9 447.3 187.8 446.5 188.8 445.1C189.2 443 190.5 442.2 190.8 439.9C190.8 440.2 190.9 439.9 191 439.9C191.3 438.9 191.6 437.9 191.2 437.7C191.4 437 191.5 437.2 191.7 437.1C191.5 437.1 191.7 436.4 191.8 435.9V436.2L192.2 434.6L191.8 434.8C192.1 434 192.2 434.8 192.4 433.9H192.1C192.5 432.7 193.1 432.1 193.6 431.1C195 426.5 195.7 421.3 197.5 417.3H197.8C198.1 417.2 197.8 415.9 198.1 415.8V415.3C198.2 415.2 198.4 414.9 198.4 415.2C198.6 414.8 198.5 414.7 198.6 414.4L199 414C199.8 412.3 200.1 410.7 200.9 408.9C202.2 406.9 203.8 402.7 204.8 400.3C206.1 396.9 209.3 393.9 210.9 390.5C211 390.5 211.1 390.1 211.1 390.1C211.7 389.2 212.4 388.3 213.1 387.3C213.1 387.3 213.7 386.5 214.5 385.4C215.3 384.3 216.3 383 217 381.9C218.4 379.8 218.6 378.5 213.6 382.7C212.3 384 211.6 384.9 211.1 386.2C210.7 386.2 210.2 387.4 209.8 387.7C209.4 388.8 208.3 389.5 207.9 390.6C207.9 390.6 207.9 390.5 207.9 390.2C207.5 390.9 207 391.9 206.8 391.8C205.8 393.5 204.4 395.8 204.1 397C204 397.6 203.7 397.7 203.4 398.5C203.3 399.3 202.4 400.5 202.2 401.1H202L201.3 402.5L201.6 402C201.9 402.4 200.8 402.9 200.6 404C200.1 404.9 200.6 406.3 199.9 407.2C199.9 407.7 199.8 406.7 199.6 407.4C199.4 407.4 199.6 407 199.4 407.1C199.2 407.8 198.7 408.1 198.5 409.1H198.3C198.1 410.3 197.2 411.1 197.2 412C196.9 413.2 196.4 412.6 196.3 414L195.9 414.4C195.7 414.9 196 414.9 195.7 415.4C195.6 415.4 195.3 416.1 195.3 415.7C194.6 417 194.7 418.5 193.8 420.2C194 420.7 193.5 421.5 193.7 421.9C193.6 421.9 193.2 423.7 193.2 422.6V422.4V422.2C192.5 423.1 192.7 424.1 192.4 425.1C192.5 424.8 192.6 424.4 192.7 424.7L192.4 425.6V425.4L191.9 426.8H192.1C191.8 427.3 191.5 427.5 191.5 428.3C191.5 428.7 191.9 427.7 191.8 428.5C191.4 429.4 190.9 430.7 190.5 431.8C190.7 431.8 190.6 432.1 190.5 432.4H190.3C190.2 433.7 189.8 432.7 189.6 434C189.6 433.9 189.9 434.3 189.9 434.3C189.9 435.5 189.4 434.8 189.4 436.1C189.5 435.6 189.8 436 189.6 436.6V436.4C189.4 436.7 189.4 436.9 189.3 437.1C189.3 436.9 189.1 436.9 189 437.4V437L188.9 438C188.5 438.6 188.3 439.8 188 440C188 440 187.3 441.4 187.4 441.8C187.4 441.5 187 442.2 186.9 441.9C186.9 442.3 186.6 443.5 186.2 443.8C185.3 445.2 185.2 446.5 184.2 447.7C184.4 447.7 183.9 448.4 184.2 448.4C183.9 449.1 183.4 449.7 183 450.2C182.6 450.6 182.3 451 182.5 451.5C182.1 452.1 181.8 452.1 181.6 452.3V452.1C180.9 453.2 180.6 453.5 179.9 454.2C179.6 454.6 179.9 455 179.1 455.5C179.2 455.2 179 455.5 178.7 455.7C178.8 455.5 178.8 455.4 178.5 455.7C178.5 455.7 178.5 455.9 178.4 455.9C178 456.3 178.1 456.3 178.4 456.1C178.4 456.1 178.4 456.1 178.5 456.1C178 456.4 177.3 457.2 177.1 457.1C176.5 457.7 176 458.2 175.5 458.7C175 459.2 174.5 459.7 174 460.1C173.8 460.1 174 459.8 174.3 459.5L173.5 460.1C173.5 459.9 173.9 459.7 174.1 459.5C173 459.9 172.2 461.1 170.8 461.6L170.6 461.9C170.6 461.9 170.4 462.2 170.2 462.4C169.9 462.4 170 462.1 169.4 462.4C168.8 462.4 168 463.2 167.4 463.5C167.8 463.4 167.7 463.5 167.6 463.6C167.3 463.7 167 463.6 166.8 463.8V463.6C166.8 463.7 165.9 464.2 165.8 464.3C165.6 464.3 166.3 464 166.3 463.8C165 464.4 165.7 464.1 164.3 464.6C163.6 465 164.5 464.8 164.3 465.1C163.7 465.4 163.1 465.7 162.3 465.8H162.6C161.4 466.4 160.7 466.5 159.8 466.6C157.6 467.5 156.3 467.9 155.7 468.3C155.1 468.7 155.2 468.9 155.5 469C155.9 469.1 156.5 469.2 157.1 469.2C157.7 469.2 158.2 469.2 158.2 469.2C160.2 469.1 161.6 468.7 163.1 468.2C163.8 467.9 164.6 467.6 165.4 467.3C166.2 467 167.1 466.5 168.2 466L167.9 465.6Z" fill="#FF2626"/>
<path d="M139 445.5V445.2C139.1 445.2 139 445.2 139 445.5Z" fill="#FF2626"/>
<path d="M140.8 449.4C141.1 447.6 141.5 446.5 141.9 445.4C142.1 444.8 142.3 444.3 142.5 443.7C142.7 443.1 142.9 442.3 143.2 441.4C143.5 440.6 143.8 439.7 144.2 438.9C144.4 438.5 144.6 438.1 144.7 437.6C144.9 437.2 145.1 436.8 145.3 436.4C145.4 435.5 146.4 434.4 146.7 433.4C146.8 433.4 146.9 433.2 147 433.2C147.1 432.9 147.3 432.5 147.6 432.3C147.8 431.9 148.2 431.4 148.3 431.2L148.7 430.8C149.1 430.2 149.7 429.4 150.3 428.9H150.1C151.4 427.7 151.6 427 152.9 426.1C154 424.4 155.5 424.4 156.8 422.8C156.6 423 156.9 422.8 157 422.8C157.7 422.2 158.6 421.6 158.3 421.3C158.9 420.9 158.8 421.1 159 421.2C158.9 421.1 159.4 420.7 159.8 420.4L159.6 420.6L160.9 419.7H160.5C161.3 419.2 160.9 419.8 161.5 419.3L161.3 419.1C162.3 418.5 163.1 418.5 164.2 418.1C166.2 416.9 168.2 415.6 170.2 414.2C172.2 412.8 174.1 411.4 175.9 410.3H176.2C176.4 410.5 176.9 409.3 177.2 409.4L177.5 409C177.6 409 177.9 408.8 177.8 409C178.2 408.7 178.2 408.7 178.4 408.4L178.9 408.2C180.5 407.2 181.4 405.9 183 404.7C185.1 403.5 188.1 400.3 189.8 398.4C192.1 395.7 195.9 393.6 198.1 390.7C198.2 390.7 198.4 390.4 198.3 390.3L200.7 388C200.7 388 203.5 385.1 205.1 383.1C206.6 381.1 206.9 380 201.7 383.5C200.3 384.6 199.5 385.4 198.9 386.5C198.5 386.4 197.8 387.5 197.4 387.7C196.8 388.7 195.6 389.1 195.1 390C195.1 390 195.1 389.9 195.2 389.7C194.7 390.3 194 391.1 193.8 391C192.5 392.3 190.6 394.1 190 395.1C189.7 395.6 189.4 395.6 188.9 396.2H188.8C188.4 396.9 187.3 397.7 186.9 398.2H186.8L185.7 399.1L186.1 398.8C186.2 399.2 185.1 399.3 184.5 400.3C183.7 400.9 183.6 402.3 182.6 402.8C182.4 403.3 182.7 402.3 182.3 402.8C182.1 402.6 182.5 402.5 182.3 402.5C181.8 403 181.3 403.1 180.7 403.8H180.6C179.9 404.7 178.8 404.9 178.3 405.6C177.4 406.4 177.3 405.6 176.6 406.7H176.1C175.7 407.1 176 407.3 175.4 407.5C175.4 407.4 174.7 407.8 174.9 407.5C173.7 408.1 172.9 409.4 171.3 410.1C171.2 410.6 170.3 410.9 170.2 411.2C170.1 411.2 168.7 412.2 169.4 411.4C169.4 411.4 169.6 411.3 169.6 411.4V411.2C168.6 411.5 168.2 412.4 167.3 412.8C167.6 412.7 167.9 412.5 167.7 412.8L166.9 413.3V413.1L165.8 413.8H166.1C165.5 414.1 165.1 414 164.6 414.6C164.4 414.9 165.3 414.5 164.6 414.9C163.8 415.3 162.5 415.8 161.5 416.4C161.7 416.5 161.5 416.7 161.2 416.9H161.1C160.2 417.6 160.5 416.7 159.6 417.5V417.3V417.8C158.9 418.7 158.9 417.8 158.1 418.9C158.5 418.6 158.5 419.1 158 419.4V419.2C157.8 419.4 157.7 419.5 157.5 419.6C157.6 419.4 157.5 419.3 157.1 419.6L157.3 419.2L156.7 420C156 420.3 155.2 421.1 154.8 421.1C154.8 421.1 153.5 422 153.4 422.4C153.5 422.1 152.8 422.6 152.9 422.3C152.7 422.7 151.9 423.6 151.4 423.8C149.9 424.8 149.4 426 148.1 427.1C148.3 427.1 147.6 427.7 148 427.7C147.2 429.1 145.7 429.7 146 430.7C145.6 431.3 145.3 431.3 145.1 431.6V431.4C144.4 432.6 144.3 433 143.7 433.8C143.5 434.3 143.7 434.5 143.3 435.3C143.3 435 143.2 435.3 143 435.6C143 435.4 143 435.3 142.8 435.6C142.8 435.6 142.8 435.8 142.8 435.9C142.6 436.4 142.7 436.4 142.8 436.1C142.8 436.1 142.8 436.1 142.9 436.1C142.4 436.5 142.2 437.6 141.9 437.6C141.6 438.4 141.3 439.1 141.2 439.8C141 440.5 140.8 441.1 140.7 441.8C140.5 441.9 140.5 441.6 140.7 441.1C140.6 441.4 140.5 441.8 140.4 442.1C140.2 442.1 140.4 441.5 140.5 441.2C139.8 442.3 140 443.7 139.4 445V445.3C139.4 445.3 139.5 445.6 139.4 445.9C139.2 446.1 139 445.8 138.9 446.5C138.6 447 138.7 448.1 138.6 448.8C138.6 448.4 138.8 448.6 138.8 448.8C138.8 449.2 138.6 449.3 138.6 449.6H138.4C138.6 449.5 138.5 450.6 138.6 450.7C138.4 450.9 138.6 450.1 138.4 450C138.3 451.4 138.3 450.7 138.2 452.1C138.3 452.9 138.4 452 138.6 452.4C138.6 453.1 138.6 453.7 138.6 454.5L138.8 454.3C139 455.5 138.8 456.3 138.8 457.1C139.3 459.4 139.9 460.6 140.2 461.1C140.6 461.7 140.8 461.6 140.9 461.2C141.2 460.5 141.1 458.8 141.1 458.8C141.1 457.9 141.1 457.2 141.1 456.5C141.1 455.8 141.1 455.1 141.1 454.4C141.1 453 140.9 451.5 141.1 449.5L140.8 449.4Z" fill="#FF2626"/>
<path d="M154.8 453.9H155.1C155.1 453.7 155 453.8 154.8 453.9Z" fill="#FF2626"/>
<path d="M153.7 458.3C156.9 455.6 158 455.1 160.9 452C162.4 450.6 163.8 448.9 165.1 447.3C165.5 446.4 166.8 445.3 167.4 444.3L167.8 444.1C168 443.7 168.2 443.4 168.6 443.1C168.9 442.6 169.3 442.2 169.5 441.9L169.9 441.4C170.4 440.7 171.1 439.8 171.7 439.1H171.5C172.9 437.6 173 436.8 174.2 435.5C175.1 433.4 176.6 432.9 177.4 430.7C177.3 431 177.6 430.7 177.6 430.7C178.2 429.8 178.8 428.8 178.4 428.6C178.8 428 178.9 428.1 179 428.2C178.9 428.2 179.2 427.5 179.5 427V427.3L180.3 425.8H179.8C180.4 425.2 180.3 425.9 180.7 425.2H180.5C181.2 424 182 423.6 182.8 422.7C185.6 418.5 187.8 413.4 190.6 409.6H190.9C191.2 409.6 191.2 408.2 191.5 408.2L191.7 407.7C191.8 407.6 192 407.3 192 407.7C192.3 407.3 192.2 407.2 192.3 406.9L192.7 406.5C193.8 404.9 194.4 403.2 195.5 401.4C197.1 399.4 199.3 395.2 200.5 392.7C202.1 389.2 205.5 386.1 207.3 382.5C207.4 382.5 207.5 382.1 207.5 382.1C208.2 381.1 208.9 380.1 209.5 379.2C209.5 379.2 210.1 378.4 211 377.4C211.9 376.5 213.2 375.6 214.2 375.3C215.2 375 216 375.2 216 374.8C216 374.6 215.7 374.3 214.8 374C214 373.7 212.5 373.7 210.8 374.6C209.8 375.1 209.2 375.7 208.7 376.2C208.2 376.8 207.8 377.4 207.5 378C207.3 378 207 378.3 206.8 378.7C206.6 379.1 206.4 379.5 206.2 379.7C205.8 380.8 204.6 381.6 204.2 382.7C204.2 382.7 204.2 382.6 204.2 382.3C203.8 383 203.2 384.1 203 384C201.9 385.7 200.3 388.1 200 389.4C199.8 390 199.5 390.1 199.2 390.9C199.2 390.9 199.2 390.9 199.1 390.9C198.9 391.7 197.9 392.9 197.7 393.5H197.5L196.7 394.8L197 394.3C197.3 394.7 196.1 395.2 195.8 396.3C195.2 397.2 195.4 398.6 194.7 399.5C194.6 400.1 194.7 398.9 194.4 399.7C194.2 399.7 194.4 399.3 194.2 399.4C193.9 400.1 193.3 400.4 193 401.3H192.8C192.4 402.5 191.4 403.2 191.2 404.1C190.7 405.3 190.3 404.6 189.9 405.9L189.4 406.2C189.1 406.7 189.4 406.7 189 407.2C188.9 407.1 188.5 407.8 188.6 407.4C187.7 408.5 187.4 410.1 186 411.6C186 412.1 185.4 412.8 185.4 413.2C185.3 413.2 184.4 414.9 184.7 413.8C184.7 413.8 184.8 413.6 184.9 413.6V413.4C184 414.2 183.9 415.2 183.3 416.1C183.5 415.9 183.7 415.5 183.7 415.8L183.2 416.6V416.3L182.3 417.5H182.6C182.1 418 181.7 418.1 181.5 418.9C181.5 419.3 182.1 418.4 181.7 419.1C181.1 419.9 180.1 421 179.4 422C179.6 422 179.4 422.3 179.3 422.6H179.1C178.6 423.8 178.5 422.7 178 423.9V423.7V424.2C177.6 425.4 177.4 424.5 177 425.9C177.3 425.4 177.5 425.9 177 426.4V426.2C176.8 426.5 176.8 426.7 176.6 426.8C176.6 426.6 176.5 426.6 176.2 427V426.6L175.9 427.6C175.3 428.1 174.8 429.3 174.4 429.4C174.4 429.4 173.4 430.7 173.4 431.1C173.4 430.7 172.9 431.4 172.9 431.1C172.9 431.5 172.2 432.7 171.7 433C170.4 434.3 170 435.6 168.8 436.8C169 436.8 168.4 437.5 168.8 437.5C168 439 166.4 439.6 166.7 440.6C166.2 441.2 166 441.2 165.7 441.5V441.3C164.9 442.5 164.6 442.8 163.9 443.6C163.6 444.1 163.9 444.4 163.1 445C163.1 444.7 163 445 162.7 445.3C162.8 445.1 162.8 445 162.5 445.3C162.5 445.3 162.5 445.5 162.4 445.6C162 446.1 162.1 446 162.4 445.8C162.4 445.8 162.4 445.8 162.5 445.8C161.9 446.1 161.3 447.1 161.1 447C159.9 448.4 159.2 449.5 158.2 450.7C158 450.7 158.2 450.4 158.4 450C158.2 450.3 157.9 450.5 157.7 450.8C157.6 450.7 158.1 450.3 158.3 450C157.2 450.7 156.6 452.1 155.3 452.9V453.2C155.2 453.2 155.1 453.2 155.1 453.2C155.1 453.2 155 453.6 154.8 453.7C154.5 453.7 154.6 453.4 154 453.9C153.5 454.2 152.8 455.1 152.3 455.6C152.6 455.3 152.6 455.6 152.5 455.6C152.2 455.8 152 455.9 151.8 456.1H151.6C151.8 456.1 151 456.8 151 456.9C150.7 456.9 151.4 456.4 151.3 456.3C150.2 457.3 150.7 456.8 149.6 457.7C149.1 458.3 149.8 457.7 149.6 458.2C149.1 458.7 148.6 459.2 147.9 459.6H148.2C147.2 460.5 146.6 461 145.7 461.3C144.8 462.1 143.9 462.5 143.1 462.6C142.7 462.6 142.3 462.6 142 462.5C141.7 462.4 141.5 462.2 141.3 462.1C140.9 461.8 140.8 461.8 140.7 461.8C140.6 461.8 140.6 462 140.6 462.2C140.6 462.5 140.8 463 141.2 463.3C141.4 463.5 141.6 463.7 141.9 463.8C142.2 463.9 142.4 464 142.7 464.1C143.2 464.2 143.6 464.2 143.9 464.2C144.2 464.2 144.4 464.2 144.4 464.2C145.8 464 146.7 463.6 147.6 463C148.3 462.5 148.9 462 149.5 461.5C150.1 461 150.7 460.4 151.4 459.8C152.1 459.2 152.8 458.5 153.7 457.7V458.3Z" fill="#FF2626"/>
<path d="M114.991 113.392L114.165 112.414C114.165 112.414 114.303 112.747 114.991 113.392Z" fill="#FF2626"/>
<path d="M170.869 152.619C170.888 152.521 170.927 152.325 171.044 152.246C170.888 152.521 170.869 152.619 170.869 152.619Z" fill="#FF2626"/>
<path d="M104.457 68.004C104.457 68.004 104.634 68.1407 104.712 68.2581L104.457 68.004Z" fill="#FF2626"/>
<path d="M128 121.863C124.756 119.187 122.258 116.861 120.016 114.789C117.891 112.638 115.924 110.722 114.369 108.785C112.833 106.75 111.611 104.675 111.622 102.028C111.579 100.694 111.888 99.1244 112.137 97.339C112.485 95.5729 112.773 93.5912 113.099 91.4133C113.505 89.3528 113.812 87.273 114.139 85.0951C114.332 84.1139 114.564 82.9365 114.52 81.603C114.538 80.995 114.477 80.2696 114.318 79.5248C114.158 78.7801 113.882 78.1141 113.488 77.527C112.798 76.372 111.933 75.5902 111.283 74.7489C110.535 73.8883 109.768 73.1259 109 72.3634C107.466 70.8384 105.912 69.4116 104.457 68.004C101.487 65.4833 96.6477 60.5561 93.1477 57.6252L91.9865 56.2756C90.7673 55.2203 89.4886 53.9495 88.3868 52.8154C87.6196 52.053 86.8717 51.1923 86.0257 50.3124C85.1796 49.4325 84.0007 48.6909 83.2157 48.5365C82.0769 48.1085 80.8609 48.0731 79.685 48.3513C79.8813 48.3899 80.1161 48.2323 80.2336 48.1535C78.9789 48.3142 77.8819 48.7099 76.8829 49.1248C75.884 49.5397 74.9044 49.8566 73.9055 50.2715C72.9066 50.6864 72.0058 51.1207 71.105 51.5549C70.2042 51.9892 69.3034 52.4234 68.5007 52.877L68.8932 52.9542C65.2707 54.7893 63.001 56.4829 60.8487 58.0977C58.6964 59.7126 56.8192 61.4834 54.0025 63.8848L54.0218 63.7866C50.914 67.1499 48.3531 69.8054 45.871 72.5783C43.4082 75.2531 41.0048 78.1435 38.2122 81.9764C38.9152 80.9936 37.8407 82.3109 37.86 82.2128C37.1763 83.0974 36.5119 83.884 35.9264 84.7879C35.2427 85.6726 34.6571 86.5765 34.2871 87.421C33.4297 89.1887 33.4344 90.7184 33.6307 90.757C33.555 91.6594 33.7142 92.4041 33.8332 92.8352C33.9329 93.3644 34.0905 93.5993 34.2481 93.8341C34.3864 94.1671 34.3865 94.1671 34.4266 94.4808C34.4266 94.4808 35.1343 95.0277 35.8228 95.6727C36.4324 96.2004 37.3379 97.2958 38.1839 98.1757C37.9282 97.9216 37.6724 97.6674 37.3379 97.2958C38.9125 99.1345 40.6239 100.796 42.3352 102.458L41.5471 101.284C44.1833 103.943 41.9621 102.283 44.6369 104.745L44.6948 104.451C48.5695 108.067 50.5575 110.395 54.3727 113.795C58.4034 117.137 62.6497 120.418 67.0327 123.523C68.1136 124.245 69.2733 125.085 70.3541 125.807L73.793 128.013C74.972 128.754 76.3666 129.436 77.9365 129.745C79.5063 130.054 81.094 129.755 82.524 129.221C85.4033 128.055 87.3191 126.088 89.2752 124.435C90.2532 123.608 91.2119 122.879 92.2495 122.268C93.287 121.657 94.384 121.261 95.5406 121.081C97.8729 120.623 100.247 120.988 102.563 121.648C104.88 122.308 107.04 123.242 109.161 124.373L109.771 124.901C109.988 125.351 114.661 126.984 115.153 127.591L117.196 128.604C117.746 128.916 118.807 129.736 117.805 129.132C119.534 130.185 119.632 130.205 120.929 130.867L122.698 132.235C129.458 136.725 135.178 140.806 141.707 146.473C144.46 149.053 148.177 152.434 152.268 155.991C154.254 157.809 156.437 159.665 158.521 161.502C161.038 163.73 163.575 165.86 166.013 167.971C166.364 167.224 166.715 166.478 167.065 165.732C167.143 165.339 167.416 164.985 167.591 164.612L167.961 163.768C168.331 162.923 168.8 162.098 169.268 161.273C169.638 160.428 169.988 159.682 170.358 158.838C170.709 158.091 170.962 157.326 171.293 156.677C171.488 156.206 171.682 155.735 171.858 155.362L172.189 154.714L172.286 154.223C172.501 154.163 172.521 154.065 172.54 153.967C172.54 153.967 172.755 153.908 172.873 153.829C173.069 153.868 173.363 153.925 173.56 153.964C174.287 154.413 175.054 155.175 175.84 155.84C176.627 156.504 177.413 157.168 178.181 157.931C181.406 160.706 184.611 163.579 187.817 166.452C191.022 169.325 194.326 172.217 197.453 174.973C199.007 176.4 200.383 177.69 201.094 179.256C201.726 180.706 201.673 182.53 201.11 184.355C201.071 184.552 200.877 185.023 200.8 185.415C200.722 185.808 200.664 186.102 200.664 186.102C200.158 187.124 199.691 188.459 199.144 189.166C198.597 189.874 197.931 190.151 197.029 190.075C196.127 189.999 195.067 189.689 194.064 189.084C193.043 188.577 192.06 187.874 190.96 187.25C190.96 187.25 187.246 184.889 182.548 181.314C177.85 177.74 172.344 173.089 168.292 169.336C167.781 168.828 167.348 168.437 166.837 167.929C166.483 167.655 166.522 167.459 166.422 166.93C166.321 165.891 166.396 164.988 166.531 164.302C166.667 163.615 166.763 163.124 166.763 163.124C166.763 163.124 166.763 163.124 166.567 163.086C166.567 163.086 165.999 163.381 165.746 164.147C165.669 164.54 165.455 165.109 165.339 165.698C165.224 166.286 165.069 167.071 165.209 167.914C165.17 168.11 165.328 168.345 165.387 168.561C165.545 168.796 165.722 168.932 165.782 169.148C166.116 169.52 166.353 169.872 166.687 170.243C167.356 170.987 168.104 171.847 168.95 172.727C170.642 174.487 172.767 176.638 175.265 178.964L174.872 178.886C178.038 181.446 180.574 183.576 183.09 185.294C185.488 187.091 187.846 188.574 190.321 189.978C190.558 190.33 191.993 191.326 193.878 192.105C194.82 192.494 195.9 192.707 196.919 192.703C197.939 192.7 198.919 192.383 199.408 191.97L199.173 192.128C199.877 191.655 200.503 191.065 200.835 190.416C201.264 189.787 201.497 189.12 201.809 188.57C202.336 187.45 202.881 186.233 203.347 184.898C203.814 183.563 204.084 182.189 203.864 180.719C203.742 179.268 203.11 177.819 202.283 176.841C202.46 176.977 202.676 176.918 203.248 178.152C202.399 176.252 200.668 174.688 199.468 173.535C198.17 172.362 197.305 171.58 197.246 171.365C190.855 166.031 182.065 158.39 177.8 155.206L178.192 155.283C176.915 154.522 176.227 153.877 175.342 153.194C174.909 152.803 174.575 152.431 173.632 152.042C173.142 151.945 172.67 151.751 172.16 151.752C171.964 151.714 171.631 151.852 171.396 152.01C171.161 152.167 170.927 152.325 170.771 152.6C170.536 152.757 170.36 153.131 170.38 153.033C170.341 153.229 170.322 153.327 170.185 153.504C170.166 153.602 170.146 153.7 170.108 153.896C170.069 154.093 169.913 154.368 169.776 154.545C169.582 155.016 169.387 155.487 169.173 156.056C168.764 157.097 168.238 158.217 167.732 159.238C167.225 160.259 166.718 161.281 166.231 162.204C165.938 162.656 165.743 163.127 165.568 163.5C165.529 163.697 165.393 163.874 165.354 164.07C165.354 164.07 165.354 164.07 165.256 164.051L165.159 164.541C164.865 164.483 164.707 164.248 164.629 164.131L164.019 163.603L161.934 161.766L163.744 163.447C162.763 163.254 160.144 159.987 156.448 157.018C153.164 154.027 149.057 151.588 145.713 148.382C143.925 147.113 147.442 149.436 144.789 147.385C144.827 147.189 146.027 148.342 145.573 147.54C143.018 145.508 141.718 143.825 138.514 141.462L138.553 141.266C134.268 138.181 130.826 134.955 127.702 133.219C125.442 131.756 124.754 131.111 123.948 130.544C123.24 129.997 122.454 129.333 119.959 128.027C119.33 127.597 118.819 127.089 118.19 126.659C116.087 125.43 116.58 126.037 114.202 124.652C114.399 124.69 111.275 122.955 112.689 123.539C110.135 122.017 107.149 120.614 103.871 119.663C102.222 119.237 100.358 118.87 98.4554 118.699C96.5332 118.627 94.3762 118.712 92.2802 119.522C91.3794 119.957 90.0877 120.824 88.8942 121.71C87.7006 122.596 86.7032 123.521 86.3123 123.954C86.2142 123.934 84.7279 125.272 83.5729 125.962C82.9858 126.356 82.5354 126.574 82.4373 126.554C82.4373 126.554 82.574 126.377 83.396 125.826C83.6501 125.57 84.218 125.274 84.218 125.274L84.5108 124.822C80.9687 127.284 78.3049 128.391 74.747 125.754C75.8086 126.575 77.2224 127.159 76.1817 126.75C75.0622 126.224 74.0007 125.404 72.841 124.564L73.6854 124.934L71.0717 123.197C70.2659 122.63 69.3619 122.045 68.5561 121.479L69.1464 122.104C66.7482 120.307 66.0984 119.466 63.2096 117.573C61.9518 116.714 65.3729 119.527 62.7978 117.594C59.6324 115.034 55.1095 111.087 51.1962 107.667C51.4133 108.117 50.3711 107.199 49.3288 106.28L49.3674 106.084C47.1655 104.326 46.9484 103.875 46.6138 103.504C46.2986 103.034 46.0621 102.682 44.0757 100.864L44.5277 101.157L43.2506 100.396C41.4218 98.8129 41.0278 98.2258 40.6337 97.6386C40.378 97.3845 40.1415 97.0322 39.7282 96.5432C39.5706 96.3083 39.3148 96.0542 38.9803 95.6826C38.8033 95.5458 38.6457 95.311 38.4688 95.1743C38.3707 95.155 38.2131 94.9201 38.1343 94.8027C37.9573 94.6659 37.8785 94.5485 37.7016 94.4118C37.9573 94.6659 38.1342 94.8027 38.1937 95.0182C38.3707 95.155 38.3514 95.2531 38.4302 95.3705C38.4109 95.4686 38.4109 95.4686 38.3321 95.3512C38.2339 95.3319 37.8994 94.9603 37.5455 94.6868C37.211 94.3152 36.759 94.0225 36.3457 93.5334L36.8957 93.8455C36.3843 93.3372 36.2266 93.1024 36.0497 92.9656C36.069 92.8675 35.9902 92.7501 35.9114 92.6327C35.9307 92.5345 35.8712 92.319 35.8117 92.1034C35.8519 92.4171 36.0481 92.4557 35.9693 92.3383C36.0079 92.1421 35.8889 91.711 36.0627 90.8279C35.9855 91.2204 36.1238 91.5534 36.164 91.867C35.9453 90.9067 36.2558 89.8467 36.7819 88.7272C37.5235 87.5482 38.8522 85.9752 39.9461 84.5598C41.0399 83.1443 42.0952 81.9251 42.5842 81.5118C42.5842 81.5118 43.6588 80.1945 44.8701 78.7002C46.0814 77.206 47.4101 75.6329 47.7415 74.9847C46.9999 76.1637 49.482 73.3908 48.8965 74.2948C49.3453 73.5677 50.518 72.2697 51.6907 70.9717C52.8633 69.6737 54.1342 68.395 54.9754 67.7453L54.7213 68.001C57.4784 65.3841 59.8447 63.1999 62.2705 61.2312C64.6962 59.2625 67.1815 57.5094 70.2361 55.9702C69.8437 55.893 73.0946 54.3925 72.1536 54.513C73.7396 53.7041 75.2082 52.9739 76.7171 52.5574C78.1471 52.0234 79.5578 51.5876 80.695 51.5056C81.8322 51.4237 82.4804 51.7551 83.2074 52.2039C83.8363 52.6334 84.4459 53.161 85.0748 53.5905C87.3572 55.9761 87.6531 56.5439 88.8337 57.7954L88.2241 57.2678C92.6891 61.5097 93.9678 62.7805 97.2329 65.8691C98.8654 67.4134 99.4927 67.333 102.287 70.2269C101.225 69.4064 102.425 70.5598 103.546 71.5958C102.858 70.9507 102.582 70.7947 103.94 72.1829C104.215 72.339 104.471 72.5931 104.825 72.8666C106.634 74.5476 106.378 74.2934 105.532 73.4135C105.532 73.4135 105.532 73.4135 105.296 73.0612C106.123 74.0393 107.499 75.3294 108.503 76.4441C109.507 77.5589 110.333 78.5369 110.314 78.6351C110.885 79.3589 111.279 79.9461 111.458 80.5927C111.636 81.2393 111.678 82.0629 111.543 82.7497C111.332 84.3389 111.121 85.9281 110.91 87.5173C110.508 90.5976 110.046 93.4623 109.625 96.6407C109.391 97.3083 109.485 95.7979 109.734 94.0124L109.062 98.4664C108.865 98.4277 109.367 95.8767 109.539 94.4837C109.288 95.7592 109.018 97.1329 108.748 98.5066C108.478 99.8802 108.384 101.391 108.487 102.94C108.59 104.489 109.183 106.134 109.933 107.505C110.682 108.875 111.628 110.284 112.612 111.497C112.966 111.771 113.301 112.142 113.655 112.416L113.91 112.67C113.91 112.67 115.051 113.608 115.739 114.253C116.31 114.977 115.387 114.489 117.708 116.679C119.381 118.536 122.998 121.389 125.573 123.322C124.275 122.149 124.727 122.442 125.356 122.872C126.575 123.927 127.165 124.553 128.148 125.256L128.09 125.55C127.794 124.982 131.49 127.952 131.962 128.146C132.552 128.772 129.996 126.741 129.604 126.663C134.558 130.492 132.081 128.578 137.054 132.308C139.845 134.182 136.641 131.819 138.133 132.52C140.551 134.219 142.89 135.8 145.524 137.95L144.757 137.187C149.336 140.33 151.911 142.264 154.802 144.667C163.233 150.505 167.891 153.766 170.249 155.249C172.607 156.732 172.548 156.517 171.446 155.383C170.423 154.366 168.358 152.431 166.412 150.927C164.583 149.344 162.99 148.113 162.99 148.113C156.66 142.995 151.648 139.46 146.38 135.672C141.112 131.884 135.354 127.999 127.864 122.04L128 121.863Z" fill="#FF2626"/>
<path d="M200.304 183.789C200.695 183.357 201.126 183.238 201.517 182.805C201.536 182.707 201.477 182.491 201.319 182.256C201.358 182.06 201.181 181.923 201.121 181.708C201.141 181.61 201.141 181.61 201.043 181.59C201.043 181.59 201.043 181.59 200.964 181.473C200.964 181.473 200.964 181.473 200.866 181.454C200.768 181.434 200.826 181.14 200.55 180.984L200.57 180.886C200.57 180.886 200.472 180.867 200.608 180.69C200.628 180.591 200.666 180.395 200.686 180.297C200.588 180.278 200.489 180.259 200.449 179.945L200.43 180.043C200.311 179.612 199.88 179.731 199.78 179.202C199.388 179.124 199.211 178.988 198.955 178.734C198.68 178.578 198.209 178.383 197.935 178.737C197.935 178.737 197.935 178.737 197.954 178.639C197.621 178.777 197.504 178.856 197.623 179.287C197.525 179.267 197.525 179.267 197.367 179.033C197.446 179.15 197.309 179.327 197.309 179.327C197.309 179.327 197.192 179.406 197.075 179.485L197.232 179.719C197.036 179.681 196.996 179.367 196.957 179.563L197.115 179.798C196.919 179.76 196.663 179.505 196.368 179.448C196.016 179.684 195.743 180.038 195.567 180.411C195.392 180.784 195.217 181.157 194.864 181.394L194.668 181.355C194.374 181.297 195.003 181.727 194.708 181.669L194.689 181.767C194.689 181.767 194.689 181.767 194.748 181.982L194.552 181.944C194.259 182.396 194.594 182.767 194.634 183.081C194.478 183.356 194.499 183.768 194.755 184.022C194.991 184.374 195.247 184.629 195.541 184.686C195.934 184.764 195.955 185.175 196.191 185.528C196.329 185.861 196.664 186.232 197.095 186.113C197.291 186.152 197.586 186.21 197.782 186.248C197.782 186.248 197.978 186.287 198.292 186.247C198.605 186.207 198.958 185.97 199.212 185.715C199.368 185.439 199.328 185.126 199.17 184.891C198.914 184.637 198.443 184.442 198.147 183.874C198.068 183.757 198.088 183.659 198.01 184.051C198.088 183.659 198.01 184.051 197.951 183.836C197.893 184.13 198.009 183.541 197.755 183.797L197.774 183.699C197.774 183.699 197.657 183.778 197.793 183.601C197.695 183.582 197.616 183.464 197.283 183.602C197.147 183.779 197.283 183.602 197.185 183.583C196.95 183.741 197.087 183.564 196.989 183.544L197.008 183.446C196.577 183.565 197.243 183.289 197.028 183.348C197.028 183.348 196.106 183.371 196.341 183.213C196.145 183.174 196.635 183.271 196.537 183.252C196.733 183.29 196.635 183.271 196.831 183.31C196.733 183.29 197.047 183.25 196.87 183.113L197.066 183.152C196.772 183.094 197.301 182.994 197.105 182.956C197.007 182.936 197.596 183.052 197.32 182.896L197.517 182.935C197.517 182.935 197.222 182.877 197.32 182.896C197.419 182.916 197.419 182.916 197.615 182.954C197.811 182.993 197.378 182.602 197.752 182.777C197.476 182.621 197.771 182.679 197.496 182.523C197.594 182.542 197.515 182.425 197.79 182.581C198.281 182.678 197.829 182.385 197.927 182.404C197.927 182.404 197.927 182.404 197.731 182.366L197.927 182.404C198.025 182.423 198.281 182.678 198.123 182.443C198.142 182.345 197.946 182.306 197.966 182.208C198.064 182.227 198.26 182.266 198.358 182.285C198.279 182.168 198.298 182.07 198.298 182.07L198.279 182.168C198.318 181.971 198.614 182.539 198.574 182.226L198.533 181.912C198.493 181.598 198.77 182.264 198.572 181.716L198.434 181.383L198.414 181.481L198.474 181.696L198.435 181.893C198.533 181.912 198.493 181.598 198.493 181.598L198.512 181.5C198.512 181.5 198.551 181.304 198.453 181.285C198.453 181.285 198.316 181.462 198.199 181.54C198.199 181.54 198.179 181.638 197.964 181.698C197.964 181.698 197.827 181.875 197.847 181.777C197.964 181.698 197.945 181.796 198.179 181.638C198.376 181.677 198.258 181.756 198.239 181.854C198.239 181.854 198.239 181.854 198.553 181.814C198.553 181.814 198.435 181.893 198.318 181.971C198.318 181.971 198.612 182.029 198.71 182.049C198.514 182.01 198.612 182.029 198.612 182.029C198.612 182.029 198.612 182.029 198.416 181.991C198.416 181.991 198.416 181.991 198.514 182.01L198.612 182.029C198.612 182.029 198.612 182.029 198.71 182.049C198.514 182.01 198.808 182.068 198.514 182.01C198.514 182.01 198.808 182.068 198.868 182.284C198.672 182.245 198.574 182.226 198.574 182.226C198.377 182.187 198.574 182.226 198.475 182.206C198.574 182.226 198.574 182.226 198.574 182.226L198.77 182.264C198.574 182.226 198.377 182.187 198.377 182.187C198.181 182.148 198.377 182.187 198.339 182.383C198.339 182.383 198.437 182.403 198.535 182.422C198.535 182.422 198.339 182.383 198.437 182.403L198.241 182.364C198.437 182.403 198.417 182.501 198.398 182.599C198.202 182.56 198.417 182.501 198.241 182.364C198.202 182.56 198.241 182.364 198.202 182.56C198.261 182.776 198.398 182.599 198.458 182.814C198.458 182.814 198.517 183.03 198.4 183.109L198.596 183.147C198.538 183.442 198.538 183.442 198.342 183.403C198.897 185.245 199.876 184.928 199.876 184.928C200.504 184.848 200.208 184.28 200.402 183.809L200.304 183.789Z" fill="#FF2626"/>
<path d="M93.9028 73.4691L93.9414 73.2728C93.8433 73.2535 93.8433 73.2535 93.9028 73.4691Z" fill="#FF2626"/>
<path d="M97.316 73.7331C95.78 71.6983 95.6401 70.8554 93.7712 68.9588C92.9444 67.9808 92.0196 66.9835 91.1929 66.0054C90.6428 65.6934 90.1104 64.7733 89.4815 64.3437L89.5395 64.0494C89.147 63.9722 88.9894 63.7373 88.8511 63.4043C88.576 63.2483 88.3589 62.7979 88.1626 62.7593L87.8281 62.3877C87.3954 61.9968 86.884 61.4885 86.3532 61.0783L86.3146 61.2745C85.8031 60.7662 85.3511 60.4734 84.8798 60.2787C84.4085 60.0841 84.0354 59.9087 83.3872 59.5773C82.9947 59.5001 82.5829 59.521 82.1904 59.4438C81.798 59.3665 81.4055 59.2893 80.9744 59.4083C80.5819 59.3311 80.1508 59.4501 79.8179 59.5884C79.6023 59.6479 79.3675 59.8055 79.25 59.8843C79.25 59.8843 79.0152 60.0419 78.8978 60.1208C78.8785 60.2189 78.6436 60.3765 78.6243 60.4746C78.7803 60.1996 78.4281 60.436 78.4281 60.436C78.0372 60.8687 77.7251 61.4188 77.6478 61.8112C77.5706 62.2037 77.7089 62.5367 77.9052 62.5753C77.9662 63.3007 77.7893 63.164 77.77 63.2621C77.77 63.2621 77.9662 63.3007 78.1045 63.6337C78.2622 63.8686 78.3217 64.0841 78.4986 64.2208L78.3024 64.1822C78.3217 64.0841 78.854 65.0042 78.854 65.0042L78.9313 64.6117C79.2272 65.1796 78.854 65.0042 79.0905 65.3565L79.3253 65.1989C79.6808 65.9822 79.5649 66.5709 79.7241 67.3157C81.3019 70.1741 83.8593 72.7157 85.2794 75.3393L85.2408 75.5355C84.9866 75.7913 86.0853 75.9056 85.9292 76.1806L86.3217 76.2578C86.2831 76.4541 86.4407 76.6889 86.2638 76.5522C86.4214 76.787 86.5195 76.8063 86.6964 76.9431L86.8154 77.3742C87.5247 78.431 88.5268 79.0359 89.4516 80.0332C90.2799 81.5211 92.7569 83.4354 94.211 84.3331C95.3112 84.9572 96.1379 85.9353 97.1608 86.9519C98.105 87.8511 99.0893 89.064 100.875 89.3134C100.973 89.3327 101.267 89.3907 101.267 89.3907C102.347 89.603 103.757 89.1672 104.46 88.1845C104.46 88.1845 104.597 88.0075 104.87 87.6537C105.046 87.2805 105.26 86.7111 105.277 86.1031C105.43 84.8083 104.779 83.4571 104.208 82.7332C103.637 82.0093 103.106 81.5991 102.95 81.8742C102.912 82.0704 102.854 82.3648 102.855 82.8747C102.857 83.3846 102.997 84.2274 102.94 85.0317C102.767 85.9148 102.689 86.3072 102.593 86.7978C102.397 86.7592 102.298 86.7399 102.298 86.7399C102.298 86.7399 102.064 86.8975 101.965 86.8782C101.829 87.0551 101.534 86.9972 101.357 86.8605C101.063 86.8025 100.905 86.5677 100.611 86.5098C100.611 86.5098 100.63 86.4117 100.807 86.5484C100.415 86.4712 99.8648 86.1591 99.9227 85.8647C98.9399 85.1617 97.6419 83.989 96.7589 83.8153C96.3664 83.738 96.3262 83.4244 95.8549 83.2297C95.2662 83.1139 94.7146 82.2919 94.3414 82.1165L94.3607 82.0184L93.6723 81.3734L93.928 81.6275C93.5757 81.864 93.5533 80.9423 92.9051 80.6109C92.4917 80.1219 91.3352 80.3019 90.9604 79.6167C90.568 79.5395 91.3529 79.6939 91.0184 79.3223C91.1551 79.1454 91.3127 79.3803 91.3513 79.184C90.8994 78.8913 90.9959 78.4007 90.4458 78.0886L90.4844 77.8923C89.8362 77.5609 89.7156 76.62 89.1462 76.406C88.5366 75.8784 89.1833 75.6998 88.3581 75.2317L88.4354 74.8392C88.1008 74.4677 87.9448 74.7427 87.8065 74.4097C87.9046 74.429 87.5893 73.9593 87.8837 74.0173C87.5476 73.1358 86.4876 72.8253 86.1306 71.532C85.7381 71.4548 85.5403 70.9063 85.2459 70.8483C85.2652 70.7502 84.6347 69.8108 85.1655 70.221C85.1655 70.221 85.2636 70.2403 85.1462 70.3191L85.3425 70.3577C85.2026 69.5149 84.5157 69.3797 84.2198 68.8119C84.1812 69.0081 84.4369 69.2623 84.1619 69.1062L83.866 68.5384L84.0622 68.577L83.6086 67.7744L83.57 67.9706C83.3529 67.5202 83.5089 67.2451 83.057 66.9524C82.7626 66.8944 83.0585 67.4623 82.724 67.0907C82.5262 66.5422 82.19 65.6607 81.8346 64.8773C81.6979 65.0542 81.6384 64.8387 81.4615 64.702L81.4808 64.6038C80.9886 63.9974 81.7735 64.1519 81.2814 63.5454C81.3795 63.5647 80.987 63.4875 80.987 63.4875C80.6332 63.214 80.6525 63.1159 80.6718 63.0178C80.6718 63.0178 80.6911 62.9197 80.7104 62.8216C80.7104 62.8216 80.7104 62.8216 80.6123 62.8023C80.6123 62.8023 80.6123 62.8023 80.5142 62.7829C80.5142 62.7829 80.1619 63.0194 80.2198 62.725C80.2198 62.725 80.3179 62.7443 80.416 62.7636C80.416 62.7636 80.2198 62.725 80.3372 62.6462C80.4353 62.6655 80.5335 62.6848 80.5528 62.5867L80.749 62.6253C80.6509 62.606 80.5528 62.5867 80.474 62.4693C80.6702 62.5079 80.7474 62.1154 80.9051 62.3503C80.9051 62.3503 81.4343 62.2506 81.5903 61.9755C81.5517 62.1718 81.8654 62.1316 81.7093 62.4066C81.7286 62.3085 81.9442 62.249 82.0616 62.1702C82.1597 62.1895 82.3559 62.2281 82.4541 62.2474C83.083 62.6769 83.9258 62.537 84.4775 63.359C84.5161 63.1628 84.8507 63.5344 85.0067 63.2593C85.93 63.7468 85.9138 64.8647 86.776 64.6267C87.1105 64.9983 86.9738 65.1752 87.1314 65.4101C87.6236 66.0165 87.7812 66.2513 88.2734 66.8578C88.5291 67.1119 88.8621 66.9736 89.1773 67.4433C88.9811 67.4047 89.158 67.5415 89.2175 67.757C89.1194 67.7377 89.0213 67.7184 89.1789 67.9532C89.1789 67.9532 89.277 67.9725 89.3751 67.9919C89.6309 68.246 89.6502 68.1479 89.5714 68.0305C89.5714 68.0305 89.5714 68.0305 89.5907 67.9324C89.7097 68.3634 90.3386 68.793 90.1038 68.9506C90.8517 69.8112 91.5787 70.26 92.2478 71.0032C92.2092 71.1994 92.0322 71.0627 91.7572 70.9066L92.2687 71.4149C92.1512 71.4938 91.9148 71.1415 91.7379 71.0047C91.9759 71.8669 93.0552 72.0793 93.4701 73.0782L93.6664 73.1168C93.6664 73.1168 93.9607 73.1748 94.0588 73.1941C94.0202 73.3903 93.8047 73.4498 94.0411 73.8021C94.1601 74.2332 94.8083 74.5646 95.1429 74.9362C94.9852 74.7013 95.1815 74.7399 95.1815 74.7399C95.3584 74.8767 95.3005 75.171 95.4967 75.2096L95.4581 75.4059C95.4967 75.2096 95.9101 75.6986 96.0082 75.718C95.9696 75.9142 95.635 75.5426 95.5176 75.6214C96.0886 76.3453 95.8522 75.993 96.4231 76.7169C96.8751 77.0096 96.4617 76.5206 96.8542 76.5979C97.1888 76.9695 97.5619 77.1448 97.7791 77.5952L97.837 77.3009C98.4466 77.8285 98.7618 78.2982 98.9596 78.8467C104.208 82.7332 101.469 78.5252 101.469 78.5252C100.266 76.352 98.9695 75.6892 97.041 73.5771L97.316 73.7331Z" fill="#FF2626"/>
<path d="M84.9713 89.853L85.0099 89.6567C84.8137 89.6181 84.9118 89.6374 84.9713 89.853Z" fill="#FF2626"/>
<path d="M88.6387 89.8612C86.4947 87.8086 86.2567 86.9465 83.8971 84.9534C82.8742 83.9367 81.7531 82.9008 80.7302 81.8841C80.0626 81.6509 79.4708 80.5152 78.7244 80.1645L78.5861 79.8315C78.2918 79.7736 78.036 79.5194 77.9958 79.2058C77.6227 79.0304 77.4055 78.58 77.2286 78.4433L76.8941 78.0717C76.4614 77.6808 75.9692 77.0744 75.5559 76.5854L75.5173 76.7816C74.7292 75.6073 74.0423 75.4722 73.4505 74.3365C72.0752 73.5563 72.1686 72.0459 70.3028 71.1692C70.499 71.2078 70.3221 71.0711 70.3414 70.9729C69.5356 70.4067 68.5737 70.1155 68.379 70.5868C67.6922 70.4516 67.829 70.2747 67.7501 70.1573C67.7115 70.3535 67.1228 70.2376 66.5936 70.3373L66.7898 70.376C66.2992 70.2794 65.77 70.3791 65.3196 70.5962C65.4178 70.6155 65.5947 70.7523 65.6735 70.8697C64.9287 71.0289 65.3389 70.4981 64.6344 70.971L64.792 71.2058C64.3416 71.423 63.8912 71.6401 63.4215 71.9553C62.9518 72.2706 62.5609 72.7032 62.3276 73.3707C62.1925 74.0576 62.2536 74.783 62.5302 75.449C62.7087 76.0956 63.0239 76.5653 63.3585 76.9369C64.0083 77.7782 64.6967 78.4232 65.2676 79.1471C66.527 80.516 67.7864 81.885 68.8303 83.3134L68.7723 83.6077C68.6163 83.8828 69.7149 83.997 69.657 84.2914L70.0495 84.3686C70.0108 84.5649 70.1685 84.7997 69.9722 84.7611C70.228 85.0153 70.228 85.0153 70.503 85.1713L70.622 85.6024C71.5082 86.796 72.6084 87.4201 73.7102 88.5542C74.7154 90.1789 77.4674 92.2492 79.1579 93.4991C81.4966 95.0804 83.2513 98.0756 85.8248 99.4993C85.8248 99.4993 86.0999 99.6553 86.1192 99.5572C86.8269 100.104 87.4365 100.632 88.2423 101.198C88.2423 101.198 88.4386 101.237 88.7924 101.51C89.1656 101.685 89.7157 101.998 90.5006 102.152C91.2856 102.306 92.2652 101.99 92.8716 101.497C93.5762 101.025 94.0057 100.396 94.239 99.7282C94.3741 99.0414 94.49 98.4527 94.2536 98.1004C94.1152 97.7674 93.9383 97.6307 93.8016 97.8076C93.6648 97.9845 93.4895 98.3577 93.1967 98.8097C92.9039 99.2617 92.1801 99.8326 91.3565 99.8744C90.9254 99.9934 90.7485 99.8567 90.4541 99.7988C90.0617 99.7215 89.7673 99.6636 89.296 99.4689C89.3733 99.0765 88.4307 98.6871 88.2731 98.4523C87.4093 98.1804 87.1118 97.1027 86.248 96.8308C86.248 96.8308 86.3655 96.752 86.5424 96.8887C85.9923 96.5766 85.3827 96.049 85.4213 95.8528C84.2616 95.013 82.806 93.6055 81.8635 93.2162C81.3729 93.1196 81.4308 92.8253 80.8807 92.5132C80.292 92.3974 79.5634 91.4386 79.2095 91.1652L79.2288 91.0671L78.4616 90.3046L78.6981 90.6568C78.2477 90.874 78.2445 89.8542 77.4982 89.5035C77.006 88.897 75.7514 89.0578 75.2785 88.3532C74.886 88.276 75.7691 88.4498 75.2383 88.0396C75.375 87.8627 75.5327 88.0975 75.5713 87.9013C75.1193 87.6085 75.1177 87.0986 74.4888 86.6691L74.5274 86.4728C73.683 86.1028 73.5817 85.0637 72.9142 84.8305C72.1084 84.2642 72.8724 84.0069 71.9492 83.5195L71.8302 83.0884C71.5937 82.7361 71.4377 83.0111 71.2012 82.6588C71.3187 82.58 70.886 82.1891 71.2785 82.2664C70.7461 81.3463 69.6073 80.9183 68.956 79.5671C68.5635 79.4899 68.1694 78.9028 67.8751 78.8449C67.8944 78.7467 66.9696 77.7494 67.6966 78.1982C67.6966 78.1982 67.8735 78.335 67.7754 78.3157L67.9716 78.3543C67.7336 77.4921 66.9487 77.3376 66.4758 76.6331C66.5353 76.8486 66.791 77.1028 66.6141 76.966L66.2201 76.3789L66.4163 76.4175C66.1799 76.0652 66.0222 75.8304 65.8646 75.5955L65.826 75.7918C65.6089 75.3414 65.7649 75.0663 65.3918 74.891C65.1955 74.8524 65.3145 75.2835 65.0781 74.9312C65.1167 74.7349 65.0765 74.4213 65.2133 74.2443C65.2519 74.0481 65.3693 73.9693 65.4867 73.8905C65.2905 73.8519 65.4079 73.7731 65.4465 73.5768C65.8374 73.1442 65.8985 73.8696 66.2894 73.4369L66.2701 73.5351C66.2894 73.4369 66.328 73.2407 66.3473 73.1426C66.6015 72.8868 66.6803 73.0043 66.7784 73.0236C66.8765 73.0429 66.9747 73.0622 67.2095 72.9046C67.0133 72.866 67.0905 72.4735 67.4637 72.6488L67.4251 72.8451C67.4251 72.8451 67.6406 72.7856 67.7194 72.903C67.7194 72.903 67.6808 73.0992 67.877 73.1378C67.877 73.1378 67.7596 73.2167 67.6422 73.2955C67.8384 73.3341 68.0733 73.1765 68.1714 73.1958C68.4078 73.5481 69.1735 73.8006 69.1155 74.095C69.1155 74.095 69.2925 74.2317 69.4501 74.4666C69.6077 74.7014 69.8827 74.8575 70.079 74.8961C69.7846 74.8382 70.198 75.3272 69.9824 75.3867C70.2768 75.4446 70.9652 76.0897 71.0842 76.5207C71.7742 77.6757 72.6974 78.1631 73.3086 79.2007C73.3472 79.0044 73.7413 79.5916 73.8973 79.3165C74.9589 80.1369 75.0216 81.3723 75.9625 81.2517C76.3952 81.6426 76.2392 81.9176 76.4949 82.1718C77.164 82.915 77.3216 83.1498 77.9312 83.6775C78.2851 83.9509 78.5199 83.7933 79.0314 84.3016C78.737 84.2437 79.0121 84.3997 79.1697 84.6346C78.9735 84.596 78.9735 84.596 79.1311 84.8308C79.1311 84.8308 79.2292 84.8501 79.3273 84.8695C79.6812 85.1429 79.7005 85.0448 79.5236 84.9081C79.5236 84.9081 79.5236 84.9081 79.5429 84.8099C79.76 85.2603 80.487 85.7092 80.331 85.9842C81.2751 86.8834 82.1984 87.3709 83.0637 88.1527C83.0251 88.3489 82.8482 88.2122 82.5731 88.0561L83.1827 88.5837C83.046 88.7607 82.8289 88.3103 82.5538 88.1542C82.9881 89.055 84.1655 89.2867 84.796 90.2261L85.0903 90.2841C85.0903 90.2841 85.3847 90.342 85.5809 90.3806C85.5423 90.5768 85.3268 90.6363 85.7594 91.0272C85.9765 91.4776 86.7229 91.8283 87.1748 92.1211C87.0172 91.8863 87.1153 91.9056 87.2135 91.9249C87.3904 92.0616 87.4306 92.3753 87.6268 92.4139L87.5882 92.6101C87.6268 92.4139 88.1383 92.9222 88.3538 92.8627C88.3152 93.0589 87.9614 92.7855 87.7651 92.7469C88.6498 93.4305 88.1978 93.1378 88.9843 93.8021C89.5344 94.1142 89.0229 93.6059 89.4347 93.585C89.8867 93.8778 90.358 94.0724 90.6732 94.5421L90.7311 94.2478C91.5563 94.7159 91.8715 95.1856 92.2849 95.6746C95.6241 97.3509 96.1726 97.1531 95.9941 96.5065C95.7962 95.9579 94.7733 94.9413 94.7733 94.9413C92.8448 92.8292 91.4117 92.3433 88.777 90.1942L88.6387 89.8612Z" fill="#FF2626"/>
<path d="M72.0107 103.406L71.8531 103.171C71.8531 103.171 71.8531 103.171 72.0107 103.406Z" fill="#FF2626"/>
<path d="M75.7762 103.433C73.5341 101.361 73.1979 100.48 70.7403 98.4673C69.6192 97.4314 68.3807 96.4742 67.2596 95.4383C66.494 95.1857 65.7847 94.1289 65.0383 93.7782L64.9 93.4452C64.6057 93.3873 64.3499 93.1331 64.1923 92.8983C63.8192 92.7229 63.4846 92.3513 63.3077 92.2146L62.9538 91.9411C62.423 91.5309 61.7941 91.1014 61.3808 90.6124L61.3422 90.8086C60.3385 89.6939 59.6324 89.6568 58.9231 88.6C58.1768 88.2493 57.7634 87.7603 57.35 87.2713C56.9367 86.7822 56.5426 86.1951 55.502 85.7865C55.7963 85.8444 55.5213 85.6884 55.5406 85.5902C54.7347 85.024 53.5766 84.6942 53.4801 85.1848C52.6951 85.0303 52.8914 85.0689 52.7337 84.8341C52.6951 85.0303 52.0871 85.0126 51.4212 85.2892C51.4212 85.2892 51.6367 85.2297 51.656 85.1316C51.1075 85.3294 50.4416 85.606 50.0314 86.1368C50.2276 86.1754 50.3257 86.1947 50.5413 86.1352C50.189 86.3717 50.0716 86.4505 49.9734 86.4312C49.9734 86.4312 49.7772 86.3925 49.5825 86.8638L49.8769 86.9217C49.5455 87.57 49.4683 87.9624 49.2736 88.4337C49.1771 88.9243 49.0998 89.3168 48.984 89.9055C49.3635 92.1204 50.7225 94.0186 51.9626 95.4856C53.3008 96.972 54.5602 98.3409 55.604 99.7693L55.5461 100.064C55.3901 100.339 56.5868 100.472 56.4308 100.747L56.8232 100.825C56.7846 101.021 56.9422 101.256 56.746 101.217C57.0017 101.471 57.0017 101.471 57.2768 101.627L57.3958 102.058C58.3801 103.271 59.4803 103.895 60.6995 104.951C61.8221 106.496 64.8686 108.625 66.5976 109.678C69.1712 111.102 71.2396 114.057 74.0673 115.225L74.4597 115.302C75.2849 115.77 76.2081 116.258 77.2681 116.568C77.2681 116.568 77.4644 116.607 77.9549 116.704C78.3474 116.781 78.9361 116.897 79.7002 116.639C81.1704 116.419 82.6374 115.179 83.0059 113.825C83.141 113.138 83.2569 112.549 83.0397 112.099C82.9014 111.766 82.7245 111.629 82.5878 111.806C82.451 111.983 82.3738 112.375 81.9829 112.808C81.6901 113.26 81.0644 113.85 80.1234 113.971C79.5749 114.169 79.2612 114.209 78.8494 114.23C78.457 114.152 78.124 114.291 77.6141 114.292C77.6913 113.9 76.6715 113.903 76.4158 113.649C75.6308 113.494 75.0985 112.574 74.2154 112.401C74.2154 112.401 74.3328 112.322 74.5098 112.458C73.9597 112.146 73.2133 111.796 73.2713 111.501C71.9941 110.74 70.4211 109.412 69.4399 109.219C68.9493 109.122 68.9091 108.808 68.3397 108.594C67.751 108.479 66.905 107.599 66.5511 107.325L66.5898 107.129L65.7051 106.445L66.059 106.719C65.7067 106.955 65.5073 105.897 64.7417 105.644C64.1321 105.117 62.8774 105.277 62.4046 104.573C62.0121 104.496 62.9144 104.571 62.3644 104.259C62.403 104.063 62.6587 104.317 62.6973 104.121C62.1472 103.809 62.1457 103.299 61.4975 102.967L61.5361 102.771C60.6916 102.401 60.4729 101.441 59.8054 101.208C58.9996 100.641 59.6655 100.365 58.7422 99.8773L58.6232 99.4462C58.3868 99.0939 58.2308 99.369 57.9943 99.0167C58.1118 98.9379 57.6791 98.547 57.9735 98.6049C57.4411 97.6848 56.2042 97.2375 55.6509 95.9057C55.2584 95.8284 54.8644 95.2413 54.57 95.1834C54.5894 95.0852 53.6645 94.0879 54.3915 94.5367C54.3915 94.5367 54.5685 94.6735 54.4704 94.6542L54.6666 94.6928C54.4286 93.8306 53.6436 93.6761 53.2689 92.9909C53.3284 93.2064 53.486 93.4413 53.3091 93.3045C53.1515 93.0697 53.0726 92.9523 52.915 92.7174L53.1113 92.756C52.973 92.4231 52.8153 92.1882 52.677 91.8552L52.6384 92.0515C52.4213 91.6011 52.6754 91.3453 52.2428 90.9544C51.9677 90.7984 52.1462 91.445 51.9291 90.9946C51.7506 90.348 51.7281 89.4263 51.7652 88.7202C51.5496 88.7797 51.5689 88.6816 51.5094 88.466L51.7057 88.5046C51.6655 88.191 51.7636 88.2103 51.7636 88.2103C51.8617 88.2296 51.9598 88.2489 51.8617 88.2296C51.8617 88.2296 51.881 88.1315 51.7041 87.9947C51.7427 87.7985 51.7427 87.7985 51.8215 87.9159C51.8215 87.9159 51.9196 87.9352 52.1545 87.7776C51.9583 87.739 52.0162 87.4446 52.2124 87.4833L52.1738 87.6795C52.2719 87.6988 52.3894 87.62 52.4875 87.6393C52.4875 87.6393 52.4489 87.8355 52.6451 87.8742C52.6451 87.8742 52.6258 87.9723 52.5084 88.0511C52.6258 87.9723 52.7432 87.8935 52.9588 87.834C53.2145 88.0881 53.9801 88.3407 54.001 88.7525C54.001 88.7525 54.7489 89.6131 55.1607 89.5922C54.8664 89.5343 55.3778 90.0426 55.0642 90.0828C55.4566 90.16 56.2625 90.7263 56.4008 91.0592C57.2082 92.1354 58.2682 92.4459 59.0949 93.4239C59.1335 93.2277 59.645 93.736 59.6836 93.5398C60.7838 94.1639 61.1215 95.5553 62.003 95.2192C62.4357 95.6101 62.397 95.8063 62.5547 96.0412C63.2431 96.6862 63.4988 96.9404 64.1084 97.468C64.4816 97.6434 64.7164 97.4858 65.2279 97.9941C64.9335 97.9362 65.2086 98.0922 65.3662 98.3271C65.17 98.2884 65.17 98.2884 65.3276 98.5233C65.3276 98.5233 65.4257 98.5426 65.5238 98.5619C65.8777 98.8354 65.897 98.7373 65.7201 98.6005C65.7201 98.6005 65.7201 98.6005 65.7394 98.5024C65.9565 98.9528 66.6835 99.4016 66.6449 99.5979C67.6872 100.516 68.6297 100.906 69.5144 101.589C69.4758 101.786 69.2988 101.649 68.9257 101.474L69.5353 102.001C69.3985 102.178 69.064 101.807 68.887 101.67C69.4194 102.59 70.5968 102.822 71.2273 103.761L71.5217 103.819C71.5217 103.819 71.816 103.877 72.0123 103.915C71.9736 104.112 71.7581 104.171 72.1908 104.562C72.4079 105.012 73.1542 105.363 73.7043 105.675C73.4486 105.421 73.6448 105.46 73.7429 105.479C73.9199 105.616 73.96 105.929 74.1563 105.968L74.1177 106.164C74.1563 105.968 74.7659 106.496 74.864 106.515C74.8254 106.711 74.4908 106.34 74.2753 106.399C75.1406 107.181 74.708 106.79 75.5926 107.474C76.1427 107.786 75.6312 107.277 76.043 107.257C76.495 107.549 76.9469 107.842 77.3603 108.331L77.4182 108.037C78.2241 108.603 78.6567 108.994 78.9527 109.562C85.5538 113.307 81.618 108.965 81.618 108.965C79.7281 106.657 78.1969 106.152 75.4834 103.885L75.7762 103.433Z" fill="#FF2626"/>
</svg>
